<?xml version="1.0" encoding="utf-8" standalone="no"?>
<!DOCTYPE svg PUBLIC "-//W3C//DTD SVG 1.1//EN"
  "http://www.w3.org/Graphics/SVG/1.1/DTD/svg11.dtd">
<svg xmlns:xlink="http://www.w3.org/1999/xlink" width="460.8pt" height="345.6pt" viewBox="0 0 460.8 345.6" xmlns="http://www.w3.org/2000/svg" version="1.1">
 <metadata>
  <rdf:RDF xmlns:dc="http://purl.org/dc/elements/1.1/" xmlns:cc="http://creativecommons.org/ns#" xmlns:rdf="http://www.w3.org/1999/02/22-rdf-syntax-ns#">
   <cc:Work>
    <dc:type rdf:resource="http://purl.org/dc/dcmitype/StillImage"/>
    <dc:date>2023-06-29T17:40:36.912544</dc:date>
    <dc:format>image/svg+xml</dc:format>
    <dc:creator>
     <cc:Agent>
      <dc:title>Matplotlib v3.7.1, https://matplotlib.org/</dc:title>
     </cc:Agent>
    </dc:creator>
   </cc:Work>
  </rdf:RDF>
 </metadata>
 <defs>
  <style type="text/css">*{stroke-linejoin: round; stroke-linecap: butt}</style>
 </defs>
 <g id="figure_1">
  <g id="patch_1">
   <path d="M 0 345.6 
L 460.8 345.6 
L 460.8 0 
L 0 0 
z
" style="fill: #ffffff"/>
  </g>
  <g id="axes_1">
   <g id="patch_2">
    <path d="M 57.6 307.584 
L 414.72 307.584 
L 414.72 41.472 
L 57.6 41.472 
z
" style="fill: #eaeaf2"/>
   </g>
   <g id="matplotlib.axis_1">
    <g id="xtick_1">
     <g id="text_1">
      <!-- 0 -->
      <g style="fill: #262626" transform="translate(71.052259 321.741812) scale(0.1 -0.1)">
       <defs>
        <path id="ArialMT-30" d="M 266 2259 
Q 266 3072 433 3567 
Q 600 4063 929 4331 
Q 1259 4600 1759 4600 
Q 2128 4600 2406 4451 
Q 2684 4303 2865 4023 
Q 3047 3744 3150 3342 
Q 3253 2941 3253 2259 
Q 3253 1453 3087 958 
Q 2922 463 2592 192 
Q 2263 -78 1759 -78 
Q 1097 -78 719 397 
Q 266 969 266 2259 
z
M 844 2259 
Q 844 1131 1108 757 
Q 1372 384 1759 384 
Q 2147 384 2411 759 
Q 2675 1134 2675 2259 
Q 2675 3391 2411 3762 
Q 2147 4134 1753 4134 
Q 1366 4134 1134 3806 
Q 844 3388 844 2259 
z
" transform="scale(0.015625)"/>
       </defs>
       <use xlink:href="#ArialMT-30"/>
      </g>
     </g>
    </g>
    <g id="xtick_2">
     <g id="text_2">
      <!-- 20 -->
      <g style="fill: #262626" transform="translate(122.156362 321.741812) scale(0.1 -0.1)">
       <defs>
        <path id="ArialMT-32" d="M 3222 541 
L 3222 0 
L 194 0 
Q 188 203 259 391 
Q 375 700 629 1000 
Q 884 1300 1366 1694 
Q 2113 2306 2375 2664 
Q 2638 3022 2638 3341 
Q 2638 3675 2398 3904 
Q 2159 4134 1775 4134 
Q 1369 4134 1125 3890 
Q 881 3647 878 3216 
L 300 3275 
Q 359 3922 746 4261 
Q 1134 4600 1788 4600 
Q 2447 4600 2831 4234 
Q 3216 3869 3216 3328 
Q 3216 3053 3103 2787 
Q 2991 2522 2730 2228 
Q 2469 1934 1863 1422 
Q 1356 997 1212 845 
Q 1069 694 975 541 
L 3222 541 
z
" transform="scale(0.015625)"/>
       </defs>
       <use xlink:href="#ArialMT-32"/>
       <use xlink:href="#ArialMT-30" x="55.615234"/>
      </g>
     </g>
    </g>
    <g id="xtick_3">
     <g id="text_3">
      <!-- 40 -->
      <g style="fill: #262626" transform="translate(176.040933 321.741812) scale(0.1 -0.1)">
       <defs>
        <path id="ArialMT-34" d="M 2069 0 
L 2069 1097 
L 81 1097 
L 81 1613 
L 2172 4581 
L 2631 4581 
L 2631 1613 
L 3250 1613 
L 3250 1097 
L 2631 1097 
L 2631 0 
L 2069 0 
z
M 2069 1613 
L 2069 3678 
L 634 1613 
L 2069 1613 
z
" transform="scale(0.015625)"/>
       </defs>
       <use xlink:href="#ArialMT-34"/>
       <use xlink:href="#ArialMT-30" x="55.615234"/>
      </g>
     </g>
    </g>
    <g id="xtick_4">
     <g id="text_4">
      <!-- 60 -->
      <g style="fill: #262626" transform="translate(229.925505 321.741812) scale(0.1 -0.1)">
       <defs>
        <path id="ArialMT-36" d="M 3184 3459 
L 2625 3416 
Q 2550 3747 2413 3897 
Q 2184 4138 1850 4138 
Q 1581 4138 1378 3988 
Q 1113 3794 959 3422 
Q 806 3050 800 2363 
Q 1003 2672 1297 2822 
Q 1591 2972 1913 2972 
Q 2475 2972 2870 2558 
Q 3266 2144 3266 1488 
Q 3266 1056 3080 686 
Q 2894 316 2569 119 
Q 2244 -78 1831 -78 
Q 1128 -78 684 439 
Q 241 956 241 2144 
Q 241 3472 731 4075 
Q 1159 4600 1884 4600 
Q 2425 4600 2770 4297 
Q 3116 3994 3184 3459 
z
M 888 1484 
Q 888 1194 1011 928 
Q 1134 663 1356 523 
Q 1578 384 1822 384 
Q 2178 384 2434 671 
Q 2691 959 2691 1453 
Q 2691 1928 2437 2201 
Q 2184 2475 1800 2475 
Q 1419 2475 1153 2201 
Q 888 1928 888 1484 
z
" transform="scale(0.015625)"/>
       </defs>
       <use xlink:href="#ArialMT-36"/>
       <use xlink:href="#ArialMT-30" x="55.615234"/>
      </g>
     </g>
    </g>
    <g id="xtick_5">
     <g id="text_5">
      <!-- 80 -->
      <g style="fill: #262626" transform="translate(283.810077 321.741812) scale(0.1 -0.1)">
       <defs>
        <path id="ArialMT-38" d="M 1131 2484 
Q 781 2613 612 2850 
Q 444 3088 444 3419 
Q 444 3919 803 4259 
Q 1163 4600 1759 4600 
Q 2359 4600 2725 4251 
Q 3091 3903 3091 3403 
Q 3091 3084 2923 2848 
Q 2756 2613 2416 2484 
Q 2838 2347 3058 2040 
Q 3278 1734 3278 1309 
Q 3278 722 2862 322 
Q 2447 -78 1769 -78 
Q 1091 -78 675 323 
Q 259 725 259 1325 
Q 259 1772 486 2073 
Q 713 2375 1131 2484 
z
M 1019 3438 
Q 1019 3113 1228 2906 
Q 1438 2700 1772 2700 
Q 2097 2700 2305 2904 
Q 2513 3109 2513 3406 
Q 2513 3716 2298 3927 
Q 2084 4138 1766 4138 
Q 1444 4138 1231 3931 
Q 1019 3725 1019 3438 
z
M 838 1322 
Q 838 1081 952 856 
Q 1066 631 1291 507 
Q 1516 384 1775 384 
Q 2178 384 2440 643 
Q 2703 903 2703 1303 
Q 2703 1709 2433 1975 
Q 2163 2241 1756 2241 
Q 1359 2241 1098 1978 
Q 838 1716 838 1322 
z
" transform="scale(0.015625)"/>
       </defs>
       <use xlink:href="#ArialMT-38"/>
       <use xlink:href="#ArialMT-30" x="55.615234"/>
      </g>
     </g>
    </g>
    <g id="xtick_6">
     <g id="text_6">
      <!-- 100 -->
      <g style="fill: #262626" transform="translate(334.91418 321.741812) scale(0.1 -0.1)">
       <defs>
        <path id="ArialMT-31" d="M 2384 0 
L 1822 0 
L 1822 3584 
Q 1619 3391 1289 3197 
Q 959 3003 697 2906 
L 697 3450 
Q 1169 3672 1522 3987 
Q 1875 4303 2022 4600 
L 2384 4600 
L 2384 0 
z
" transform="scale(0.015625)"/>
       </defs>
       <use xlink:href="#ArialMT-31"/>
       <use xlink:href="#ArialMT-30" x="55.615234"/>
       <use xlink:href="#ArialMT-30" x="111.230469"/>
      </g>
     </g>
    </g>
    <g id="xtick_7">
     <g id="text_7">
      <!-- 120 -->
      <g style="fill: #262626" transform="translate(388.798752 321.741812) scale(0.1 -0.1)">
       <use xlink:href="#ArialMT-31"/>
       <use xlink:href="#ArialMT-32" x="55.615234"/>
       <use xlink:href="#ArialMT-30" x="111.230469"/>
      </g>
     </g>
    </g>
    <g id="text_8">
     <!-- Time lags (k) -->
     <g style="fill: #262626" transform="translate(184.495781 340.83275) scale(0.18 -0.18)">
      <defs>
       <path id="ArialMT-54" d="M 1659 0 
L 1659 4041 
L 150 4041 
L 150 4581 
L 3781 4581 
L 3781 4041 
L 2266 4041 
L 2266 0 
L 1659 0 
z
" transform="scale(0.015625)"/>
       <path id="ArialMT-69" d="M 425 3934 
L 425 4581 
L 988 4581 
L 988 3934 
L 425 3934 
z
M 425 0 
L 425 3319 
L 988 3319 
L 988 0 
L 425 0 
z
" transform="scale(0.015625)"/>
       <path id="ArialMT-6d" d="M 422 0 
L 422 3319 
L 925 3319 
L 925 2853 
Q 1081 3097 1340 3245 
Q 1600 3394 1931 3394 
Q 2300 3394 2536 3241 
Q 2772 3088 2869 2813 
Q 3263 3394 3894 3394 
Q 4388 3394 4653 3120 
Q 4919 2847 4919 2278 
L 4919 0 
L 4359 0 
L 4359 2091 
Q 4359 2428 4304 2576 
Q 4250 2725 4106 2815 
Q 3963 2906 3769 2906 
Q 3419 2906 3187 2673 
Q 2956 2441 2956 1928 
L 2956 0 
L 2394 0 
L 2394 2156 
Q 2394 2531 2256 2718 
Q 2119 2906 1806 2906 
Q 1569 2906 1367 2781 
Q 1166 2656 1075 2415 
Q 984 2175 984 1722 
L 984 0 
L 422 0 
z
" transform="scale(0.015625)"/>
       <path id="ArialMT-65" d="M 2694 1069 
L 3275 997 
Q 3138 488 2766 206 
Q 2394 -75 1816 -75 
Q 1088 -75 661 373 
Q 234 822 234 1631 
Q 234 2469 665 2931 
Q 1097 3394 1784 3394 
Q 2450 3394 2872 2941 
Q 3294 2488 3294 1666 
Q 3294 1616 3291 1516 
L 816 1516 
Q 847 969 1125 678 
Q 1403 388 1819 388 
Q 2128 388 2347 550 
Q 2566 713 2694 1069 
z
M 847 1978 
L 2700 1978 
Q 2663 2397 2488 2606 
Q 2219 2931 1791 2931 
Q 1403 2931 1139 2672 
Q 875 2413 847 1978 
z
" transform="scale(0.015625)"/>
       <path id="ArialMT-20" transform="scale(0.015625)"/>
       <path id="ArialMT-6c" d="M 409 0 
L 409 4581 
L 972 4581 
L 972 0 
L 409 0 
z
" transform="scale(0.015625)"/>
       <path id="ArialMT-61" d="M 2588 409 
Q 2275 144 1986 34 
Q 1697 -75 1366 -75 
Q 819 -75 525 192 
Q 231 459 231 875 
Q 231 1119 342 1320 
Q 453 1522 633 1644 
Q 813 1766 1038 1828 
Q 1203 1872 1538 1913 
Q 2219 1994 2541 2106 
Q 2544 2222 2544 2253 
Q 2544 2597 2384 2738 
Q 2169 2928 1744 2928 
Q 1347 2928 1158 2789 
Q 969 2650 878 2297 
L 328 2372 
Q 403 2725 575 2942 
Q 747 3159 1072 3276 
Q 1397 3394 1825 3394 
Q 2250 3394 2515 3294 
Q 2781 3194 2906 3042 
Q 3031 2891 3081 2659 
Q 3109 2516 3109 2141 
L 3109 1391 
Q 3109 606 3145 398 
Q 3181 191 3288 0 
L 2700 0 
Q 2613 175 2588 409 
z
M 2541 1666 
Q 2234 1541 1622 1453 
Q 1275 1403 1131 1340 
Q 988 1278 909 1158 
Q 831 1038 831 891 
Q 831 666 1001 516 
Q 1172 366 1500 366 
Q 1825 366 2078 508 
Q 2331 650 2450 897 
Q 2541 1088 2541 1459 
L 2541 1666 
z
" transform="scale(0.015625)"/>
       <path id="ArialMT-67" d="M 319 -275 
L 866 -356 
Q 900 -609 1056 -725 
Q 1266 -881 1628 -881 
Q 2019 -881 2231 -725 
Q 2444 -569 2519 -288 
Q 2563 -116 2559 434 
Q 2191 0 1641 0 
Q 956 0 581 494 
Q 206 988 206 1678 
Q 206 2153 378 2554 
Q 550 2956 876 3175 
Q 1203 3394 1644 3394 
Q 2231 3394 2613 2919 
L 2613 3319 
L 3131 3319 
L 3131 450 
Q 3131 -325 2973 -648 
Q 2816 -972 2473 -1159 
Q 2131 -1347 1631 -1347 
Q 1038 -1347 672 -1080 
Q 306 -813 319 -275 
z
M 784 1719 
Q 784 1066 1043 766 
Q 1303 466 1694 466 
Q 2081 466 2343 764 
Q 2606 1063 2606 1700 
Q 2606 2309 2336 2618 
Q 2066 2928 1684 2928 
Q 1309 2928 1046 2623 
Q 784 2319 784 1719 
z
" transform="scale(0.015625)"/>
       <path id="ArialMT-73" d="M 197 991 
L 753 1078 
Q 800 744 1014 566 
Q 1228 388 1613 388 
Q 2000 388 2187 545 
Q 2375 703 2375 916 
Q 2375 1106 2209 1216 
Q 2094 1291 1634 1406 
Q 1016 1563 777 1677 
Q 538 1791 414 1992 
Q 291 2194 291 2438 
Q 291 2659 392 2848 
Q 494 3038 669 3163 
Q 800 3259 1026 3326 
Q 1253 3394 1513 3394 
Q 1903 3394 2198 3281 
Q 2494 3169 2634 2976 
Q 2775 2784 2828 2463 
L 2278 2388 
Q 2241 2644 2061 2787 
Q 1881 2931 1553 2931 
Q 1166 2931 1000 2803 
Q 834 2675 834 2503 
Q 834 2394 903 2306 
Q 972 2216 1119 2156 
Q 1203 2125 1616 2013 
Q 2213 1853 2448 1751 
Q 2684 1650 2818 1456 
Q 2953 1263 2953 975 
Q 2953 694 2789 445 
Q 2625 197 2315 61 
Q 2006 -75 1616 -75 
Q 969 -75 630 194 
Q 291 463 197 991 
z
" transform="scale(0.015625)"/>
       <path id="ArialMT-28" d="M 1497 -1347 
Q 1031 -759 709 28 
Q 388 816 388 1659 
Q 388 2403 628 3084 
Q 909 3875 1497 4659 
L 1900 4659 
Q 1522 4009 1400 3731 
Q 1209 3300 1100 2831 
Q 966 2247 966 1656 
Q 966 153 1900 -1347 
L 1497 -1347 
z
" transform="scale(0.015625)"/>
       <path id="ArialMT-6b" d="M 425 0 
L 425 4581 
L 988 4581 
L 988 1969 
L 2319 3319 
L 3047 3319 
L 1778 2088 
L 3175 0 
L 2481 0 
L 1384 1697 
L 988 1316 
L 988 0 
L 425 0 
z
" transform="scale(0.015625)"/>
       <path id="ArialMT-29" d="M 791 -1347 
L 388 -1347 
Q 1322 153 1322 1656 
Q 1322 2244 1188 2822 
Q 1081 3291 891 3722 
Q 769 4003 388 4659 
L 791 4659 
Q 1378 3875 1659 3084 
Q 1900 2403 1900 1659 
Q 1900 816 1576 28 
Q 1253 -759 791 -1347 
z
" transform="scale(0.015625)"/>
      </defs>
      <use xlink:href="#ArialMT-54"/>
      <use xlink:href="#ArialMT-69" x="57.333984"/>
      <use xlink:href="#ArialMT-6d" x="79.550781"/>
      <use xlink:href="#ArialMT-65" x="162.851562"/>
      <use xlink:href="#ArialMT-20" x="218.466797"/>
      <use xlink:href="#ArialMT-6c" x="246.25"/>
      <use xlink:href="#ArialMT-61" x="268.466797"/>
      <use xlink:href="#ArialMT-67" x="324.082031"/>
      <use xlink:href="#ArialMT-73" x="379.697266"/>
      <use xlink:href="#ArialMT-20" x="429.697266"/>
      <use xlink:href="#ArialMT-28" x="457.480469"/>
      <use xlink:href="#ArialMT-6b" x="490.78125"/>
      <use xlink:href="#ArialMT-29" x="540.78125"/>
     </g>
    </g>
   </g>
   <g id="matplotlib.axis_2">
    <g id="ytick_1">
     <g id="text_9">
      <!-- −1.00 -->
      <g style="fill: #262626" transform="translate(25.298437 311.162906) scale(0.1 -0.1)">
       <defs>
        <path id="ArialMT-2212" d="M 3381 1997 
L 356 1997 
L 356 2522 
L 3381 2522 
L 3381 1997 
z
" transform="scale(0.015625)"/>
        <path id="ArialMT-2e" d="M 581 0 
L 581 641 
L 1222 641 
L 1222 0 
L 581 0 
z
" transform="scale(0.015625)"/>
       </defs>
       <use xlink:href="#ArialMT-2212"/>
       <use xlink:href="#ArialMT-31" x="58.398438"/>
       <use xlink:href="#ArialMT-2e" x="114.013672"/>
       <use xlink:href="#ArialMT-30" x="141.796875"/>
       <use xlink:href="#ArialMT-30" x="197.412109"/>
      </g>
     </g>
    </g>
    <g id="ytick_2">
     <g id="text_10">
      <!-- −0.75 -->
      <g style="fill: #262626" transform="translate(25.298437 277.898906) scale(0.1 -0.1)">
       <defs>
        <path id="ArialMT-37" d="M 303 3981 
L 303 4522 
L 3269 4522 
L 3269 4084 
Q 2831 3619 2401 2847 
Q 1972 2075 1738 1259 
Q 1569 684 1522 0 
L 944 0 
Q 953 541 1156 1306 
Q 1359 2072 1739 2783 
Q 2119 3494 2547 3981 
L 303 3981 
z
" transform="scale(0.015625)"/>
        <path id="ArialMT-35" d="M 266 1200 
L 856 1250 
Q 922 819 1161 601 
Q 1400 384 1738 384 
Q 2144 384 2425 690 
Q 2706 997 2706 1503 
Q 2706 1984 2436 2262 
Q 2166 2541 1728 2541 
Q 1456 2541 1237 2417 
Q 1019 2294 894 2097 
L 366 2166 
L 809 4519 
L 3088 4519 
L 3088 3981 
L 1259 3981 
L 1013 2750 
Q 1425 3038 1878 3038 
Q 2478 3038 2890 2622 
Q 3303 2206 3303 1553 
Q 3303 931 2941 478 
Q 2500 -78 1738 -78 
Q 1113 -78 717 272 
Q 322 622 266 1200 
z
" transform="scale(0.015625)"/>
       </defs>
       <use xlink:href="#ArialMT-2212"/>
       <use xlink:href="#ArialMT-30" x="58.398438"/>
       <use xlink:href="#ArialMT-2e" x="114.013672"/>
       <use xlink:href="#ArialMT-37" x="141.796875"/>
       <use xlink:href="#ArialMT-35" x="197.412109"/>
      </g>
     </g>
    </g>
    <g id="ytick_3">
     <g id="text_11">
      <!-- −0.50 -->
      <g style="fill: #262626" transform="translate(25.298437 244.634906) scale(0.1 -0.1)">
       <use xlink:href="#ArialMT-2212"/>
       <use xlink:href="#ArialMT-30" x="58.398438"/>
       <use xlink:href="#ArialMT-2e" x="114.013672"/>
       <use xlink:href="#ArialMT-35" x="141.796875"/>
       <use xlink:href="#ArialMT-30" x="197.412109"/>
      </g>
     </g>
    </g>
    <g id="ytick_4">
     <g id="text_12">
      <!-- −0.25 -->
      <g style="fill: #262626" transform="translate(25.298437 211.370906) scale(0.1 -0.1)">
       <use xlink:href="#ArialMT-2212"/>
       <use xlink:href="#ArialMT-30" x="58.398438"/>
       <use xlink:href="#ArialMT-2e" x="114.013672"/>
       <use xlink:href="#ArialMT-32" x="141.796875"/>
       <use xlink:href="#ArialMT-35" x="197.412109"/>
      </g>
     </g>
    </g>
    <g id="ytick_5">
     <g id="text_13">
      <!-- 0.00 -->
      <g style="fill: #262626" transform="translate(31.139063 178.106906) scale(0.1 -0.1)">
       <use xlink:href="#ArialMT-30"/>
       <use xlink:href="#ArialMT-2e" x="55.615234"/>
       <use xlink:href="#ArialMT-30" x="83.398438"/>
       <use xlink:href="#ArialMT-30" x="139.013672"/>
      </g>
     </g>
    </g>
    <g id="ytick_6">
     <g id="text_14">
      <!-- 0.25 -->
      <g style="fill: #262626" transform="translate(31.139063 144.842906) scale(0.1 -0.1)">
       <use xlink:href="#ArialMT-30"/>
       <use xlink:href="#ArialMT-2e" x="55.615234"/>
       <use xlink:href="#ArialMT-32" x="83.398438"/>
       <use xlink:href="#ArialMT-35" x="139.013672"/>
      </g>
     </g>
    </g>
    <g id="ytick_7">
     <g id="text_15">
      <!-- 0.50 -->
      <g style="fill: #262626" transform="translate(31.139063 111.578906) scale(0.1 -0.1)">
       <use xlink:href="#ArialMT-30"/>
       <use xlink:href="#ArialMT-2e" x="55.615234"/>
       <use xlink:href="#ArialMT-35" x="83.398438"/>
       <use xlink:href="#ArialMT-30" x="139.013672"/>
      </g>
     </g>
    </g>
    <g id="ytick_8">
     <g id="text_16">
      <!-- 0.75 -->
      <g style="fill: #262626" transform="translate(31.139063 78.314906) scale(0.1 -0.1)">
       <use xlink:href="#ArialMT-30"/>
       <use xlink:href="#ArialMT-2e" x="55.615234"/>
       <use xlink:href="#ArialMT-37" x="83.398438"/>
       <use xlink:href="#ArialMT-35" x="139.013672"/>
      </g>
     </g>
    </g>
    <g id="ytick_9">
     <g id="text_17">
      <!-- 1.00 -->
      <g style="fill: #262626" transform="translate(31.139063 45.050906) scale(0.1 -0.1)">
       <use xlink:href="#ArialMT-31"/>
       <use xlink:href="#ArialMT-2e" x="55.615234"/>
       <use xlink:href="#ArialMT-30" x="83.398438"/>
       <use xlink:href="#ArialMT-30" x="139.013672"/>
      </g>
     </g>
    </g>
    <g id="text_18">
     <!-- Autocorrelation -->
     <g style="fill: #262626" transform="translate(17.720937 235.058625) rotate(-90) scale(0.18 -0.18)">
      <defs>
       <path id="ArialMT-41" d="M -9 0 
L 1750 4581 
L 2403 4581 
L 4278 0 
L 3588 0 
L 3053 1388 
L 1138 1388 
L 634 0 
L -9 0 
z
M 1313 1881 
L 2866 1881 
L 2388 3150 
Q 2169 3728 2063 4100 
Q 1975 3659 1816 3225 
L 1313 1881 
z
" transform="scale(0.015625)"/>
       <path id="ArialMT-75" d="M 2597 0 
L 2597 488 
Q 2209 -75 1544 -75 
Q 1250 -75 995 37 
Q 741 150 617 320 
Q 494 491 444 738 
Q 409 903 409 1263 
L 409 3319 
L 972 3319 
L 972 1478 
Q 972 1038 1006 884 
Q 1059 663 1231 536 
Q 1403 409 1656 409 
Q 1909 409 2131 539 
Q 2353 669 2445 892 
Q 2538 1116 2538 1541 
L 2538 3319 
L 3100 3319 
L 3100 0 
L 2597 0 
z
" transform="scale(0.015625)"/>
       <path id="ArialMT-74" d="M 1650 503 
L 1731 6 
Q 1494 -44 1306 -44 
Q 1000 -44 831 53 
Q 663 150 594 308 
Q 525 466 525 972 
L 525 2881 
L 113 2881 
L 113 3319 
L 525 3319 
L 525 4141 
L 1084 4478 
L 1084 3319 
L 1650 3319 
L 1650 2881 
L 1084 2881 
L 1084 941 
Q 1084 700 1114 631 
Q 1144 563 1211 522 
Q 1278 481 1403 481 
Q 1497 481 1650 503 
z
" transform="scale(0.015625)"/>
       <path id="ArialMT-6f" d="M 213 1659 
Q 213 2581 725 3025 
Q 1153 3394 1769 3394 
Q 2453 3394 2887 2945 
Q 3322 2497 3322 1706 
Q 3322 1066 3130 698 
Q 2938 331 2570 128 
Q 2203 -75 1769 -75 
Q 1072 -75 642 372 
Q 213 819 213 1659 
z
M 791 1659 
Q 791 1022 1069 705 
Q 1347 388 1769 388 
Q 2188 388 2466 706 
Q 2744 1025 2744 1678 
Q 2744 2294 2464 2611 
Q 2184 2928 1769 2928 
Q 1347 2928 1069 2612 
Q 791 2297 791 1659 
z
" transform="scale(0.015625)"/>
       <path id="ArialMT-63" d="M 2588 1216 
L 3141 1144 
Q 3050 572 2676 248 
Q 2303 -75 1759 -75 
Q 1078 -75 664 370 
Q 250 816 250 1647 
Q 250 2184 428 2587 
Q 606 2991 970 3192 
Q 1334 3394 1763 3394 
Q 2303 3394 2647 3120 
Q 2991 2847 3088 2344 
L 2541 2259 
Q 2463 2594 2264 2762 
Q 2066 2931 1784 2931 
Q 1359 2931 1093 2626 
Q 828 2322 828 1663 
Q 828 994 1084 691 
Q 1341 388 1753 388 
Q 2084 388 2306 591 
Q 2528 794 2588 1216 
z
" transform="scale(0.015625)"/>
       <path id="ArialMT-72" d="M 416 0 
L 416 3319 
L 922 3319 
L 922 2816 
Q 1116 3169 1280 3281 
Q 1444 3394 1641 3394 
Q 1925 3394 2219 3213 
L 2025 2691 
Q 1819 2813 1613 2813 
Q 1428 2813 1281 2702 
Q 1134 2591 1072 2394 
Q 978 2094 978 1738 
L 978 0 
L 416 0 
z
" transform="scale(0.015625)"/>
       <path id="ArialMT-6e" d="M 422 0 
L 422 3319 
L 928 3319 
L 928 2847 
Q 1294 3394 1984 3394 
Q 2284 3394 2536 3286 
Q 2788 3178 2913 3003 
Q 3038 2828 3088 2588 
Q 3119 2431 3119 2041 
L 3119 0 
L 2556 0 
L 2556 2019 
Q 2556 2363 2490 2533 
Q 2425 2703 2258 2804 
Q 2091 2906 1866 2906 
Q 1506 2906 1245 2678 
Q 984 2450 984 1813 
L 984 0 
L 422 0 
z
" transform="scale(0.015625)"/>
      </defs>
      <use xlink:href="#ArialMT-41"/>
      <use xlink:href="#ArialMT-75" x="66.699219"/>
      <use xlink:href="#ArialMT-74" x="122.314453"/>
      <use xlink:href="#ArialMT-6f" x="150.097656"/>
      <use xlink:href="#ArialMT-63" x="205.712891"/>
      <use xlink:href="#ArialMT-6f" x="255.712891"/>
      <use xlink:href="#ArialMT-72" x="311.328125"/>
      <use xlink:href="#ArialMT-72" x="344.628906"/>
      <use xlink:href="#ArialMT-65" x="377.929688"/>
      <use xlink:href="#ArialMT-6c" x="433.544922"/>
      <use xlink:href="#ArialMT-61" x="455.761719"/>
      <use xlink:href="#ArialMT-74" x="511.376953"/>
      <use xlink:href="#ArialMT-69" x="539.160156"/>
      <use xlink:href="#ArialMT-6f" x="561.376953"/>
      <use xlink:href="#ArialMT-6e" x="616.992188"/>
     </g>
    </g>
   </g>
   <g id="PolyCollection_1">
    <defs>
     <path id="m4faf04fca5" d="M 75.179842 -172.463254 
L 75.179842 -169.680746 
L 79.221184 -168.820776 
L 81.915413 -168.333756 
L 84.609642 -168.012291 
L 87.30387 -167.788604 
L 89.998099 -167.627731 
L 92.692327 -167.509212 
L 95.386556 -167.419324 
L 98.080785 -167.350422 
L 100.775013 -167.297008 
L 103.469242 -167.254143 
L 106.16347 -167.219767 
L 108.857699 -167.192078 
L 111.551928 -167.168625 
L 114.246156 -167.1484 
L 116.940385 -167.131456 
L 119.634613 -167.117259 
L 122.328842 -167.105399 
L 125.023071 -167.095475 
L 127.717299 -167.087045 
L 130.411528 -167.079844 
L 133.105756 -167.073946 
L 135.799985 -167.069301 
L 138.494214 -167.065718 
L 141.188442 -167.062994 
L 143.882671 -167.060903 
L 146.576899 -167.059284 
L 149.271128 -167.058007 
L 151.965356 -167.056955 
L 154.659585 -167.056199 
L 157.353814 -167.055664 
L 160.048042 -167.055234 
L 162.742271 -167.054791 
L 165.436499 -167.054248 
L 168.130728 -167.053532 
L 170.824957 -167.052588 
L 173.519185 -167.051332 
L 176.213414 -167.04968 
L 178.907642 -167.047635 
L 181.601871 -167.045396 
L 184.2961 -167.043204 
L 186.990328 -167.041369 
L 189.684557 -167.04011 
L 192.378785 -167.03947 
L 195.073014 -167.039287 
L 197.767243 -167.039282 
L 200.461471 -167.039228 
L 203.1557 -167.039033 
L 205.849928 -167.038768 
L 208.544157 -167.038571 
L 211.238386 -167.038516 
L 213.932614 -167.03851 
L 216.626843 -167.038331 
L 219.321071 -167.037708 
L 222.0153 -167.036522 
L 224.709528 -167.034877 
L 227.403757 -167.033018 
L 230.097986 -167.031242 
L 232.792214 -167.029816 
L 235.486443 -167.028883 
L 238.180671 -167.028398 
L 240.8749 -167.028217 
L 243.569129 -167.028193 
L 246.263357 -167.028181 
L 248.957586 -167.028077 
L 251.651814 -167.027879 
L 254.346043 -167.027656 
L 257.040272 -167.027452 
L 259.7345 -167.027269 
L 262.428729 -167.027096 
L 265.122957 -167.026933 
L 267.817186 -167.026791 
L 270.511415 -167.026682 
L 273.205643 -167.026612 
L 275.899872 -167.026575 
L 278.5941 -167.026555 
L 281.288329 -167.026552 
L 283.982558 -167.026552 
L 286.676786 -167.026544 
L 289.371015 -167.026518 
L 292.065243 -167.026446 
L 294.759472 -167.026316 
L 297.4537 -167.026094 
L 300.147929 -167.025747 
L 302.842158 -167.025172 
L 305.536386 -167.02427 
L 308.230615 -167.022806 
L 310.924843 -167.020353 
L 313.619072 -167.016366 
L 316.313301 -167.00946 
L 319.007529 -166.998141 
L 321.701758 -166.979654 
L 324.395986 -166.951241 
L 327.090215 -166.910762 
L 329.784444 -166.855659 
L 332.478672 -166.788324 
L 335.172901 -166.716035 
L 337.867129 -166.651855 
L 340.561358 -166.602233 
L 343.255587 -166.566843 
L 345.949815 -166.543025 
L 348.644044 -166.528076 
L 351.338272 -166.519132 
L 354.032501 -166.513833 
L 356.72673 -166.510839 
L 359.420958 -166.509148 
L 362.115187 -166.508236 
L 364.809415 -166.507705 
L 367.503644 -166.507477 
L 370.197873 -166.507392 
L 372.892101 -166.50737 
L 375.58633 -166.50737 
L 378.280558 -166.507368 
L 380.974787 -166.507356 
L 383.669015 -166.507343 
L 386.363244 -166.507332 
L 389.057473 -166.507315 
L 391.751701 -166.507266 
L 394.44593 -166.507161 
L 398.487273 -166.506992 
L 398.487273 -175.637008 
L 398.487273 -175.637008 
L 394.44593 -175.636839 
L 391.751701 -175.636734 
L 389.057473 -175.636685 
L 386.363244 -175.636668 
L 383.669015 -175.636657 
L 380.974787 -175.636644 
L 378.280558 -175.636632 
L 375.58633 -175.63663 
L 372.892101 -175.63663 
L 370.197873 -175.636608 
L 367.503644 -175.636523 
L 364.809415 -175.636295 
L 362.115187 -175.635764 
L 359.420958 -175.634852 
L 356.72673 -175.633161 
L 354.032501 -175.630167 
L 351.338272 -175.624868 
L 348.644044 -175.615924 
L 345.949815 -175.600975 
L 343.255587 -175.577157 
L 340.561358 -175.541767 
L 337.867129 -175.492145 
L 335.172901 -175.427965 
L 332.478672 -175.355676 
L 329.784444 -175.288341 
L 327.090215 -175.233238 
L 324.395986 -175.192759 
L 321.701758 -175.164346 
L 319.007529 -175.145859 
L 316.313301 -175.13454 
L 313.619072 -175.127634 
L 310.924843 -175.123647 
L 308.230615 -175.121194 
L 305.536386 -175.11973 
L 302.842158 -175.118828 
L 300.147929 -175.118253 
L 297.4537 -175.117906 
L 294.759472 -175.117684 
L 292.065243 -175.117554 
L 289.371015 -175.117482 
L 286.676786 -175.117456 
L 283.982558 -175.117448 
L 281.288329 -175.117448 
L 278.5941 -175.117445 
L 275.899872 -175.117425 
L 273.205643 -175.117388 
L 270.511415 -175.117318 
L 267.817186 -175.117209 
L 265.122957 -175.117067 
L 262.428729 -175.116904 
L 259.7345 -175.116731 
L 257.040272 -175.116548 
L 254.346043 -175.116344 
L 251.651814 -175.116121 
L 248.957586 -175.115923 
L 246.263357 -175.115819 
L 243.569129 -175.115807 
L 240.8749 -175.115783 
L 238.180671 -175.115602 
L 235.486443 -175.115117 
L 232.792214 -175.114184 
L 230.097986 -175.112758 
L 227.403757 -175.110982 
L 224.709528 -175.109123 
L 222.0153 -175.107478 
L 219.321071 -175.106292 
L 216.626843 -175.105669 
L 213.932614 -175.10549 
L 211.238386 -175.105484 
L 208.544157 -175.105429 
L 205.849928 -175.105232 
L 203.1557 -175.104967 
L 200.461471 -175.104772 
L 197.767243 -175.104718 
L 195.073014 -175.104713 
L 192.378785 -175.10453 
L 189.684557 -175.10389 
L 186.990328 -175.102631 
L 184.2961 -175.100796 
L 181.601871 -175.098604 
L 178.907642 -175.096365 
L 176.213414 -175.09432 
L 173.519185 -175.092668 
L 170.824957 -175.091412 
L 168.130728 -175.090468 
L 165.436499 -175.089752 
L 162.742271 -175.089209 
L 160.048042 -175.088766 
L 157.353814 -175.088336 
L 154.659585 -175.087801 
L 151.965356 -175.087045 
L 149.271128 -175.085993 
L 146.576899 -175.084716 
L 143.882671 -175.083097 
L 141.188442 -175.081006 
L 138.494214 -175.078282 
L 135.799985 -175.074699 
L 133.105756 -175.070054 
L 130.411528 -175.064156 
L 127.717299 -175.056955 
L 125.023071 -175.048525 
L 122.328842 -175.038601 
L 119.634613 -175.026741 
L 116.940385 -175.012544 
L 114.246156 -174.9956 
L 111.551928 -174.975375 
L 108.857699 -174.951922 
L 106.16347 -174.924233 
L 103.469242 -174.889857 
L 100.775013 -174.846992 
L 98.080785 -174.793578 
L 95.386556 -174.724676 
L 92.692327 -174.634788 
L 89.998099 -174.516269 
L 87.30387 -174.355396 
L 84.609642 -174.131709 
L 81.915413 -173.810244 
L 79.221184 -173.323224 
L 75.179842 -172.463254 
z
" style="stroke: #ffffff; stroke-opacity: 0.25"/>
    </defs>
    <g clip-path="url(#p63d65c5ab0)">
     <use xlink:href="#m4faf04fca5" x="0" y="345.6" style="fill: #1f77b4; fill-opacity: 0.25; stroke: #ffffff; stroke-opacity: 0.25"/>
    </g>
   </g>
   <g id="LineCollection_1">
    <path d="M 73.832727 174.528 
L 73.832727 41.472 
" clip-path="url(#p63d65c5ab0)" style="fill: none; stroke: #1f77b4; stroke-width: 1.5"/>
    <path d="M 76.526956 174.528 
L 76.526956 54.839276 
" clip-path="url(#p63d65c5ab0)" style="fill: none; stroke: #1f77b4; stroke-width: 1.5"/>
    <path d="M 79.221184 174.528 
L 79.221184 69.110292 
" clip-path="url(#p63d65c5ab0)" style="fill: none; stroke: #1f77b4; stroke-width: 1.5"/>
    <path d="M 81.915413 174.528 
L 81.915413 82.203388 
" clip-path="url(#p63d65c5ab0)" style="fill: none; stroke: #1f77b4; stroke-width: 1.5"/>
    <path d="M 84.609642 174.528 
L 84.609642 93.974559 
" clip-path="url(#p63d65c5ab0)" style="fill: none; stroke: #1f77b4; stroke-width: 1.5"/>
    <path d="M 87.30387 174.528 
L 87.30387 104.174236 
" clip-path="url(#p63d65c5ab0)" style="fill: none; stroke: #1f77b4; stroke-width: 1.5"/>
    <path d="M 89.998099 174.528 
L 89.998099 112.900563 
" clip-path="url(#p63d65c5ab0)" style="fill: none; stroke: #1f77b4; stroke-width: 1.5"/>
    <path d="M 92.692327 174.528 
L 92.692327 120.065787 
" clip-path="url(#p63d65c5ab0)" style="fill: none; stroke: #1f77b4; stroke-width: 1.5"/>
    <path d="M 95.386556 174.528 
L 95.386556 126.323442 
" clip-path="url(#p63d65c5ab0)" style="fill: none; stroke: #1f77b4; stroke-width: 1.5"/>
    <path d="M 98.080785 174.528 
L 98.080785 131.73478 
" clip-path="url(#p63d65c5ab0)" style="fill: none; stroke: #1f77b4; stroke-width: 1.5"/>
    <path d="M 100.775013 174.528 
L 100.775013 135.947976 
" clip-path="url(#p63d65c5ab0)" style="fill: none; stroke: #1f77b4; stroke-width: 1.5"/>
    <path d="M 103.469242 174.528 
L 103.469242 139.802768 
" clip-path="url(#p63d65c5ab0)" style="fill: none; stroke: #1f77b4; stroke-width: 1.5"/>
    <path d="M 106.16347 174.528 
L 106.16347 143.237569 
" clip-path="url(#p63d65c5ab0)" style="fill: none; stroke: #1f77b4; stroke-width: 1.5"/>
    <path d="M 108.857699 174.528 
L 108.857699 145.63471 
" clip-path="url(#p63d65c5ab0)" style="fill: none; stroke: #1f77b4; stroke-width: 1.5"/>
    <path d="M 111.551928 174.528 
L 111.551928 147.621449 
" clip-path="url(#p63d65c5ab0)" style="fill: none; stroke: #1f77b4; stroke-width: 1.5"/>
    <path d="M 114.246156 174.528 
L 114.246156 149.842607 
" clip-path="url(#p63d65c5ab0)" style="fill: none; stroke: #1f77b4; stroke-width: 1.5"/>
    <path d="M 116.940385 174.528 
L 116.940385 151.886874 
" clip-path="url(#p63d65c5ab0)" style="fill: none; stroke: #1f77b4; stroke-width: 1.5"/>
    <path d="M 119.634613 174.528 
L 119.634613 153.799579 
" clip-path="url(#p63d65c5ab0)" style="fill: none; stroke: #1f77b4; stroke-width: 1.5"/>
    <path d="M 122.328842 174.528 
L 122.328842 155.541306 
" clip-path="url(#p63d65c5ab0)" style="fill: none; stroke: #1f77b4; stroke-width: 1.5"/>
    <path d="M 125.023071 174.528 
L 125.023071 157.009099 
" clip-path="url(#p63d65c5ab0)" style="fill: none; stroke: #1f77b4; stroke-width: 1.5"/>
    <path d="M 127.717299 174.528 
L 127.717299 158.319035 
" clip-path="url(#p63d65c5ab0)" style="fill: none; stroke: #1f77b4; stroke-width: 1.5"/>
    <path d="M 130.411528 174.528 
L 130.411528 159.847471 
" clip-path="url(#p63d65c5ab0)" style="fill: none; stroke: #1f77b4; stroke-width: 1.5"/>
    <path d="M 133.105756 174.528 
L 133.105756 161.49106 
" clip-path="url(#p63d65c5ab0)" style="fill: none; stroke: #1f77b4; stroke-width: 1.5"/>
    <path d="M 135.799985 174.528 
L 135.799985 163.072358 
" clip-path="url(#p63d65c5ab0)" style="fill: none; stroke: #1f77b4; stroke-width: 1.5"/>
    <path d="M 138.494214 174.528 
L 138.494214 164.536529 
" clip-path="url(#p63d65c5ab0)" style="fill: none; stroke: #1f77b4; stroke-width: 1.5"/>
    <path d="M 141.188442 174.528 
L 141.188442 165.770805 
" clip-path="url(#p63d65c5ab0)" style="fill: none; stroke: #1f77b4; stroke-width: 1.5"/>
    <path d="M 143.882671 174.528 
L 143.882671 166.819267 
" clip-path="url(#p63d65c5ab0)" style="fill: none; stroke: #1f77b4; stroke-width: 1.5"/>
    <path d="M 146.576899 174.528 
L 146.576899 167.681158 
" clip-path="url(#p63d65c5ab0)" style="fill: none; stroke: #1f77b4; stroke-width: 1.5"/>
    <path d="M 149.271128 174.528 
L 149.271128 168.314077 
" clip-path="url(#p63d65c5ab0)" style="fill: none; stroke: #1f77b4; stroke-width: 1.5"/>
    <path d="M 151.965356 174.528 
L 151.965356 169.258263 
" clip-path="url(#p63d65c5ab0)" style="fill: none; stroke: #1f77b4; stroke-width: 1.5"/>
    <path d="M 154.659585 174.528 
L 154.659585 170.095363 
" clip-path="url(#p63d65c5ab0)" style="fill: none; stroke: #1f77b4; stroke-width: 1.5"/>
    <path d="M 157.353814 174.528 
L 157.353814 170.550968 
" clip-path="url(#p63d65c5ab0)" style="fill: none; stroke: #1f77b4; stroke-width: 1.5"/>
    <path d="M 160.048042 174.528 
L 160.048042 170.494007 
" clip-path="url(#p63d65c5ab0)" style="fill: none; stroke: #1f77b4; stroke-width: 1.5"/>
    <path d="M 162.742271 174.528 
L 162.742271 170.060797 
" clip-path="url(#p63d65c5ab0)" style="fill: none; stroke: #1f77b4; stroke-width: 1.5"/>
    <path d="M 165.436499 174.528 
L 165.436499 169.400639 
" clip-path="url(#p63d65c5ab0)" style="fill: none; stroke: #1f77b4; stroke-width: 1.5"/>
    <path d="M 168.130728 174.528 
L 168.130728 168.635347 
" clip-path="url(#p63d65c5ab0)" style="fill: none; stroke: #1f77b4; stroke-width: 1.5"/>
    <path d="M 170.824957 174.528 
L 170.824957 167.731982 
" clip-path="url(#p63d65c5ab0)" style="fill: none; stroke: #1f77b4; stroke-width: 1.5"/>
    <path d="M 173.519185 174.528 
L 173.519185 166.733284 
" clip-path="url(#p63d65c5ab0)" style="fill: none; stroke: #1f77b4; stroke-width: 1.5"/>
    <path d="M 176.213414 174.528 
L 176.213414 165.853187 
" clip-path="url(#p63d65c5ab0)" style="fill: none; stroke: #1f77b4; stroke-width: 1.5"/>
    <path d="M 178.907642 174.528 
L 178.907642 165.448103 
" clip-path="url(#p63d65c5ab0)" style="fill: none; stroke: #1f77b4; stroke-width: 1.5"/>
    <path d="M 181.601871 174.528 
L 181.601871 165.541817 
" clip-path="url(#p63d65c5ab0)" style="fill: none; stroke: #1f77b4; stroke-width: 1.5"/>
    <path d="M 184.2961 174.528 
L 184.2961 166.303773 
" clip-path="url(#p63d65c5ab0)" style="fill: none; stroke: #1f77b4; stroke-width: 1.5"/>
    <path d="M 186.990328 174.528 
L 186.990328 167.714059 
" clip-path="url(#p63d65c5ab0)" style="fill: none; stroke: #1f77b4; stroke-width: 1.5"/>
    <path d="M 189.684557 174.528 
L 189.684557 169.671619 
" clip-path="url(#p63d65c5ab0)" style="fill: none; stroke: #1f77b4; stroke-width: 1.5"/>
    <path d="M 192.378785 174.528 
L 192.378785 171.930997 
" clip-path="url(#p63d65c5ab0)" style="fill: none; stroke: #1f77b4; stroke-width: 1.5"/>
    <path d="M 195.073014 174.528 
L 195.073014 174.111471 
" clip-path="url(#p63d65c5ab0)" style="fill: none; stroke: #1f77b4; stroke-width: 1.5"/>
    <path d="M 197.767243 174.528 
L 197.767243 175.947024 
" clip-path="url(#p63d65c5ab0)" style="fill: none; stroke: #1f77b4; stroke-width: 1.5"/>
    <path d="M 200.461471 174.528 
L 200.461471 177.210523 
" clip-path="url(#p63d65c5ab0)" style="fill: none; stroke: #1f77b4; stroke-width: 1.5"/>
    <path d="M 203.1557 174.528 
L 203.1557 177.65545 
" clip-path="url(#p63d65c5ab0)" style="fill: none; stroke: #1f77b4; stroke-width: 1.5"/>
    <path d="M 205.849928 174.528 
L 205.849928 177.221512 
" clip-path="url(#p63d65c5ab0)" style="fill: none; stroke: #1f77b4; stroke-width: 1.5"/>
    <path d="M 208.544157 174.528 
L 208.544157 175.957012 
" clip-path="url(#p63d65c5ab0)" style="fill: none; stroke: #1f77b4; stroke-width: 1.5"/>
    <path d="M 211.238386 174.528 
L 211.238386 174.091522 
" clip-path="url(#p63d65c5ab0)" style="fill: none; stroke: #1f77b4; stroke-width: 1.5"/>
    <path d="M 213.932614 174.528 
L 213.932614 171.957483 
" clip-path="url(#p63d65c5ab0)" style="fill: none; stroke: #1f77b4; stroke-width: 1.5"/>
    <path d="M 216.626843 174.528 
L 216.626843 169.733807 
" clip-path="url(#p63d65c5ab0)" style="fill: none; stroke: #1f77b4; stroke-width: 1.5"/>
    <path d="M 219.321071 174.528 
L 219.321071 167.911941 
" clip-path="url(#p63d65c5ab0)" style="fill: none; stroke: #1f77b4; stroke-width: 1.5"/>
    <path d="M 222.0153 174.528 
L 222.0153 166.734699 
" clip-path="url(#p63d65c5ab0)" style="fill: none; stroke: #1f77b4; stroke-width: 1.5"/>
    <path d="M 224.709528 174.528 
L 224.709528 166.241141 
" clip-path="url(#p63d65c5ab0)" style="fill: none; stroke: #1f77b4; stroke-width: 1.5"/>
    <path d="M 227.403757 174.528 
L 227.403757 166.427763 
" clip-path="url(#p63d65c5ab0)" style="fill: none; stroke: #1f77b4; stroke-width: 1.5"/>
    <path d="M 230.097986 174.528 
L 230.097986 167.266505 
" clip-path="url(#p63d65c5ab0)" style="fill: none; stroke: #1f77b4; stroke-width: 1.5"/>
    <path d="M 232.792214 174.528 
L 232.792214 168.654791 
" clip-path="url(#p63d65c5ab0)" style="fill: none; stroke: #1f77b4; stroke-width: 1.5"/>
    <path d="M 235.486443 174.528 
L 235.486443 170.293884 
" clip-path="url(#p63d65c5ab0)" style="fill: none; stroke: #1f77b4; stroke-width: 1.5"/>
    <path d="M 238.180671 174.528 
L 238.180671 171.937281 
" clip-path="url(#p63d65c5ab0)" style="fill: none; stroke: #1f77b4; stroke-width: 1.5"/>
    <path d="M 240.8749 174.528 
L 240.8749 173.595626 
" clip-path="url(#p63d65c5ab0)" style="fill: none; stroke: #1f77b4; stroke-width: 1.5"/>
    <path d="M 243.569129 174.528 
L 243.569129 175.201754 
" clip-path="url(#p63d65c5ab0)" style="fill: none; stroke: #1f77b4; stroke-width: 1.5"/>
    <path d="M 246.263357 174.528 
L 246.263357 176.491345 
" clip-path="url(#p63d65c5ab0)" style="fill: none; stroke: #1f77b4; stroke-width: 1.5"/>
    <path d="M 248.957586 174.528 
L 248.957586 177.234061 
" clip-path="url(#p63d65c5ab0)" style="fill: none; stroke: #1f77b4; stroke-width: 1.5"/>
    <path d="M 251.651814 174.528 
L 251.651814 177.400877 
" clip-path="url(#p63d65c5ab0)" style="fill: none; stroke: #1f77b4; stroke-width: 1.5"/>
    <path d="M 254.346043 174.528 
L 254.346043 177.272196 
" clip-path="url(#p63d65c5ab0)" style="fill: none; stroke: #1f77b4; stroke-width: 1.5"/>
    <path d="M 257.040272 174.528 
L 257.040272 177.127888 
" clip-path="url(#p63d65c5ab0)" style="fill: none; stroke: #1f77b4; stroke-width: 1.5"/>
    <path d="M 259.7345 174.528 
L 259.7345 177.058579 
" clip-path="url(#p63d65c5ab0)" style="fill: none; stroke: #1f77b4; stroke-width: 1.5"/>
    <path d="M 262.428729 174.528 
L 262.428729 176.983274 
" clip-path="url(#p63d65c5ab0)" style="fill: none; stroke: #1f77b4; stroke-width: 1.5"/>
    <path d="M 265.122957 174.528 
L 265.122957 176.823831 
" clip-path="url(#p63d65c5ab0)" style="fill: none; stroke: #1f77b4; stroke-width: 1.5"/>
    <path d="M 267.817186 174.528 
L 267.817186 176.531983 
" clip-path="url(#p63d65c5ab0)" style="fill: none; stroke: #1f77b4; stroke-width: 1.5"/>
    <path d="M 270.511415 174.528 
L 270.511415 176.135457 
" clip-path="url(#p63d65c5ab0)" style="fill: none; stroke: #1f77b4; stroke-width: 1.5"/>
    <path d="M 273.205643 174.528 
L 273.205643 175.703059 
" clip-path="url(#p63d65c5ab0)" style="fill: none; stroke: #1f77b4; stroke-width: 1.5"/>
    <path d="M 275.899872 174.528 
L 275.899872 175.380753 
" clip-path="url(#p63d65c5ab0)" style="fill: none; stroke: #1f77b4; stroke-width: 1.5"/>
    <path d="M 278.5941 174.528 
L 278.5941 174.881137 
" clip-path="url(#p63d65c5ab0)" style="fill: none; stroke: #1f77b4; stroke-width: 1.5"/>
    <path d="M 281.288329 174.528 
L 281.288329 174.401 
" clip-path="url(#p63d65c5ab0)" style="fill: none; stroke: #1f77b4; stroke-width: 1.5"/>
    <path d="M 283.982558 174.528 
L 283.982558 173.981692 
" clip-path="url(#p63d65c5ab0)" style="fill: none; stroke: #1f77b4; stroke-width: 1.5"/>
    <path d="M 286.676786 174.528 
L 286.676786 173.554485 
" clip-path="url(#p63d65c5ab0)" style="fill: none; stroke: #1f77b4; stroke-width: 1.5"/>
    <path d="M 289.371015 174.528 
L 289.371015 172.898856 
" clip-path="url(#p63d65c5ab0)" style="fill: none; stroke: #1f77b4; stroke-width: 1.5"/>
    <path d="M 292.065243 174.528 
L 292.065243 172.334516 
" clip-path="url(#p63d65c5ab0)" style="fill: none; stroke: #1f77b4; stroke-width: 1.5"/>
    <path d="M 294.759472 174.528 
L 294.759472 171.662436 
" clip-path="url(#p63d65c5ab0)" style="fill: none; stroke: #1f77b4; stroke-width: 1.5"/>
    <path d="M 297.4537 174.528 
L 297.4537 170.940704 
" clip-path="url(#p63d65c5ab0)" style="fill: none; stroke: #1f77b4; stroke-width: 1.5"/>
    <path d="M 300.147929 174.528 
L 300.147929 169.915926 
" clip-path="url(#p63d65c5ab0)" style="fill: none; stroke: #1f77b4; stroke-width: 1.5"/>
    <path d="M 302.842158 174.528 
L 302.842158 168.74934 
" clip-path="url(#p63d65c5ab0)" style="fill: none; stroke: #1f77b4; stroke-width: 1.5"/>
    <path d="M 305.536386 174.528 
L 305.536386 167.166181 
" clip-path="url(#p63d65c5ab0)" style="fill: none; stroke: #1f77b4; stroke-width: 1.5"/>
    <path d="M 308.230615 174.528 
L 308.230615 164.993935 
" clip-path="url(#p63d65c5ab0)" style="fill: none; stroke: #1f77b4; stroke-width: 1.5"/>
    <path d="M 310.924843 174.528 
L 310.924843 162.36973 
" clip-path="url(#p63d65c5ab0)" style="fill: none; stroke: #1f77b4; stroke-width: 1.5"/>
    <path d="M 313.619072 174.528 
L 313.619072 158.51649 
" clip-path="url(#p63d65c5ab0)" style="fill: none; stroke: #1f77b4; stroke-width: 1.5"/>
    <path d="M 316.313301 174.528 
L 316.313301 154.004865 
" clip-path="url(#p63d65c5ab0)" style="fill: none; stroke: #1f77b4; stroke-width: 1.5"/>
    <path d="M 319.007529 174.528 
L 319.007529 148.252444 
" clip-path="url(#p63d65c5ab0)" style="fill: none; stroke: #1f77b4; stroke-width: 1.5"/>
    <path d="M 321.701758 174.528 
L 321.701758 141.859562 
" clip-path="url(#p63d65c5ab0)" style="fill: none; stroke: #1f77b4; stroke-width: 1.5"/>
    <path d="M 324.395986 174.528 
L 324.395986 135.372103 
" clip-path="url(#p63d65c5ab0)" style="fill: none; stroke: #1f77b4; stroke-width: 1.5"/>
    <path d="M 327.090215 174.528 
L 327.090215 128.58086 
" clip-path="url(#p63d65c5ab0)" style="fill: none; stroke: #1f77b4; stroke-width: 1.5"/>
    <path d="M 329.784444 174.528 
L 329.784444 123.366586 
" clip-path="url(#p63d65c5ab0)" style="fill: none; stroke: #1f77b4; stroke-width: 1.5"/>
    <path d="M 332.478672 174.528 
L 332.478672 121.084236 
" clip-path="url(#p63d65c5ab0)" style="fill: none; stroke: #1f77b4; stroke-width: 1.5"/>
    <path d="M 335.172901 174.528 
L 335.172901 123.774533 
" clip-path="url(#p63d65c5ab0)" style="fill: none; stroke: #1f77b4; stroke-width: 1.5"/>
    <path d="M 337.867129 174.528 
L 337.867129 129.61253 
" clip-path="url(#p63d65c5ab0)" style="fill: none; stroke: #1f77b4; stroke-width: 1.5"/>
    <path d="M 340.561358 174.528 
L 340.561358 136.415383 
" clip-path="url(#p63d65c5ab0)" style="fill: none; stroke: #1f77b4; stroke-width: 1.5"/>
    <path d="M 343.255587 174.528 
L 343.255587 143.1583 
" clip-path="url(#p63d65c5ab0)" style="fill: none; stroke: #1f77b4; stroke-width: 1.5"/>
    <path d="M 345.949815 174.528 
L 345.949815 149.622534 
" clip-path="url(#p63d65c5ab0)" style="fill: none; stroke: #1f77b4; stroke-width: 1.5"/>
    <path d="M 348.644044 174.528 
L 348.644044 155.238592 
" clip-path="url(#p63d65c5ab0)" style="fill: none; stroke: #1f77b4; stroke-width: 1.5"/>
    <path d="M 351.338272 174.528 
L 351.338272 159.668979 
" clip-path="url(#p63d65c5ab0)" style="fill: none; stroke: #1f77b4; stroke-width: 1.5"/>
    <path d="M 354.032501 174.528 
L 354.032501 163.352688 
" clip-path="url(#p63d65c5ab0)" style="fill: none; stroke: #1f77b4; stroke-width: 1.5"/>
    <path d="M 356.72673 174.528 
L 356.72673 166.12786 
" clip-path="url(#p63d65c5ab0)" style="fill: none; stroke: #1f77b4; stroke-width: 1.5"/>
    <path d="M 359.420958 174.528 
L 359.420958 168.358241 
" clip-path="url(#p63d65c5ab0)" style="fill: none; stroke: #1f77b4; stroke-width: 1.5"/>
    <path d="M 362.115187 174.528 
L 362.115187 169.820535 
" clip-path="url(#p63d65c5ab0)" style="fill: none; stroke: #1f77b4; stroke-width: 1.5"/>
    <path d="M 364.809415 174.528 
L 364.809415 171.443142 
" clip-path="url(#p63d65c5ab0)" style="fill: none; stroke: #1f77b4; stroke-width: 1.5"/>
    <path d="M 367.503644 174.528 
L 367.503644 172.64876 
" clip-path="url(#p63d65c5ab0)" style="fill: none; stroke: #1f77b4; stroke-width: 1.5"/>
    <path d="M 370.197873 174.528 
L 370.197873 173.57034 
" clip-path="url(#p63d65c5ab0)" style="fill: none; stroke: #1f77b4; stroke-width: 1.5"/>
    <path d="M 372.892101 174.528 
L 372.892101 174.384723 
" clip-path="url(#p63d65c5ab0)" style="fill: none; stroke: #1f77b4; stroke-width: 1.5"/>
    <path d="M 375.58633 174.528 
L 375.58633 174.760486 
" clip-path="url(#p63d65c5ab0)" style="fill: none; stroke: #1f77b4; stroke-width: 1.5"/>
    <path d="M 378.280558 174.528 
L 378.280558 175.251982 
" clip-path="url(#p63d65c5ab0)" style="fill: none; stroke: #1f77b4; stroke-width: 1.5"/>
    <path d="M 380.974787 174.528 
L 380.974787 175.274181 
" clip-path="url(#p63d65c5ab0)" style="fill: none; stroke: #1f77b4; stroke-width: 1.5"/>
    <path d="M 383.669015 174.528 
L 383.669015 175.198513 
" clip-path="url(#p63d65c5ab0)" style="fill: none; stroke: #1f77b4; stroke-width: 1.5"/>
    <path d="M 386.363244 174.528 
L 386.363244 175.370465 
" clip-path="url(#p63d65c5ab0)" style="fill: none; stroke: #1f77b4; stroke-width: 1.5"/>
    <path d="M 389.057473 174.528 
L 389.057473 175.958196 
" clip-path="url(#p63d65c5ab0)" style="fill: none; stroke: #1f77b4; stroke-width: 1.5"/>
    <path d="M 391.751701 174.528 
L 391.751701 176.622574 
" clip-path="url(#p63d65c5ab0)" style="fill: none; stroke: #1f77b4; stroke-width: 1.5"/>
    <path d="M 394.44593 174.528 
L 394.44593 177.180309 
" clip-path="url(#p63d65c5ab0)" style="fill: none; stroke: #1f77b4; stroke-width: 1.5"/>
    <path d="M 397.140158 174.528 
L 397.140158 177.73109 
" clip-path="url(#p63d65c5ab0)" style="fill: none; stroke: #1f77b4; stroke-width: 1.5"/>
   </g>
   <g id="line2d_1">
    <path d="M 57.6 174.528 
L 414.72 174.528 
" clip-path="url(#p63d65c5ab0)" style="fill: none; stroke: #1f77b4; stroke-width: 1.5; stroke-linecap: round"/>
   </g>
   <g id="line2d_2">
    <defs>
     <path id="mee8185248d" d="M 0 2.5 
C 0.663008 2.5 1.29895 2.236584 1.767767 1.767767 
C 2.236584 1.29895 2.5 0.663008 2.5 0 
C 2.5 -0.663008 2.236584 -1.29895 1.767767 -1.767767 
C 1.29895 -2.236584 0.663008 -2.5 0 -2.5 
C -0.663008 -2.5 -1.29895 -2.236584 -1.767767 -1.767767 
C -2.236584 -1.29895 -2.5 -0.663008 -2.5 0 
C -2.5 0.663008 -2.236584 1.29895 -1.767767 1.767767 
C -1.29895 2.236584 -0.663008 2.5 0 2.5 
z
" style="stroke: #1f77b4"/>
    </defs>
    <g clip-path="url(#p63d65c5ab0)">
     <use xlink:href="#mee8185248d" x="73.832727" y="41.472" style="fill: #1f77b4; stroke: #1f77b4"/>
     <use xlink:href="#mee8185248d" x="76.526956" y="54.839276" style="fill: #1f77b4; stroke: #1f77b4"/>
     <use xlink:href="#mee8185248d" x="79.221184" y="69.110292" style="fill: #1f77b4; stroke: #1f77b4"/>
     <use xlink:href="#mee8185248d" x="81.915413" y="82.203388" style="fill: #1f77b4; stroke: #1f77b4"/>
     <use xlink:href="#mee8185248d" x="84.609642" y="93.974559" style="fill: #1f77b4; stroke: #1f77b4"/>
     <use xlink:href="#mee8185248d" x="87.30387" y="104.174236" style="fill: #1f77b4; stroke: #1f77b4"/>
     <use xlink:href="#mee8185248d" x="89.998099" y="112.900563" style="fill: #1f77b4; stroke: #1f77b4"/>
     <use xlink:href="#mee8185248d" x="92.692327" y="120.065787" style="fill: #1f77b4; stroke: #1f77b4"/>
     <use xlink:href="#mee8185248d" x="95.386556" y="126.323442" style="fill: #1f77b4; stroke: #1f77b4"/>
     <use xlink:href="#mee8185248d" x="98.080785" y="131.73478" style="fill: #1f77b4; stroke: #1f77b4"/>
     <use xlink:href="#mee8185248d" x="100.775013" y="135.947976" style="fill: #1f77b4; stroke: #1f77b4"/>
     <use xlink:href="#mee8185248d" x="103.469242" y="139.802768" style="fill: #1f77b4; stroke: #1f77b4"/>
     <use xlink:href="#mee8185248d" x="106.16347" y="143.237569" style="fill: #1f77b4; stroke: #1f77b4"/>
     <use xlink:href="#mee8185248d" x="108.857699" y="145.63471" style="fill: #1f77b4; stroke: #1f77b4"/>
     <use xlink:href="#mee8185248d" x="111.551928" y="147.621449" style="fill: #1f77b4; stroke: #1f77b4"/>
     <use xlink:href="#mee8185248d" x="114.246156" y="149.842607" style="fill: #1f77b4; stroke: #1f77b4"/>
     <use xlink:href="#mee8185248d" x="116.940385" y="151.886874" style="fill: #1f77b4; stroke: #1f77b4"/>
     <use xlink:href="#mee8185248d" x="119.634613" y="153.799579" style="fill: #1f77b4; stroke: #1f77b4"/>
     <use xlink:href="#mee8185248d" x="122.328842" y="155.541306" style="fill: #1f77b4; stroke: #1f77b4"/>
     <use xlink:href="#mee8185248d" x="125.023071" y="157.009099" style="fill: #1f77b4; stroke: #1f77b4"/>
     <use xlink:href="#mee8185248d" x="127.717299" y="158.319035" style="fill: #1f77b4; stroke: #1f77b4"/>
     <use xlink:href="#mee8185248d" x="130.411528" y="159.847471" style="fill: #1f77b4; stroke: #1f77b4"/>
     <use xlink:href="#mee8185248d" x="133.105756" y="161.49106" style="fill: #1f77b4; stroke: #1f77b4"/>
     <use xlink:href="#mee8185248d" x="135.799985" y="163.072358" style="fill: #1f77b4; stroke: #1f77b4"/>
     <use xlink:href="#mee8185248d" x="138.494214" y="164.536529" style="fill: #1f77b4; stroke: #1f77b4"/>
     <use xlink:href="#mee8185248d" x="141.188442" y="165.770805" style="fill: #1f77b4; stroke: #1f77b4"/>
     <use xlink:href="#mee8185248d" x="143.882671" y="166.819267" style="fill: #1f77b4; stroke: #1f77b4"/>
     <use xlink:href="#mee8185248d" x="146.576899" y="167.681158" style="fill: #1f77b4; stroke: #1f77b4"/>
     <use xlink:href="#mee8185248d" x="149.271128" y="168.314077" style="fill: #1f77b4; stroke: #1f77b4"/>
     <use xlink:href="#mee8185248d" x="151.965356" y="169.258263" style="fill: #1f77b4; stroke: #1f77b4"/>
     <use xlink:href="#mee8185248d" x="154.659585" y="170.095363" style="fill: #1f77b4; stroke: #1f77b4"/>
     <use xlink:href="#mee8185248d" x="157.353814" y="170.550968" style="fill: #1f77b4; stroke: #1f77b4"/>
     <use xlink:href="#mee8185248d" x="160.048042" y="170.494007" style="fill: #1f77b4; stroke: #1f77b4"/>
     <use xlink:href="#mee8185248d" x="162.742271" y="170.060797" style="fill: #1f77b4; stroke: #1f77b4"/>
     <use xlink:href="#mee8185248d" x="165.436499" y="169.400639" style="fill: #1f77b4; stroke: #1f77b4"/>
     <use xlink:href="#mee8185248d" x="168.130728" y="168.635347" style="fill: #1f77b4; stroke: #1f77b4"/>
     <use xlink:href="#mee8185248d" x="170.824957" y="167.731982" style="fill: #1f77b4; stroke: #1f77b4"/>
     <use xlink:href="#mee8185248d" x="173.519185" y="166.733284" style="fill: #1f77b4; stroke: #1f77b4"/>
     <use xlink:href="#mee8185248d" x="176.213414" y="165.853187" style="fill: #1f77b4; stroke: #1f77b4"/>
     <use xlink:href="#mee8185248d" x="178.907642" y="165.448103" style="fill: #1f77b4; stroke: #1f77b4"/>
     <use xlink:href="#mee8185248d" x="181.601871" y="165.541817" style="fill: #1f77b4; stroke: #1f77b4"/>
     <use xlink:href="#mee8185248d" x="184.2961" y="166.303773" style="fill: #1f77b4; stroke: #1f77b4"/>
     <use xlink:href="#mee8185248d" x="186.990328" y="167.714059" style="fill: #1f77b4; stroke: #1f77b4"/>
     <use xlink:href="#mee8185248d" x="189.684557" y="169.671619" style="fill: #1f77b4; stroke: #1f77b4"/>
     <use xlink:href="#mee8185248d" x="192.378785" y="171.930997" style="fill: #1f77b4; stroke: #1f77b4"/>
     <use xlink:href="#mee8185248d" x="195.073014" y="174.111471" style="fill: #1f77b4; stroke: #1f77b4"/>
     <use xlink:href="#mee8185248d" x="197.767243" y="175.947024" style="fill: #1f77b4; stroke: #1f77b4"/>
     <use xlink:href="#mee8185248d" x="200.461471" y="177.210523" style="fill: #1f77b4; stroke: #1f77b4"/>
     <use xlink:href="#mee8185248d" x="203.1557" y="177.65545" style="fill: #1f77b4; stroke: #1f77b4"/>
     <use xlink:href="#mee8185248d" x="205.849928" y="177.221512" style="fill: #1f77b4; stroke: #1f77b4"/>
     <use xlink:href="#mee8185248d" x="208.544157" y="175.957012" style="fill: #1f77b4; stroke: #1f77b4"/>
     <use xlink:href="#mee8185248d" x="211.238386" y="174.091522" style="fill: #1f77b4; stroke: #1f77b4"/>
     <use xlink:href="#mee8185248d" x="213.932614" y="171.957483" style="fill: #1f77b4; stroke: #1f77b4"/>
     <use xlink:href="#mee8185248d" x="216.626843" y="169.733807" style="fill: #1f77b4; stroke: #1f77b4"/>
     <use xlink:href="#mee8185248d" x="219.321071" y="167.911941" style="fill: #1f77b4; stroke: #1f77b4"/>
     <use xlink:href="#mee8185248d" x="222.0153" y="166.734699" style="fill: #1f77b4; stroke: #1f77b4"/>
     <use xlink:href="#mee8185248d" x="224.709528" y="166.241141" style="fill: #1f77b4; stroke: #1f77b4"/>
     <use xlink:href="#mee8185248d" x="227.403757" y="166.427763" style="fill: #1f77b4; stroke: #1f77b4"/>
     <use xlink:href="#mee8185248d" x="230.097986" y="167.266505" style="fill: #1f77b4; stroke: #1f77b4"/>
     <use xlink:href="#mee8185248d" x="232.792214" y="168.654791" style="fill: #1f77b4; stroke: #1f77b4"/>
     <use xlink:href="#mee8185248d" x="235.486443" y="170.293884" style="fill: #1f77b4; stroke: #1f77b4"/>
     <use xlink:href="#mee8185248d" x="238.180671" y="171.937281" style="fill: #1f77b4; stroke: #1f77b4"/>
     <use xlink:href="#mee8185248d" x="240.8749" y="173.595626" style="fill: #1f77b4; stroke: #1f77b4"/>
     <use xlink:href="#mee8185248d" x="243.569129" y="175.201754" style="fill: #1f77b4; stroke: #1f77b4"/>
     <use xlink:href="#mee8185248d" x="246.263357" y="176.491345" style="fill: #1f77b4; stroke: #1f77b4"/>
     <use xlink:href="#mee8185248d" x="248.957586" y="177.234061" style="fill: #1f77b4; stroke: #1f77b4"/>
     <use xlink:href="#mee8185248d" x="251.651814" y="177.400877" style="fill: #1f77b4; stroke: #1f77b4"/>
     <use xlink:href="#mee8185248d" x="254.346043" y="177.272196" style="fill: #1f77b4; stroke: #1f77b4"/>
     <use xlink:href="#mee8185248d" x="257.040272" y="177.127888" style="fill: #1f77b4; stroke: #1f77b4"/>
     <use xlink:href="#mee8185248d" x="259.7345" y="177.058579" style="fill: #1f77b4; stroke: #1f77b4"/>
     <use xlink:href="#mee8185248d" x="262.428729" y="176.983274" style="fill: #1f77b4; stroke: #1f77b4"/>
     <use xlink:href="#mee8185248d" x="265.122957" y="176.823831" style="fill: #1f77b4; stroke: #1f77b4"/>
     <use xlink:href="#mee8185248d" x="267.817186" y="176.531983" style="fill: #1f77b4; stroke: #1f77b4"/>
     <use xlink:href="#mee8185248d" x="270.511415" y="176.135457" style="fill: #1f77b4; stroke: #1f77b4"/>
     <use xlink:href="#mee8185248d" x="273.205643" y="175.703059" style="fill: #1f77b4; stroke: #1f77b4"/>
     <use xlink:href="#mee8185248d" x="275.899872" y="175.380753" style="fill: #1f77b4; stroke: #1f77b4"/>
     <use xlink:href="#mee8185248d" x="278.5941" y="174.881137" style="fill: #1f77b4; stroke: #1f77b4"/>
     <use xlink:href="#mee8185248d" x="281.288329" y="174.401" style="fill: #1f77b4; stroke: #1f77b4"/>
     <use xlink:href="#mee8185248d" x="283.982558" y="173.981692" style="fill: #1f77b4; stroke: #1f77b4"/>
     <use xlink:href="#mee8185248d" x="286.676786" y="173.554485" style="fill: #1f77b4; stroke: #1f77b4"/>
     <use xlink:href="#mee8185248d" x="289.371015" y="172.898856" style="fill: #1f77b4; stroke: #1f77b4"/>
     <use xlink:href="#mee8185248d" x="292.065243" y="172.334516" style="fill: #1f77b4; stroke: #1f77b4"/>
     <use xlink:href="#mee8185248d" x="294.759472" y="171.662436" style="fill: #1f77b4; stroke: #1f77b4"/>
     <use xlink:href="#mee8185248d" x="297.4537" y="170.940704" style="fill: #1f77b4; stroke: #1f77b4"/>
     <use xlink:href="#mee8185248d" x="300.147929" y="169.915926" style="fill: #1f77b4; stroke: #1f77b4"/>
     <use xlink:href="#mee8185248d" x="302.842158" y="168.74934" style="fill: #1f77b4; stroke: #1f77b4"/>
     <use xlink:href="#mee8185248d" x="305.536386" y="167.166181" style="fill: #1f77b4; stroke: #1f77b4"/>
     <use xlink:href="#mee8185248d" x="308.230615" y="164.993935" style="fill: #1f77b4; stroke: #1f77b4"/>
     <use xlink:href="#mee8185248d" x="310.924843" y="162.36973" style="fill: #1f77b4; stroke: #1f77b4"/>
     <use xlink:href="#mee8185248d" x="313.619072" y="158.51649" style="fill: #1f77b4; stroke: #1f77b4"/>
     <use xlink:href="#mee8185248d" x="316.313301" y="154.004865" style="fill: #1f77b4; stroke: #1f77b4"/>
     <use xlink:href="#mee8185248d" x="319.007529" y="148.252444" style="fill: #1f77b4; stroke: #1f77b4"/>
     <use xlink:href="#mee8185248d" x="321.701758" y="141.859562" style="fill: #1f77b4; stroke: #1f77b4"/>
     <use xlink:href="#mee8185248d" x="324.395986" y="135.372103" style="fill: #1f77b4; stroke: #1f77b4"/>
     <use xlink:href="#mee8185248d" x="327.090215" y="128.58086" style="fill: #1f77b4; stroke: #1f77b4"/>
     <use xlink:href="#mee8185248d" x="329.784444" y="123.366586" style="fill: #1f77b4; stroke: #1f77b4"/>
     <use xlink:href="#mee8185248d" x="332.478672" y="121.084236" style="fill: #1f77b4; stroke: #1f77b4"/>
     <use xlink:href="#mee8185248d" x="335.172901" y="123.774533" style="fill: #1f77b4; stroke: #1f77b4"/>
     <use xlink:href="#mee8185248d" x="337.867129" y="129.61253" style="fill: #1f77b4; stroke: #1f77b4"/>
     <use xlink:href="#mee8185248d" x="340.561358" y="136.415383" style="fill: #1f77b4; stroke: #1f77b4"/>
     <use xlink:href="#mee8185248d" x="343.255587" y="143.1583" style="fill: #1f77b4; stroke: #1f77b4"/>
     <use xlink:href="#mee8185248d" x="345.949815" y="149.622534" style="fill: #1f77b4; stroke: #1f77b4"/>
     <use xlink:href="#mee8185248d" x="348.644044" y="155.238592" style="fill: #1f77b4; stroke: #1f77b4"/>
     <use xlink:href="#mee8185248d" x="351.338272" y="159.668979" style="fill: #1f77b4; stroke: #1f77b4"/>
     <use xlink:href="#mee8185248d" x="354.032501" y="163.352688" style="fill: #1f77b4; stroke: #1f77b4"/>
     <use xlink:href="#mee8185248d" x="356.72673" y="166.12786" style="fill: #1f77b4; stroke: #1f77b4"/>
     <use xlink:href="#mee8185248d" x="359.420958" y="168.358241" style="fill: #1f77b4; stroke: #1f77b4"/>
     <use xlink:href="#mee8185248d" x="362.115187" y="169.820535" style="fill: #1f77b4; stroke: #1f77b4"/>
     <use xlink:href="#mee8185248d" x="364.809415" y="171.443142" style="fill: #1f77b4; stroke: #1f77b4"/>
     <use xlink:href="#mee8185248d" x="367.503644" y="172.64876" style="fill: #1f77b4; stroke: #1f77b4"/>
     <use xlink:href="#mee8185248d" x="370.197873" y="173.57034" style="fill: #1f77b4; stroke: #1f77b4"/>
     <use xlink:href="#mee8185248d" x="372.892101" y="174.384723" style="fill: #1f77b4; stroke: #1f77b4"/>
     <use xlink:href="#mee8185248d" x="375.58633" y="174.760486" style="fill: #1f77b4; stroke: #1f77b4"/>
     <use xlink:href="#mee8185248d" x="378.280558" y="175.251982" style="fill: #1f77b4; stroke: #1f77b4"/>
     <use xlink:href="#mee8185248d" x="380.974787" y="175.274181" style="fill: #1f77b4; stroke: #1f77b4"/>
     <use xlink:href="#mee8185248d" x="383.669015" y="175.198513" style="fill: #1f77b4; stroke: #1f77b4"/>
     <use xlink:href="#mee8185248d" x="386.363244" y="175.370465" style="fill: #1f77b4; stroke: #1f77b4"/>
     <use xlink:href="#mee8185248d" x="389.057473" y="175.958196" style="fill: #1f77b4; stroke: #1f77b4"/>
     <use xlink:href="#mee8185248d" x="391.751701" y="176.622574" style="fill: #1f77b4; stroke: #1f77b4"/>
     <use xlink:href="#mee8185248d" x="394.44593" y="177.180309" style="fill: #1f77b4; stroke: #1f77b4"/>
     <use xlink:href="#mee8185248d" x="397.140158" y="177.73109" style="fill: #1f77b4; stroke: #1f77b4"/>
    </g>
   </g>
   <g id="patch_3">
    <path d="M 57.6 307.584 
L 57.6 41.472 
" style="fill: none; stroke: #ffffff; stroke-width: 0.8; stroke-linejoin: miter; stroke-linecap: square"/>
   </g>
   <g id="patch_4">
    <path d="M 414.72 307.584 
L 414.72 41.472 
" style="fill: none; stroke: #ffffff; stroke-width: 0.8; stroke-linejoin: miter; stroke-linecap: square"/>
   </g>
   <g id="patch_5">
    <path d="M 57.6 307.584 
L 414.72 307.584 
" style="fill: none; stroke: #ffffff; stroke-width: 0.8; stroke-linejoin: miter; stroke-linecap: square"/>
   </g>
   <g id="patch_6">
    <path d="M 57.6 41.472 
L 414.72 41.472 
" style="fill: none; stroke: #ffffff; stroke-width: 0.8; stroke-linejoin: miter; stroke-linecap: square"/>
   </g>
   <g id="text_19">
    <!-- Autocorrelation -->
    <g style="fill: #262626" transform="translate(195.80625 35.472) scale(0.12 -0.12)">
     <use xlink:href="#ArialMT-41"/>
     <use xlink:href="#ArialMT-75" x="66.699219"/>
     <use xlink:href="#ArialMT-74" x="122.314453"/>
     <use xlink:href="#ArialMT-6f" x="150.097656"/>
     <use xlink:href="#ArialMT-63" x="205.712891"/>
     <use xlink:href="#ArialMT-6f" x="255.712891"/>
     <use xlink:href="#ArialMT-72" x="311.328125"/>
     <use xlink:href="#ArialMT-72" x="344.628906"/>
     <use xlink:href="#ArialMT-65" x="377.929688"/>
     <use xlink:href="#ArialMT-6c" x="433.544922"/>
     <use xlink:href="#ArialMT-61" x="455.761719"/>
     <use xlink:href="#ArialMT-74" x="511.376953"/>
     <use xlink:href="#ArialMT-69" x="539.160156"/>
     <use xlink:href="#ArialMT-6f" x="561.376953"/>
     <use xlink:href="#ArialMT-6e" x="616.992188"/>
    </g>
   </g>
  </g>
 </g>
 <defs>
  <clipPath id="p63d65c5ab0">
   <rect x="57.6" y="41.472" width="357.12" height="266.112"/>
  </clipPath>
 </defs>
</svg>
