<?xml version="1.0" encoding="utf-8" standalone="no"?>
<!DOCTYPE svg PUBLIC "-//W3C//DTD SVG 1.1//EN"
  "http://www.w3.org/Graphics/SVG/1.1/DTD/svg11.dtd">
<svg xmlns:xlink="http://www.w3.org/1999/xlink" width="460.8pt" height="345.6pt" viewBox="0 0 460.8 345.6" xmlns="http://www.w3.org/2000/svg" version="1.1">
 <metadata>
  <rdf:RDF xmlns:dc="http://purl.org/dc/elements/1.1/" xmlns:cc="http://creativecommons.org/ns#" xmlns:rdf="http://www.w3.org/1999/02/22-rdf-syntax-ns#">
   <cc:Work>
    <dc:type rdf:resource="http://purl.org/dc/dcmitype/StillImage"/>
    <dc:date>2023-06-21T16:28:18.758447</dc:date>
    <dc:format>image/svg+xml</dc:format>
    <dc:creator>
     <cc:Agent>
      <dc:title>Matplotlib v3.7.1, https://matplotlib.org/</dc:title>
     </cc:Agent>
    </dc:creator>
   </cc:Work>
  </rdf:RDF>
 </metadata>
 <defs>
  <style type="text/css">*{stroke-linejoin: round; stroke-linecap: butt}</style>
 </defs>
 <g id="figure_1">
  <g id="patch_1">
   <path d="M 0 345.6 
L 460.8 345.6 
L 460.8 0 
L 0 0 
z
" style="fill: #ffffff"/>
  </g>
  <g id="axes_1">
   <g id="patch_2">
    <path d="M 57.6 307.584 
L 414.72 307.584 
L 414.72 41.472 
L 57.6 41.472 
z
" style="fill: #eaeaf2"/>
   </g>
   <g id="matplotlib.axis_1">
    <g id="xtick_1">
     <g id="text_1">
      <!-- 0 -->
      <g style="fill: #262626" transform="translate(71.052259 321.741812) scale(0.1 -0.1)">
       <defs>
        <path id="ArialMT-30" d="M 266 2259 
Q 266 3072 433 3567 
Q 600 4063 929 4331 
Q 1259 4600 1759 4600 
Q 2128 4600 2406 4451 
Q 2684 4303 2865 4023 
Q 3047 3744 3150 3342 
Q 3253 2941 3253 2259 
Q 3253 1453 3087 958 
Q 2922 463 2592 192 
Q 2263 -78 1759 -78 
Q 1097 -78 719 397 
Q 266 969 266 2259 
z
M 844 2259 
Q 844 1131 1108 757 
Q 1372 384 1759 384 
Q 2147 384 2411 759 
Q 2675 1134 2675 2259 
Q 2675 3391 2411 3762 
Q 2147 4134 1753 4134 
Q 1366 4134 1134 3806 
Q 844 3388 844 2259 
z
" transform="scale(0.015625)"/>
       </defs>
       <use xlink:href="#ArialMT-30"/>
      </g>
     </g>
    </g>
    <g id="xtick_2">
     <g id="text_2">
      <!-- 20 -->
      <g style="fill: #262626" transform="translate(122.156362 321.741812) scale(0.1 -0.1)">
       <defs>
        <path id="ArialMT-32" d="M 3222 541 
L 3222 0 
L 194 0 
Q 188 203 259 391 
Q 375 700 629 1000 
Q 884 1300 1366 1694 
Q 2113 2306 2375 2664 
Q 2638 3022 2638 3341 
Q 2638 3675 2398 3904 
Q 2159 4134 1775 4134 
Q 1369 4134 1125 3890 
Q 881 3647 878 3216 
L 300 3275 
Q 359 3922 746 4261 
Q 1134 4600 1788 4600 
Q 2447 4600 2831 4234 
Q 3216 3869 3216 3328 
Q 3216 3053 3103 2787 
Q 2991 2522 2730 2228 
Q 2469 1934 1863 1422 
Q 1356 997 1212 845 
Q 1069 694 975 541 
L 3222 541 
z
" transform="scale(0.015625)"/>
       </defs>
       <use xlink:href="#ArialMT-32"/>
       <use xlink:href="#ArialMT-30" x="55.615234"/>
      </g>
     </g>
    </g>
    <g id="xtick_3">
     <g id="text_3">
      <!-- 40 -->
      <g style="fill: #262626" transform="translate(176.040933 321.741812) scale(0.1 -0.1)">
       <defs>
        <path id="ArialMT-34" d="M 2069 0 
L 2069 1097 
L 81 1097 
L 81 1613 
L 2172 4581 
L 2631 4581 
L 2631 1613 
L 3250 1613 
L 3250 1097 
L 2631 1097 
L 2631 0 
L 2069 0 
z
M 2069 1613 
L 2069 3678 
L 634 1613 
L 2069 1613 
z
" transform="scale(0.015625)"/>
       </defs>
       <use xlink:href="#ArialMT-34"/>
       <use xlink:href="#ArialMT-30" x="55.615234"/>
      </g>
     </g>
    </g>
    <g id="xtick_4">
     <g id="text_4">
      <!-- 60 -->
      <g style="fill: #262626" transform="translate(229.925505 321.741812) scale(0.1 -0.1)">
       <defs>
        <path id="ArialMT-36" d="M 3184 3459 
L 2625 3416 
Q 2550 3747 2413 3897 
Q 2184 4138 1850 4138 
Q 1581 4138 1378 3988 
Q 1113 3794 959 3422 
Q 806 3050 800 2363 
Q 1003 2672 1297 2822 
Q 1591 2972 1913 2972 
Q 2475 2972 2870 2558 
Q 3266 2144 3266 1488 
Q 3266 1056 3080 686 
Q 2894 316 2569 119 
Q 2244 -78 1831 -78 
Q 1128 -78 684 439 
Q 241 956 241 2144 
Q 241 3472 731 4075 
Q 1159 4600 1884 4600 
Q 2425 4600 2770 4297 
Q 3116 3994 3184 3459 
z
M 888 1484 
Q 888 1194 1011 928 
Q 1134 663 1356 523 
Q 1578 384 1822 384 
Q 2178 384 2434 671 
Q 2691 959 2691 1453 
Q 2691 1928 2437 2201 
Q 2184 2475 1800 2475 
Q 1419 2475 1153 2201 
Q 888 1928 888 1484 
z
" transform="scale(0.015625)"/>
       </defs>
       <use xlink:href="#ArialMT-36"/>
       <use xlink:href="#ArialMT-30" x="55.615234"/>
      </g>
     </g>
    </g>
    <g id="xtick_5">
     <g id="text_5">
      <!-- 80 -->
      <g style="fill: #262626" transform="translate(283.810077 321.741812) scale(0.1 -0.1)">
       <defs>
        <path id="ArialMT-38" d="M 1131 2484 
Q 781 2613 612 2850 
Q 444 3088 444 3419 
Q 444 3919 803 4259 
Q 1163 4600 1759 4600 
Q 2359 4600 2725 4251 
Q 3091 3903 3091 3403 
Q 3091 3084 2923 2848 
Q 2756 2613 2416 2484 
Q 2838 2347 3058 2040 
Q 3278 1734 3278 1309 
Q 3278 722 2862 322 
Q 2447 -78 1769 -78 
Q 1091 -78 675 323 
Q 259 725 259 1325 
Q 259 1772 486 2073 
Q 713 2375 1131 2484 
z
M 1019 3438 
Q 1019 3113 1228 2906 
Q 1438 2700 1772 2700 
Q 2097 2700 2305 2904 
Q 2513 3109 2513 3406 
Q 2513 3716 2298 3927 
Q 2084 4138 1766 4138 
Q 1444 4138 1231 3931 
Q 1019 3725 1019 3438 
z
M 838 1322 
Q 838 1081 952 856 
Q 1066 631 1291 507 
Q 1516 384 1775 384 
Q 2178 384 2440 643 
Q 2703 903 2703 1303 
Q 2703 1709 2433 1975 
Q 2163 2241 1756 2241 
Q 1359 2241 1098 1978 
Q 838 1716 838 1322 
z
" transform="scale(0.015625)"/>
       </defs>
       <use xlink:href="#ArialMT-38"/>
       <use xlink:href="#ArialMT-30" x="55.615234"/>
      </g>
     </g>
    </g>
    <g id="xtick_6">
     <g id="text_6">
      <!-- 100 -->
      <g style="fill: #262626" transform="translate(334.91418 321.741812) scale(0.1 -0.1)">
       <defs>
        <path id="ArialMT-31" d="M 2384 0 
L 1822 0 
L 1822 3584 
Q 1619 3391 1289 3197 
Q 959 3003 697 2906 
L 697 3450 
Q 1169 3672 1522 3987 
Q 1875 4303 2022 4600 
L 2384 4600 
L 2384 0 
z
" transform="scale(0.015625)"/>
       </defs>
       <use xlink:href="#ArialMT-31"/>
       <use xlink:href="#ArialMT-30" x="55.615234"/>
       <use xlink:href="#ArialMT-30" x="111.230469"/>
      </g>
     </g>
    </g>
    <g id="xtick_7">
     <g id="text_7">
      <!-- 120 -->
      <g style="fill: #262626" transform="translate(388.798752 321.741812) scale(0.1 -0.1)">
       <use xlink:href="#ArialMT-31"/>
       <use xlink:href="#ArialMT-32" x="55.615234"/>
       <use xlink:href="#ArialMT-30" x="111.230469"/>
      </g>
     </g>
    </g>
    <g id="text_8">
     <!-- Time lags (k) -->
     <g style="fill: #262626" transform="translate(193.106484 338.648844) scale(0.15 -0.15)">
      <defs>
       <path id="ArialMT-54" d="M 1659 0 
L 1659 4041 
L 150 4041 
L 150 4581 
L 3781 4581 
L 3781 4041 
L 2266 4041 
L 2266 0 
L 1659 0 
z
" transform="scale(0.015625)"/>
       <path id="ArialMT-69" d="M 425 3934 
L 425 4581 
L 988 4581 
L 988 3934 
L 425 3934 
z
M 425 0 
L 425 3319 
L 988 3319 
L 988 0 
L 425 0 
z
" transform="scale(0.015625)"/>
       <path id="ArialMT-6d" d="M 422 0 
L 422 3319 
L 925 3319 
L 925 2853 
Q 1081 3097 1340 3245 
Q 1600 3394 1931 3394 
Q 2300 3394 2536 3241 
Q 2772 3088 2869 2813 
Q 3263 3394 3894 3394 
Q 4388 3394 4653 3120 
Q 4919 2847 4919 2278 
L 4919 0 
L 4359 0 
L 4359 2091 
Q 4359 2428 4304 2576 
Q 4250 2725 4106 2815 
Q 3963 2906 3769 2906 
Q 3419 2906 3187 2673 
Q 2956 2441 2956 1928 
L 2956 0 
L 2394 0 
L 2394 2156 
Q 2394 2531 2256 2718 
Q 2119 2906 1806 2906 
Q 1569 2906 1367 2781 
Q 1166 2656 1075 2415 
Q 984 2175 984 1722 
L 984 0 
L 422 0 
z
" transform="scale(0.015625)"/>
       <path id="ArialMT-65" d="M 2694 1069 
L 3275 997 
Q 3138 488 2766 206 
Q 2394 -75 1816 -75 
Q 1088 -75 661 373 
Q 234 822 234 1631 
Q 234 2469 665 2931 
Q 1097 3394 1784 3394 
Q 2450 3394 2872 2941 
Q 3294 2488 3294 1666 
Q 3294 1616 3291 1516 
L 816 1516 
Q 847 969 1125 678 
Q 1403 388 1819 388 
Q 2128 388 2347 550 
Q 2566 713 2694 1069 
z
M 847 1978 
L 2700 1978 
Q 2663 2397 2488 2606 
Q 2219 2931 1791 2931 
Q 1403 2931 1139 2672 
Q 875 2413 847 1978 
z
" transform="scale(0.015625)"/>
       <path id="ArialMT-20" transform="scale(0.015625)"/>
       <path id="ArialMT-6c" d="M 409 0 
L 409 4581 
L 972 4581 
L 972 0 
L 409 0 
z
" transform="scale(0.015625)"/>
       <path id="ArialMT-61" d="M 2588 409 
Q 2275 144 1986 34 
Q 1697 -75 1366 -75 
Q 819 -75 525 192 
Q 231 459 231 875 
Q 231 1119 342 1320 
Q 453 1522 633 1644 
Q 813 1766 1038 1828 
Q 1203 1872 1538 1913 
Q 2219 1994 2541 2106 
Q 2544 2222 2544 2253 
Q 2544 2597 2384 2738 
Q 2169 2928 1744 2928 
Q 1347 2928 1158 2789 
Q 969 2650 878 2297 
L 328 2372 
Q 403 2725 575 2942 
Q 747 3159 1072 3276 
Q 1397 3394 1825 3394 
Q 2250 3394 2515 3294 
Q 2781 3194 2906 3042 
Q 3031 2891 3081 2659 
Q 3109 2516 3109 2141 
L 3109 1391 
Q 3109 606 3145 398 
Q 3181 191 3288 0 
L 2700 0 
Q 2613 175 2588 409 
z
M 2541 1666 
Q 2234 1541 1622 1453 
Q 1275 1403 1131 1340 
Q 988 1278 909 1158 
Q 831 1038 831 891 
Q 831 666 1001 516 
Q 1172 366 1500 366 
Q 1825 366 2078 508 
Q 2331 650 2450 897 
Q 2541 1088 2541 1459 
L 2541 1666 
z
" transform="scale(0.015625)"/>
       <path id="ArialMT-67" d="M 319 -275 
L 866 -356 
Q 900 -609 1056 -725 
Q 1266 -881 1628 -881 
Q 2019 -881 2231 -725 
Q 2444 -569 2519 -288 
Q 2563 -116 2559 434 
Q 2191 0 1641 0 
Q 956 0 581 494 
Q 206 988 206 1678 
Q 206 2153 378 2554 
Q 550 2956 876 3175 
Q 1203 3394 1644 3394 
Q 2231 3394 2613 2919 
L 2613 3319 
L 3131 3319 
L 3131 450 
Q 3131 -325 2973 -648 
Q 2816 -972 2473 -1159 
Q 2131 -1347 1631 -1347 
Q 1038 -1347 672 -1080 
Q 306 -813 319 -275 
z
M 784 1719 
Q 784 1066 1043 766 
Q 1303 466 1694 466 
Q 2081 466 2343 764 
Q 2606 1063 2606 1700 
Q 2606 2309 2336 2618 
Q 2066 2928 1684 2928 
Q 1309 2928 1046 2623 
Q 784 2319 784 1719 
z
" transform="scale(0.015625)"/>
       <path id="ArialMT-73" d="M 197 991 
L 753 1078 
Q 800 744 1014 566 
Q 1228 388 1613 388 
Q 2000 388 2187 545 
Q 2375 703 2375 916 
Q 2375 1106 2209 1216 
Q 2094 1291 1634 1406 
Q 1016 1563 777 1677 
Q 538 1791 414 1992 
Q 291 2194 291 2438 
Q 291 2659 392 2848 
Q 494 3038 669 3163 
Q 800 3259 1026 3326 
Q 1253 3394 1513 3394 
Q 1903 3394 2198 3281 
Q 2494 3169 2634 2976 
Q 2775 2784 2828 2463 
L 2278 2388 
Q 2241 2644 2061 2787 
Q 1881 2931 1553 2931 
Q 1166 2931 1000 2803 
Q 834 2675 834 2503 
Q 834 2394 903 2306 
Q 972 2216 1119 2156 
Q 1203 2125 1616 2013 
Q 2213 1853 2448 1751 
Q 2684 1650 2818 1456 
Q 2953 1263 2953 975 
Q 2953 694 2789 445 
Q 2625 197 2315 61 
Q 2006 -75 1616 -75 
Q 969 -75 630 194 
Q 291 463 197 991 
z
" transform="scale(0.015625)"/>
       <path id="ArialMT-28" d="M 1497 -1347 
Q 1031 -759 709 28 
Q 388 816 388 1659 
Q 388 2403 628 3084 
Q 909 3875 1497 4659 
L 1900 4659 
Q 1522 4009 1400 3731 
Q 1209 3300 1100 2831 
Q 966 2247 966 1656 
Q 966 153 1900 -1347 
L 1497 -1347 
z
" transform="scale(0.015625)"/>
       <path id="ArialMT-6b" d="M 425 0 
L 425 4581 
L 988 4581 
L 988 1969 
L 2319 3319 
L 3047 3319 
L 1778 2088 
L 3175 0 
L 2481 0 
L 1384 1697 
L 988 1316 
L 988 0 
L 425 0 
z
" transform="scale(0.015625)"/>
       <path id="ArialMT-29" d="M 791 -1347 
L 388 -1347 
Q 1322 153 1322 1656 
Q 1322 2244 1188 2822 
Q 1081 3291 891 3722 
Q 769 4003 388 4659 
L 791 4659 
Q 1378 3875 1659 3084 
Q 1900 2403 1900 1659 
Q 1900 816 1576 28 
Q 1253 -759 791 -1347 
z
" transform="scale(0.015625)"/>
      </defs>
      <use xlink:href="#ArialMT-54"/>
      <use xlink:href="#ArialMT-69" x="57.333984"/>
      <use xlink:href="#ArialMT-6d" x="79.550781"/>
      <use xlink:href="#ArialMT-65" x="162.851562"/>
      <use xlink:href="#ArialMT-20" x="218.466797"/>
      <use xlink:href="#ArialMT-6c" x="246.25"/>
      <use xlink:href="#ArialMT-61" x="268.466797"/>
      <use xlink:href="#ArialMT-67" x="324.082031"/>
      <use xlink:href="#ArialMT-73" x="379.697266"/>
      <use xlink:href="#ArialMT-20" x="429.697266"/>
      <use xlink:href="#ArialMT-28" x="457.480469"/>
      <use xlink:href="#ArialMT-6b" x="490.78125"/>
      <use xlink:href="#ArialMT-29" x="540.78125"/>
     </g>
    </g>
   </g>
   <g id="matplotlib.axis_2">
    <g id="ytick_1">
     <g id="text_9">
      <!-- −1.00 -->
      <g style="fill: #262626" transform="translate(25.298437 311.162906) scale(0.1 -0.1)">
       <defs>
        <path id="ArialMT-2212" d="M 3381 1997 
L 356 1997 
L 356 2522 
L 3381 2522 
L 3381 1997 
z
" transform="scale(0.015625)"/>
        <path id="ArialMT-2e" d="M 581 0 
L 581 641 
L 1222 641 
L 1222 0 
L 581 0 
z
" transform="scale(0.015625)"/>
       </defs>
       <use xlink:href="#ArialMT-2212"/>
       <use xlink:href="#ArialMT-31" x="58.398438"/>
       <use xlink:href="#ArialMT-2e" x="114.013672"/>
       <use xlink:href="#ArialMT-30" x="141.796875"/>
       <use xlink:href="#ArialMT-30" x="197.412109"/>
      </g>
     </g>
    </g>
    <g id="ytick_2">
     <g id="text_10">
      <!-- −0.75 -->
      <g style="fill: #262626" transform="translate(25.298437 277.898906) scale(0.1 -0.1)">
       <defs>
        <path id="ArialMT-37" d="M 303 3981 
L 303 4522 
L 3269 4522 
L 3269 4084 
Q 2831 3619 2401 2847 
Q 1972 2075 1738 1259 
Q 1569 684 1522 0 
L 944 0 
Q 953 541 1156 1306 
Q 1359 2072 1739 2783 
Q 2119 3494 2547 3981 
L 303 3981 
z
" transform="scale(0.015625)"/>
        <path id="ArialMT-35" d="M 266 1200 
L 856 1250 
Q 922 819 1161 601 
Q 1400 384 1738 384 
Q 2144 384 2425 690 
Q 2706 997 2706 1503 
Q 2706 1984 2436 2262 
Q 2166 2541 1728 2541 
Q 1456 2541 1237 2417 
Q 1019 2294 894 2097 
L 366 2166 
L 809 4519 
L 3088 4519 
L 3088 3981 
L 1259 3981 
L 1013 2750 
Q 1425 3038 1878 3038 
Q 2478 3038 2890 2622 
Q 3303 2206 3303 1553 
Q 3303 931 2941 478 
Q 2500 -78 1738 -78 
Q 1113 -78 717 272 
Q 322 622 266 1200 
z
" transform="scale(0.015625)"/>
       </defs>
       <use xlink:href="#ArialMT-2212"/>
       <use xlink:href="#ArialMT-30" x="58.398438"/>
       <use xlink:href="#ArialMT-2e" x="114.013672"/>
       <use xlink:href="#ArialMT-37" x="141.796875"/>
       <use xlink:href="#ArialMT-35" x="197.412109"/>
      </g>
     </g>
    </g>
    <g id="ytick_3">
     <g id="text_11">
      <!-- −0.50 -->
      <g style="fill: #262626" transform="translate(25.298437 244.634906) scale(0.1 -0.1)">
       <use xlink:href="#ArialMT-2212"/>
       <use xlink:href="#ArialMT-30" x="58.398438"/>
       <use xlink:href="#ArialMT-2e" x="114.013672"/>
       <use xlink:href="#ArialMT-35" x="141.796875"/>
       <use xlink:href="#ArialMT-30" x="197.412109"/>
      </g>
     </g>
    </g>
    <g id="ytick_4">
     <g id="text_12">
      <!-- −0.25 -->
      <g style="fill: #262626" transform="translate(25.298437 211.370906) scale(0.1 -0.1)">
       <use xlink:href="#ArialMT-2212"/>
       <use xlink:href="#ArialMT-30" x="58.398438"/>
       <use xlink:href="#ArialMT-2e" x="114.013672"/>
       <use xlink:href="#ArialMT-32" x="141.796875"/>
       <use xlink:href="#ArialMT-35" x="197.412109"/>
      </g>
     </g>
    </g>
    <g id="ytick_5">
     <g id="text_13">
      <!-- 0.00 -->
      <g style="fill: #262626" transform="translate(31.139063 178.106906) scale(0.1 -0.1)">
       <use xlink:href="#ArialMT-30"/>
       <use xlink:href="#ArialMT-2e" x="55.615234"/>
       <use xlink:href="#ArialMT-30" x="83.398438"/>
       <use xlink:href="#ArialMT-30" x="139.013672"/>
      </g>
     </g>
    </g>
    <g id="ytick_6">
     <g id="text_14">
      <!-- 0.25 -->
      <g style="fill: #262626" transform="translate(31.139063 144.842906) scale(0.1 -0.1)">
       <use xlink:href="#ArialMT-30"/>
       <use xlink:href="#ArialMT-2e" x="55.615234"/>
       <use xlink:href="#ArialMT-32" x="83.398438"/>
       <use xlink:href="#ArialMT-35" x="139.013672"/>
      </g>
     </g>
    </g>
    <g id="ytick_7">
     <g id="text_15">
      <!-- 0.50 -->
      <g style="fill: #262626" transform="translate(31.139063 111.578906) scale(0.1 -0.1)">
       <use xlink:href="#ArialMT-30"/>
       <use xlink:href="#ArialMT-2e" x="55.615234"/>
       <use xlink:href="#ArialMT-35" x="83.398438"/>
       <use xlink:href="#ArialMT-30" x="139.013672"/>
      </g>
     </g>
    </g>
    <g id="ytick_8">
     <g id="text_16">
      <!-- 0.75 -->
      <g style="fill: #262626" transform="translate(31.139063 78.314906) scale(0.1 -0.1)">
       <use xlink:href="#ArialMT-30"/>
       <use xlink:href="#ArialMT-2e" x="55.615234"/>
       <use xlink:href="#ArialMT-37" x="83.398438"/>
       <use xlink:href="#ArialMT-35" x="139.013672"/>
      </g>
     </g>
    </g>
    <g id="ytick_9">
     <g id="text_17">
      <!-- 1.00 -->
      <g style="fill: #262626" transform="translate(31.139063 45.050906) scale(0.1 -0.1)">
       <use xlink:href="#ArialMT-31"/>
       <use xlink:href="#ArialMT-2e" x="55.615234"/>
       <use xlink:href="#ArialMT-30" x="83.398438"/>
       <use xlink:href="#ArialMT-30" x="139.013672"/>
      </g>
     </g>
    </g>
    <g id="text_18">
     <!-- Autocorrelation -->
     <g style="fill: #262626" transform="translate(18.317187 224.970187) rotate(-90) scale(0.15 -0.15)">
      <defs>
       <path id="ArialMT-41" d="M -9 0 
L 1750 4581 
L 2403 4581 
L 4278 0 
L 3588 0 
L 3053 1388 
L 1138 1388 
L 634 0 
L -9 0 
z
M 1313 1881 
L 2866 1881 
L 2388 3150 
Q 2169 3728 2063 4100 
Q 1975 3659 1816 3225 
L 1313 1881 
z
" transform="scale(0.015625)"/>
       <path id="ArialMT-75" d="M 2597 0 
L 2597 488 
Q 2209 -75 1544 -75 
Q 1250 -75 995 37 
Q 741 150 617 320 
Q 494 491 444 738 
Q 409 903 409 1263 
L 409 3319 
L 972 3319 
L 972 1478 
Q 972 1038 1006 884 
Q 1059 663 1231 536 
Q 1403 409 1656 409 
Q 1909 409 2131 539 
Q 2353 669 2445 892 
Q 2538 1116 2538 1541 
L 2538 3319 
L 3100 3319 
L 3100 0 
L 2597 0 
z
" transform="scale(0.015625)"/>
       <path id="ArialMT-74" d="M 1650 503 
L 1731 6 
Q 1494 -44 1306 -44 
Q 1000 -44 831 53 
Q 663 150 594 308 
Q 525 466 525 972 
L 525 2881 
L 113 2881 
L 113 3319 
L 525 3319 
L 525 4141 
L 1084 4478 
L 1084 3319 
L 1650 3319 
L 1650 2881 
L 1084 2881 
L 1084 941 
Q 1084 700 1114 631 
Q 1144 563 1211 522 
Q 1278 481 1403 481 
Q 1497 481 1650 503 
z
" transform="scale(0.015625)"/>
       <path id="ArialMT-6f" d="M 213 1659 
Q 213 2581 725 3025 
Q 1153 3394 1769 3394 
Q 2453 3394 2887 2945 
Q 3322 2497 3322 1706 
Q 3322 1066 3130 698 
Q 2938 331 2570 128 
Q 2203 -75 1769 -75 
Q 1072 -75 642 372 
Q 213 819 213 1659 
z
M 791 1659 
Q 791 1022 1069 705 
Q 1347 388 1769 388 
Q 2188 388 2466 706 
Q 2744 1025 2744 1678 
Q 2744 2294 2464 2611 
Q 2184 2928 1769 2928 
Q 1347 2928 1069 2612 
Q 791 2297 791 1659 
z
" transform="scale(0.015625)"/>
       <path id="ArialMT-63" d="M 2588 1216 
L 3141 1144 
Q 3050 572 2676 248 
Q 2303 -75 1759 -75 
Q 1078 -75 664 370 
Q 250 816 250 1647 
Q 250 2184 428 2587 
Q 606 2991 970 3192 
Q 1334 3394 1763 3394 
Q 2303 3394 2647 3120 
Q 2991 2847 3088 2344 
L 2541 2259 
Q 2463 2594 2264 2762 
Q 2066 2931 1784 2931 
Q 1359 2931 1093 2626 
Q 828 2322 828 1663 
Q 828 994 1084 691 
Q 1341 388 1753 388 
Q 2084 388 2306 591 
Q 2528 794 2588 1216 
z
" transform="scale(0.015625)"/>
       <path id="ArialMT-72" d="M 416 0 
L 416 3319 
L 922 3319 
L 922 2816 
Q 1116 3169 1280 3281 
Q 1444 3394 1641 3394 
Q 1925 3394 2219 3213 
L 2025 2691 
Q 1819 2813 1613 2813 
Q 1428 2813 1281 2702 
Q 1134 2591 1072 2394 
Q 978 2094 978 1738 
L 978 0 
L 416 0 
z
" transform="scale(0.015625)"/>
       <path id="ArialMT-6e" d="M 422 0 
L 422 3319 
L 928 3319 
L 928 2847 
Q 1294 3394 1984 3394 
Q 2284 3394 2536 3286 
Q 2788 3178 2913 3003 
Q 3038 2828 3088 2588 
Q 3119 2431 3119 2041 
L 3119 0 
L 2556 0 
L 2556 2019 
Q 2556 2363 2490 2533 
Q 2425 2703 2258 2804 
Q 2091 2906 1866 2906 
Q 1506 2906 1245 2678 
Q 984 2450 984 1813 
L 984 0 
L 422 0 
z
" transform="scale(0.015625)"/>
      </defs>
      <use xlink:href="#ArialMT-41"/>
      <use xlink:href="#ArialMT-75" x="66.699219"/>
      <use xlink:href="#ArialMT-74" x="122.314453"/>
      <use xlink:href="#ArialMT-6f" x="150.097656"/>
      <use xlink:href="#ArialMT-63" x="205.712891"/>
      <use xlink:href="#ArialMT-6f" x="255.712891"/>
      <use xlink:href="#ArialMT-72" x="311.328125"/>
      <use xlink:href="#ArialMT-72" x="344.628906"/>
      <use xlink:href="#ArialMT-65" x="377.929688"/>
      <use xlink:href="#ArialMT-6c" x="433.544922"/>
      <use xlink:href="#ArialMT-61" x="455.761719"/>
      <use xlink:href="#ArialMT-74" x="511.376953"/>
      <use xlink:href="#ArialMT-69" x="539.160156"/>
      <use xlink:href="#ArialMT-6f" x="561.376953"/>
      <use xlink:href="#ArialMT-6e" x="616.992188"/>
     </g>
    </g>
   </g>
   <g id="PolyCollection_1">
    <defs>
     <path id="mfb09a65afe" d="M 75.179842 -172.463254 
L 75.179842 -169.680746 
L 79.221184 -169.680746 
L 81.915413 -169.680746 
L 84.609642 -169.680746 
L 87.30387 -169.680746 
L 89.998099 -169.680746 
L 92.692327 -169.680746 
L 95.386556 -169.680746 
L 98.080785 -169.680746 
L 100.775013 -169.680746 
L 103.469242 -169.680746 
L 106.16347 -169.680746 
L 108.857699 -169.680746 
L 111.551928 -169.680746 
L 114.246156 -169.680746 
L 116.940385 -169.680746 
L 119.634613 -169.680746 
L 122.328842 -169.680746 
L 125.023071 -169.680746 
L 127.717299 -169.680746 
L 130.411528 -169.680746 
L 133.105756 -169.680746 
L 135.799985 -169.680746 
L 138.494214 -169.680746 
L 141.188442 -169.680746 
L 143.882671 -169.680746 
L 146.576899 -169.680746 
L 149.271128 -169.680746 
L 151.965356 -169.680746 
L 154.659585 -169.680746 
L 157.353814 -169.680746 
L 160.048042 -169.680746 
L 162.742271 -169.680746 
L 165.436499 -169.680746 
L 168.130728 -169.680746 
L 170.824957 -169.680746 
L 173.519185 -169.680746 
L 176.213414 -169.680746 
L 178.907642 -169.680746 
L 181.601871 -169.680746 
L 184.2961 -169.680746 
L 186.990328 -169.680746 
L 189.684557 -169.680746 
L 192.378785 -169.680746 
L 195.073014 -169.680746 
L 197.767243 -169.680746 
L 200.461471 -169.680746 
L 203.1557 -169.680746 
L 205.849928 -169.680746 
L 208.544157 -169.680746 
L 211.238386 -169.680746 
L 213.932614 -169.680746 
L 216.626843 -169.680746 
L 219.321071 -169.680746 
L 222.0153 -169.680746 
L 224.709528 -169.680746 
L 227.403757 -169.680746 
L 230.097986 -169.680746 
L 232.792214 -169.680746 
L 235.486443 -169.680746 
L 238.180671 -169.680746 
L 240.8749 -169.680746 
L 243.569129 -169.680746 
L 246.263357 -169.680746 
L 248.957586 -169.680746 
L 251.651814 -169.680746 
L 254.346043 -169.680746 
L 257.040272 -169.680746 
L 259.7345 -169.680746 
L 262.428729 -169.680746 
L 265.122957 -169.680746 
L 267.817186 -169.680746 
L 270.511415 -169.680746 
L 273.205643 -169.680746 
L 275.899872 -169.680746 
L 278.5941 -169.680746 
L 281.288329 -169.680746 
L 283.982558 -169.680746 
L 286.676786 -169.680746 
L 289.371015 -169.680746 
L 292.065243 -169.680746 
L 294.759472 -169.680746 
L 297.4537 -169.680746 
L 300.147929 -169.680746 
L 302.842158 -169.680746 
L 305.536386 -169.680746 
L 308.230615 -169.680746 
L 310.924843 -169.680746 
L 313.619072 -169.680746 
L 316.313301 -169.680746 
L 319.007529 -169.680746 
L 321.701758 -169.680746 
L 324.395986 -169.680746 
L 327.090215 -169.680746 
L 329.784444 -169.680746 
L 332.478672 -169.680746 
L 335.172901 -169.680746 
L 337.867129 -169.680746 
L 340.561358 -169.680746 
L 343.255587 -169.680746 
L 345.949815 -169.680746 
L 348.644044 -169.680746 
L 351.338272 -169.680746 
L 354.032501 -169.680746 
L 356.72673 -169.680746 
L 359.420958 -169.680746 
L 362.115187 -169.680746 
L 364.809415 -169.680746 
L 367.503644 -169.680746 
L 370.197873 -169.680746 
L 372.892101 -169.680746 
L 375.58633 -169.680746 
L 378.280558 -169.680746 
L 380.974787 -169.680746 
L 383.669015 -169.680746 
L 386.363244 -169.680746 
L 389.057473 -169.680746 
L 391.751701 -169.680746 
L 394.44593 -169.680746 
L 398.487273 -169.680746 
L 398.487273 -172.463254 
L 398.487273 -172.463254 
L 394.44593 -172.463254 
L 391.751701 -172.463254 
L 389.057473 -172.463254 
L 386.363244 -172.463254 
L 383.669015 -172.463254 
L 380.974787 -172.463254 
L 378.280558 -172.463254 
L 375.58633 -172.463254 
L 372.892101 -172.463254 
L 370.197873 -172.463254 
L 367.503644 -172.463254 
L 364.809415 -172.463254 
L 362.115187 -172.463254 
L 359.420958 -172.463254 
L 356.72673 -172.463254 
L 354.032501 -172.463254 
L 351.338272 -172.463254 
L 348.644044 -172.463254 
L 345.949815 -172.463254 
L 343.255587 -172.463254 
L 340.561358 -172.463254 
L 337.867129 -172.463254 
L 335.172901 -172.463254 
L 332.478672 -172.463254 
L 329.784444 -172.463254 
L 327.090215 -172.463254 
L 324.395986 -172.463254 
L 321.701758 -172.463254 
L 319.007529 -172.463254 
L 316.313301 -172.463254 
L 313.619072 -172.463254 
L 310.924843 -172.463254 
L 308.230615 -172.463254 
L 305.536386 -172.463254 
L 302.842158 -172.463254 
L 300.147929 -172.463254 
L 297.4537 -172.463254 
L 294.759472 -172.463254 
L 292.065243 -172.463254 
L 289.371015 -172.463254 
L 286.676786 -172.463254 
L 283.982558 -172.463254 
L 281.288329 -172.463254 
L 278.5941 -172.463254 
L 275.899872 -172.463254 
L 273.205643 -172.463254 
L 270.511415 -172.463254 
L 267.817186 -172.463254 
L 265.122957 -172.463254 
L 262.428729 -172.463254 
L 259.7345 -172.463254 
L 257.040272 -172.463254 
L 254.346043 -172.463254 
L 251.651814 -172.463254 
L 248.957586 -172.463254 
L 246.263357 -172.463254 
L 243.569129 -172.463254 
L 240.8749 -172.463254 
L 238.180671 -172.463254 
L 235.486443 -172.463254 
L 232.792214 -172.463254 
L 230.097986 -172.463254 
L 227.403757 -172.463254 
L 224.709528 -172.463254 
L 222.0153 -172.463254 
L 219.321071 -172.463254 
L 216.626843 -172.463254 
L 213.932614 -172.463254 
L 211.238386 -172.463254 
L 208.544157 -172.463254 
L 205.849928 -172.463254 
L 203.1557 -172.463254 
L 200.461471 -172.463254 
L 197.767243 -172.463254 
L 195.073014 -172.463254 
L 192.378785 -172.463254 
L 189.684557 -172.463254 
L 186.990328 -172.463254 
L 184.2961 -172.463254 
L 181.601871 -172.463254 
L 178.907642 -172.463254 
L 176.213414 -172.463254 
L 173.519185 -172.463254 
L 170.824957 -172.463254 
L 168.130728 -172.463254 
L 165.436499 -172.463254 
L 162.742271 -172.463254 
L 160.048042 -172.463254 
L 157.353814 -172.463254 
L 154.659585 -172.463254 
L 151.965356 -172.463254 
L 149.271128 -172.463254 
L 146.576899 -172.463254 
L 143.882671 -172.463254 
L 141.188442 -172.463254 
L 138.494214 -172.463254 
L 135.799985 -172.463254 
L 133.105756 -172.463254 
L 130.411528 -172.463254 
L 127.717299 -172.463254 
L 125.023071 -172.463254 
L 122.328842 -172.463254 
L 119.634613 -172.463254 
L 116.940385 -172.463254 
L 114.246156 -172.463254 
L 111.551928 -172.463254 
L 108.857699 -172.463254 
L 106.16347 -172.463254 
L 103.469242 -172.463254 
L 100.775013 -172.463254 
L 98.080785 -172.463254 
L 95.386556 -172.463254 
L 92.692327 -172.463254 
L 89.998099 -172.463254 
L 87.30387 -172.463254 
L 84.609642 -172.463254 
L 81.915413 -172.463254 
L 79.221184 -172.463254 
L 75.179842 -172.463254 
z
" style="stroke: #ffffff; stroke-opacity: 0.25"/>
    </defs>
    <g clip-path="url(#pdd270bc690)">
     <use xlink:href="#mfb09a65afe" x="0" y="345.6" style="fill: #1f77b4; fill-opacity: 0.25; stroke: #ffffff; stroke-opacity: 0.25"/>
    </g>
   </g>
   <g id="LineCollection_1">
    <path d="M 73.832727 174.528 
L 73.832727 41.472 
" clip-path="url(#pdd270bc690)" style="fill: none; stroke: #1f77b4; stroke-width: 1.5"/>
    <path d="M 76.526956 174.528 
L 76.526956 54.835869 
" clip-path="url(#pdd270bc690)" style="fill: none; stroke: #1f77b4; stroke-width: 1.5"/>
    <path d="M 79.221184 174.528 
L 79.221184 186.304373 
" clip-path="url(#pdd270bc690)" style="fill: none; stroke: #1f77b4; stroke-width: 1.5"/>
    <path d="M 81.915413 174.528 
L 81.915413 176.126902 
" clip-path="url(#pdd270bc690)" style="fill: none; stroke: #1f77b4; stroke-width: 1.5"/>
    <path d="M 84.609642 174.528 
L 84.609642 175.694148 
" clip-path="url(#pdd270bc690)" style="fill: none; stroke: #1f77b4; stroke-width: 1.5"/>
    <path d="M 87.30387 174.528 
L 87.30387 173.827677 
" clip-path="url(#pdd270bc690)" style="fill: none; stroke: #1f77b4; stroke-width: 1.5"/>
    <path d="M 89.998099 174.528 
L 89.998099 173.62769 
" clip-path="url(#pdd270bc690)" style="fill: none; stroke: #1f77b4; stroke-width: 1.5"/>
    <path d="M 92.692327 174.528 
L 92.692327 172.197146 
" clip-path="url(#pdd270bc690)" style="fill: none; stroke: #1f77b4; stroke-width: 1.5"/>
    <path d="M 95.386556 174.528 
L 95.386556 174.656978 
" clip-path="url(#pdd270bc690)" style="fill: none; stroke: #1f77b4; stroke-width: 1.5"/>
    <path d="M 98.080785 174.528 
L 98.080785 173.959007 
" clip-path="url(#pdd270bc690)" style="fill: none; stroke: #1f77b4; stroke-width: 1.5"/>
    <path d="M 100.775013 174.528 
L 100.775013 171.535977 
" clip-path="url(#pdd270bc690)" style="fill: none; stroke: #1f77b4; stroke-width: 1.5"/>
    <path d="M 103.469242 174.528 
L 103.469242 175.293249 
" clip-path="url(#pdd270bc690)" style="fill: none; stroke: #1f77b4; stroke-width: 1.5"/>
    <path d="M 106.16347 174.528 
L 106.16347 174.212006 
" clip-path="url(#pdd270bc690)" style="fill: none; stroke: #1f77b4; stroke-width: 1.5"/>
    <path d="M 108.857699 174.528 
L 108.857699 170.772759 
" clip-path="url(#pdd270bc690)" style="fill: none; stroke: #1f77b4; stroke-width: 1.5"/>
    <path d="M 111.551928 174.528 
L 111.551928 173.691493 
" clip-path="url(#pdd270bc690)" style="fill: none; stroke: #1f77b4; stroke-width: 1.5"/>
    <path d="M 114.246156 174.528 
L 114.246156 176.3629 
" clip-path="url(#pdd270bc690)" style="fill: none; stroke: #1f77b4; stroke-width: 1.5"/>
    <path d="M 116.940385 174.528 
L 116.940385 173.998624 
" clip-path="url(#pdd270bc690)" style="fill: none; stroke: #1f77b4; stroke-width: 1.5"/>
    <path d="M 119.634613 174.528 
L 119.634613 174.541037 
" clip-path="url(#pdd270bc690)" style="fill: none; stroke: #1f77b4; stroke-width: 1.5"/>
    <path d="M 122.328842 174.528 
L 122.328842 174.217878 
" clip-path="url(#pdd270bc690)" style="fill: none; stroke: #1f77b4; stroke-width: 1.5"/>
    <path d="M 125.023071 174.528 
L 125.023071 173.594115 
" clip-path="url(#pdd270bc690)" style="fill: none; stroke: #1f77b4; stroke-width: 1.5"/>
    <path d="M 127.717299 174.528 
L 127.717299 174.332842 
" clip-path="url(#pdd270bc690)" style="fill: none; stroke: #1f77b4; stroke-width: 1.5"/>
    <path d="M 130.411528 174.528 
L 130.411528 176.173969 
" clip-path="url(#pdd270bc690)" style="fill: none; stroke: #1f77b4; stroke-width: 1.5"/>
    <path d="M 133.105756 174.528 
L 133.105756 175.422066 
" clip-path="url(#pdd270bc690)" style="fill: none; stroke: #1f77b4; stroke-width: 1.5"/>
    <path d="M 135.799985 174.528 
L 135.799985 174.951404 
" clip-path="url(#pdd270bc690)" style="fill: none; stroke: #1f77b4; stroke-width: 1.5"/>
    <path d="M 138.494214 174.528 
L 138.494214 174.887003 
" clip-path="url(#pdd270bc690)" style="fill: none; stroke: #1f77b4; stroke-width: 1.5"/>
    <path d="M 141.188442 174.528 
L 141.188442 174.112997 
" clip-path="url(#pdd270bc690)" style="fill: none; stroke: #1f77b4; stroke-width: 1.5"/>
    <path d="M 143.882671 174.528 
L 143.882671 174.44631 
" clip-path="url(#pdd270bc690)" style="fill: none; stroke: #1f77b4; stroke-width: 1.5"/>
    <path d="M 146.576899 174.528 
L 146.576899 174.463734 
" clip-path="url(#pdd270bc690)" style="fill: none; stroke: #1f77b4; stroke-width: 1.5"/>
    <path d="M 149.271128 174.528 
L 149.271128 173.952433 
" clip-path="url(#pdd270bc690)" style="fill: none; stroke: #1f77b4; stroke-width: 1.5"/>
    <path d="M 151.965356 174.528 
L 151.965356 176.632332 
" clip-path="url(#pdd270bc690)" style="fill: none; stroke: #1f77b4; stroke-width: 1.5"/>
    <path d="M 154.659585 174.528 
L 154.659585 174.42877 
" clip-path="url(#pdd270bc690)" style="fill: none; stroke: #1f77b4; stroke-width: 1.5"/>
    <path d="M 157.353814 174.528 
L 157.353814 173.099906 
" clip-path="url(#pdd270bc690)" style="fill: none; stroke: #1f77b4; stroke-width: 1.5"/>
    <path d="M 160.048042 174.528 
L 160.048042 172.290703 
" clip-path="url(#pdd270bc690)" style="fill: none; stroke: #1f77b4; stroke-width: 1.5"/>
    <path d="M 162.742271 174.528 
L 162.742271 172.793153 
" clip-path="url(#pdd270bc690)" style="fill: none; stroke: #1f77b4; stroke-width: 1.5"/>
    <path d="M 165.436499 174.528 
L 165.436499 173.019517 
" clip-path="url(#pdd270bc690)" style="fill: none; stroke: #1f77b4; stroke-width: 1.5"/>
    <path d="M 168.130728 174.528 
L 168.130728 173.252455 
" clip-path="url(#pdd270bc690)" style="fill: none; stroke: #1f77b4; stroke-width: 1.5"/>
    <path d="M 170.824957 174.528 
L 170.824957 172.702705 
" clip-path="url(#pdd270bc690)" style="fill: none; stroke: #1f77b4; stroke-width: 1.5"/>
    <path d="M 173.519185 174.528 
L 173.519185 172.669703 
" clip-path="url(#pdd270bc690)" style="fill: none; stroke: #1f77b4; stroke-width: 1.5"/>
    <path d="M 176.213414 174.528 
L 176.213414 173.725405 
" clip-path="url(#pdd270bc690)" style="fill: none; stroke: #1f77b4; stroke-width: 1.5"/>
    <path d="M 178.907642 174.528 
L 178.907642 175.446751 
" clip-path="url(#pdd270bc690)" style="fill: none; stroke: #1f77b4; stroke-width: 1.5"/>
    <path d="M 181.601871 174.528 
L 181.601871 175.666811 
" clip-path="url(#pdd270bc690)" style="fill: none; stroke: #1f77b4; stroke-width: 1.5"/>
    <path d="M 184.2961 174.528 
L 184.2961 177.13406 
" clip-path="url(#pdd270bc690)" style="fill: none; stroke: #1f77b4; stroke-width: 1.5"/>
    <path d="M 186.990328 174.528 
L 186.990328 177.55013 
" clip-path="url(#pdd270bc690)" style="fill: none; stroke: #1f77b4; stroke-width: 1.5"/>
    <path d="M 189.684557 174.528 
L 189.684557 177.646425 
" clip-path="url(#pdd270bc690)" style="fill: none; stroke: #1f77b4; stroke-width: 1.5"/>
    <path d="M 192.378785 174.528 
L 192.378785 177.206666 
" clip-path="url(#pdd270bc690)" style="fill: none; stroke: #1f77b4; stroke-width: 1.5"/>
    <path d="M 195.073014 174.528 
L 195.073014 175.963366 
" clip-path="url(#pdd270bc690)" style="fill: none; stroke: #1f77b4; stroke-width: 1.5"/>
    <path d="M 197.767243 174.528 
L 197.767243 175.026856 
" clip-path="url(#pdd270bc690)" style="fill: none; stroke: #1f77b4; stroke-width: 1.5"/>
    <path d="M 200.461471 174.528 
L 200.461471 173.964858 
" clip-path="url(#pdd270bc690)" style="fill: none; stroke: #1f77b4; stroke-width: 1.5"/>
    <path d="M 203.1557 174.528 
L 203.1557 172.388754 
" clip-path="url(#pdd270bc690)" style="fill: none; stroke: #1f77b4; stroke-width: 1.5"/>
    <path d="M 205.849928 174.528 
L 205.849928 171.339078 
" clip-path="url(#pdd270bc690)" style="fill: none; stroke: #1f77b4; stroke-width: 1.5"/>
    <path d="M 208.544157 174.528 
L 208.544157 170.79769 
" clip-path="url(#pdd270bc690)" style="fill: none; stroke: #1f77b4; stroke-width: 1.5"/>
    <path d="M 211.238386 174.528 
L 211.238386 171.115143 
" clip-path="url(#pdd270bc690)" style="fill: none; stroke: #1f77b4; stroke-width: 1.5"/>
    <path d="M 213.932614 174.528 
L 213.932614 171.908372 
" clip-path="url(#pdd270bc690)" style="fill: none; stroke: #1f77b4; stroke-width: 1.5"/>
    <path d="M 216.626843 174.528 
L 216.626843 172.101487 
" clip-path="url(#pdd270bc690)" style="fill: none; stroke: #1f77b4; stroke-width: 1.5"/>
    <path d="M 219.321071 174.528 
L 219.321071 174.191186 
" clip-path="url(#pdd270bc690)" style="fill: none; stroke: #1f77b4; stroke-width: 1.5"/>
    <path d="M 222.0153 174.528 
L 222.0153 175.251338 
" clip-path="url(#pdd270bc690)" style="fill: none; stroke: #1f77b4; stroke-width: 1.5"/>
    <path d="M 224.709528 174.528 
L 224.709528 175.794525 
" clip-path="url(#pdd270bc690)" style="fill: none; stroke: #1f77b4; stroke-width: 1.5"/>
    <path d="M 227.403757 174.528 
L 227.403757 176.275541 
" clip-path="url(#pdd270bc690)" style="fill: none; stroke: #1f77b4; stroke-width: 1.5"/>
    <path d="M 230.097986 174.528 
L 230.097986 176.86798 
" clip-path="url(#pdd270bc690)" style="fill: none; stroke: #1f77b4; stroke-width: 1.5"/>
    <path d="M 232.792214 174.528 
L 232.792214 177.11439 
" clip-path="url(#pdd270bc690)" style="fill: none; stroke: #1f77b4; stroke-width: 1.5"/>
    <path d="M 235.486443 174.528 
L 235.486443 176.342466 
" clip-path="url(#pdd270bc690)" style="fill: none; stroke: #1f77b4; stroke-width: 1.5"/>
    <path d="M 238.180671 174.528 
L 238.180671 175.625912 
" clip-path="url(#pdd270bc690)" style="fill: none; stroke: #1f77b4; stroke-width: 1.5"/>
    <path d="M 240.8749 174.528 
L 240.8749 175.981552 
" clip-path="url(#pdd270bc690)" style="fill: none; stroke: #1f77b4; stroke-width: 1.5"/>
    <path d="M 243.569129 174.528 
L 243.569129 175.851935 
" clip-path="url(#pdd270bc690)" style="fill: none; stroke: #1f77b4; stroke-width: 1.5"/>
    <path d="M 246.263357 174.528 
L 246.263357 174.62985 
" clip-path="url(#pdd270bc690)" style="fill: none; stroke: #1f77b4; stroke-width: 1.5"/>
    <path d="M 248.957586 174.528 
L 248.957586 173.384203 
" clip-path="url(#pdd270bc690)" style="fill: none; stroke: #1f77b4; stroke-width: 1.5"/>
    <path d="M 251.651814 174.528 
L 251.651814 172.957607 
" clip-path="url(#pdd270bc690)" style="fill: none; stroke: #1f77b4; stroke-width: 1.5"/>
    <path d="M 254.346043 174.528 
L 254.346043 173.932014 
" clip-path="url(#pdd270bc690)" style="fill: none; stroke: #1f77b4; stroke-width: 1.5"/>
    <path d="M 257.040272 174.528 
L 257.040272 174.913226 
" clip-path="url(#pdd270bc690)" style="fill: none; stroke: #1f77b4; stroke-width: 1.5"/>
    <path d="M 259.7345 174.528 
L 259.7345 175.111393 
" clip-path="url(#pdd270bc690)" style="fill: none; stroke: #1f77b4; stroke-width: 1.5"/>
    <path d="M 262.428729 174.528 
L 262.428729 174.675511 
" clip-path="url(#pdd270bc690)" style="fill: none; stroke: #1f77b4; stroke-width: 1.5"/>
    <path d="M 265.122957 174.528 
L 265.122957 174.356622 
" clip-path="url(#pdd270bc690)" style="fill: none; stroke: #1f77b4; stroke-width: 1.5"/>
    <path d="M 267.817186 174.528 
L 267.817186 174.07628 
" clip-path="url(#pdd270bc690)" style="fill: none; stroke: #1f77b4; stroke-width: 1.5"/>
    <path d="M 270.511415 174.528 
L 270.511415 174.13857 
" clip-path="url(#pdd270bc690)" style="fill: none; stroke: #1f77b4; stroke-width: 1.5"/>
    <path d="M 273.205643 174.528 
L 273.205643 174.383948 
" clip-path="url(#pdd270bc690)" style="fill: none; stroke: #1f77b4; stroke-width: 1.5"/>
    <path d="M 275.899872 174.528 
L 275.899872 175.006679 
" clip-path="url(#pdd270bc690)" style="fill: none; stroke: #1f77b4; stroke-width: 1.5"/>
    <path d="M 278.5941 174.528 
L 278.5941 173.335846 
" clip-path="url(#pdd270bc690)" style="fill: none; stroke: #1f77b4; stroke-width: 1.5"/>
    <path d="M 281.288329 174.528 
L 281.288329 174.229042 
" clip-path="url(#pdd270bc690)" style="fill: none; stroke: #1f77b4; stroke-width: 1.5"/>
    <path d="M 283.982558 174.528 
L 283.982558 174.140882 
" clip-path="url(#pdd270bc690)" style="fill: none; stroke: #1f77b4; stroke-width: 1.5"/>
    <path d="M 286.676786 174.528 
L 286.676786 173.665185 
" clip-path="url(#pdd270bc690)" style="fill: none; stroke: #1f77b4; stroke-width: 1.5"/>
    <path d="M 289.371015 174.528 
L 289.371015 172.388847 
" clip-path="url(#pdd270bc690)" style="fill: none; stroke: #1f77b4; stroke-width: 1.5"/>
    <path d="M 292.065243 174.528 
L 292.065243 173.917158 
" clip-path="url(#pdd270bc690)" style="fill: none; stroke: #1f77b4; stroke-width: 1.5"/>
    <path d="M 294.759472 174.528 
L 294.759472 172.479965 
" clip-path="url(#pdd270bc690)" style="fill: none; stroke: #1f77b4; stroke-width: 1.5"/>
    <path d="M 297.4537 174.528 
L 297.4537 172.798575 
" clip-path="url(#pdd270bc690)" style="fill: none; stroke: #1f77b4; stroke-width: 1.5"/>
    <path d="M 300.147929 174.528 
L 300.147929 171.416549 
" clip-path="url(#pdd270bc690)" style="fill: none; stroke: #1f77b4; stroke-width: 1.5"/>
    <path d="M 302.842158 174.528 
L 302.842158 172.306441 
" clip-path="url(#pdd270bc690)" style="fill: none; stroke: #1f77b4; stroke-width: 1.5"/>
    <path d="M 305.536386 174.528 
L 305.536386 170.860003 
" clip-path="url(#pdd270bc690)" style="fill: none; stroke: #1f77b4; stroke-width: 1.5"/>
    <path d="M 308.230615 174.528 
L 308.230615 169.977733 
" clip-path="url(#pdd270bc690)" style="fill: none; stroke: #1f77b4; stroke-width: 1.5"/>
    <path d="M 310.924843 174.528 
L 310.924843 170.183765 
" clip-path="url(#pdd270bc690)" style="fill: none; stroke: #1f77b4; stroke-width: 1.5"/>
    <path d="M 313.619072 174.528 
L 313.619072 165.474303 
" clip-path="url(#pdd270bc690)" style="fill: none; stroke: #1f77b4; stroke-width: 1.5"/>
    <path d="M 316.313301 174.528 
L 316.313301 167.741301 
" clip-path="url(#pdd270bc690)" style="fill: none; stroke: #1f77b4; stroke-width: 1.5"/>
    <path d="M 319.007529 174.528 
L 319.007529 162.977744 
" clip-path="url(#pdd270bc690)" style="fill: none; stroke: #1f77b4; stroke-width: 1.5"/>
    <path d="M 321.701758 174.528 
L 321.701758 164.577029 
" clip-path="url(#pdd270bc690)" style="fill: none; stroke: #1f77b4; stroke-width: 1.5"/>
    <path d="M 324.395986 174.528 
L 324.395986 165.470789 
" clip-path="url(#pdd270bc690)" style="fill: none; stroke: #1f77b4; stroke-width: 1.5"/>
    <path d="M 327.090215 174.528 
L 327.090215 162.801892 
" clip-path="url(#pdd270bc690)" style="fill: none; stroke: #1f77b4; stroke-width: 1.5"/>
    <path d="M 329.784444 174.528 
L 329.784444 171.347378 
" clip-path="url(#pdd270bc690)" style="fill: none; stroke: #1f77b4; stroke-width: 1.5"/>
    <path d="M 332.478672 174.528 
L 332.478672 178.482306 
" clip-path="url(#pdd270bc690)" style="fill: none; stroke: #1f77b4; stroke-width: 1.5"/>
    <path d="M 335.172901 174.528 
L 335.172901 191.944279 
" clip-path="url(#pdd270bc690)" style="fill: none; stroke: #1f77b4; stroke-width: 1.5"/>
    <path d="M 337.867129 174.528 
L 337.867129 187.016137 
" clip-path="url(#pdd270bc690)" style="fill: none; stroke: #1f77b4; stroke-width: 1.5"/>
    <path d="M 340.561358 174.528 
L 340.561358 181.197778 
" clip-path="url(#pdd270bc690)" style="fill: none; stroke: #1f77b4; stroke-width: 1.5"/>
    <path d="M 343.255587 174.528 
L 343.255587 178.90085 
" clip-path="url(#pdd270bc690)" style="fill: none; stroke: #1f77b4; stroke-width: 1.5"/>
    <path d="M 345.949815 174.528 
L 345.949815 179.510735 
" clip-path="url(#pdd270bc690)" style="fill: none; stroke: #1f77b4; stroke-width: 1.5"/>
    <path d="M 348.644044 174.528 
L 348.644044 177.144194 
" clip-path="url(#pdd270bc690)" style="fill: none; stroke: #1f77b4; stroke-width: 1.5"/>
    <path d="M 351.338272 174.528 
L 351.338272 174.974854 
" clip-path="url(#pdd270bc690)" style="fill: none; stroke: #1f77b4; stroke-width: 1.5"/>
    <path d="M 354.032501 174.528 
L 354.032501 176.436611 
" clip-path="url(#pdd270bc690)" style="fill: none; stroke: #1f77b4; stroke-width: 1.5"/>
    <path d="M 356.72673 174.528 
L 356.72673 174.63464 
" clip-path="url(#pdd270bc690)" style="fill: none; stroke: #1f77b4; stroke-width: 1.5"/>
    <path d="M 359.420958 174.528 
L 359.420958 175.859724 
" clip-path="url(#pdd270bc690)" style="fill: none; stroke: #1f77b4; stroke-width: 1.5"/>
    <path d="M 362.115187 174.528 
L 362.115187 173.578405 
" clip-path="url(#pdd270bc690)" style="fill: none; stroke: #1f77b4; stroke-width: 1.5"/>
    <path d="M 364.809415 174.528 
L 364.809415 178.264809 
" clip-path="url(#pdd270bc690)" style="fill: none; stroke: #1f77b4; stroke-width: 1.5"/>
    <path d="M 367.503644 174.528 
L 367.503644 175.091221 
" clip-path="url(#pdd270bc690)" style="fill: none; stroke: #1f77b4; stroke-width: 1.5"/>
    <path d="M 370.197873 174.528 
L 370.197873 175.473182 
" clip-path="url(#pdd270bc690)" style="fill: none; stroke: #1f77b4; stroke-width: 1.5"/>
    <path d="M 372.892101 174.528 
L 372.892101 174.950988 
" clip-path="url(#pdd270bc690)" style="fill: none; stroke: #1f77b4; stroke-width: 1.5"/>
    <path d="M 375.58633 174.528 
L 375.58633 172.795446 
" clip-path="url(#pdd270bc690)" style="fill: none; stroke: #1f77b4; stroke-width: 1.5"/>
    <path d="M 378.280558 174.528 
L 378.280558 175.582277 
" clip-path="url(#pdd270bc690)" style="fill: none; stroke: #1f77b4; stroke-width: 1.5"/>
    <path d="M 380.974787 174.528 
L 380.974787 172.172277 
" clip-path="url(#pdd270bc690)" style="fill: none; stroke: #1f77b4; stroke-width: 1.5"/>
    <path d="M 383.669015 174.528 
L 383.669015 173.748604 
" clip-path="url(#pdd270bc690)" style="fill: none; stroke: #1f77b4; stroke-width: 1.5"/>
    <path d="M 386.363244 174.528 
L 386.363244 174.96767 
" clip-path="url(#pdd270bc690)" style="fill: none; stroke: #1f77b4; stroke-width: 1.5"/>
    <path d="M 389.057473 174.528 
L 389.057473 176.017038 
" clip-path="url(#pdd270bc690)" style="fill: none; stroke: #1f77b4; stroke-width: 1.5"/>
    <path d="M 391.751701 174.528 
L 391.751701 174.178758 
" clip-path="url(#pdd270bc690)" style="fill: none; stroke: #1f77b4; stroke-width: 1.5"/>
    <path d="M 394.44593 174.528 
L 394.44593 174.052357 
" clip-path="url(#pdd270bc690)" style="fill: none; stroke: #1f77b4; stroke-width: 1.5"/>
    <path d="M 397.140158 174.528 
L 397.140158 174.956711 
" clip-path="url(#pdd270bc690)" style="fill: none; stroke: #1f77b4; stroke-width: 1.5"/>
   </g>
   <g id="line2d_1">
    <path d="M 57.6 174.528 
L 414.72 174.528 
" clip-path="url(#pdd270bc690)" style="fill: none; stroke: #1f77b4; stroke-width: 1.5; stroke-linecap: round"/>
   </g>
   <g id="line2d_2">
    <defs>
     <path id="m67e78a7be3" d="M 0 2.5 
C 0.663008 2.5 1.29895 2.236584 1.767767 1.767767 
C 2.236584 1.29895 2.5 0.663008 2.5 0 
C 2.5 -0.663008 2.236584 -1.29895 1.767767 -1.767767 
C 1.29895 -2.236584 0.663008 -2.5 0 -2.5 
C -0.663008 -2.5 -1.29895 -2.236584 -1.767767 -1.767767 
C -2.236584 -1.29895 -2.5 -0.663008 -2.5 0 
C -2.5 0.663008 -2.236584 1.29895 -1.767767 1.767767 
C -1.29895 2.236584 -0.663008 2.5 0 2.5 
z
" style="stroke: #1f77b4"/>
    </defs>
    <g clip-path="url(#pdd270bc690)">
     <use xlink:href="#m67e78a7be3" x="73.832727" y="41.472" style="fill: #1f77b4; stroke: #1f77b4"/>
     <use xlink:href="#m67e78a7be3" x="76.526956" y="54.835869" style="fill: #1f77b4; stroke: #1f77b4"/>
     <use xlink:href="#m67e78a7be3" x="79.221184" y="186.304373" style="fill: #1f77b4; stroke: #1f77b4"/>
     <use xlink:href="#m67e78a7be3" x="81.915413" y="176.126902" style="fill: #1f77b4; stroke: #1f77b4"/>
     <use xlink:href="#m67e78a7be3" x="84.609642" y="175.694148" style="fill: #1f77b4; stroke: #1f77b4"/>
     <use xlink:href="#m67e78a7be3" x="87.30387" y="173.827677" style="fill: #1f77b4; stroke: #1f77b4"/>
     <use xlink:href="#m67e78a7be3" x="89.998099" y="173.62769" style="fill: #1f77b4; stroke: #1f77b4"/>
     <use xlink:href="#m67e78a7be3" x="92.692327" y="172.197146" style="fill: #1f77b4; stroke: #1f77b4"/>
     <use xlink:href="#m67e78a7be3" x="95.386556" y="174.656978" style="fill: #1f77b4; stroke: #1f77b4"/>
     <use xlink:href="#m67e78a7be3" x="98.080785" y="173.959007" style="fill: #1f77b4; stroke: #1f77b4"/>
     <use xlink:href="#m67e78a7be3" x="100.775013" y="171.535977" style="fill: #1f77b4; stroke: #1f77b4"/>
     <use xlink:href="#m67e78a7be3" x="103.469242" y="175.293249" style="fill: #1f77b4; stroke: #1f77b4"/>
     <use xlink:href="#m67e78a7be3" x="106.16347" y="174.212006" style="fill: #1f77b4; stroke: #1f77b4"/>
     <use xlink:href="#m67e78a7be3" x="108.857699" y="170.772759" style="fill: #1f77b4; stroke: #1f77b4"/>
     <use xlink:href="#m67e78a7be3" x="111.551928" y="173.691493" style="fill: #1f77b4; stroke: #1f77b4"/>
     <use xlink:href="#m67e78a7be3" x="114.246156" y="176.3629" style="fill: #1f77b4; stroke: #1f77b4"/>
     <use xlink:href="#m67e78a7be3" x="116.940385" y="173.998624" style="fill: #1f77b4; stroke: #1f77b4"/>
     <use xlink:href="#m67e78a7be3" x="119.634613" y="174.541037" style="fill: #1f77b4; stroke: #1f77b4"/>
     <use xlink:href="#m67e78a7be3" x="122.328842" y="174.217878" style="fill: #1f77b4; stroke: #1f77b4"/>
     <use xlink:href="#m67e78a7be3" x="125.023071" y="173.594115" style="fill: #1f77b4; stroke: #1f77b4"/>
     <use xlink:href="#m67e78a7be3" x="127.717299" y="174.332842" style="fill: #1f77b4; stroke: #1f77b4"/>
     <use xlink:href="#m67e78a7be3" x="130.411528" y="176.173969" style="fill: #1f77b4; stroke: #1f77b4"/>
     <use xlink:href="#m67e78a7be3" x="133.105756" y="175.422066" style="fill: #1f77b4; stroke: #1f77b4"/>
     <use xlink:href="#m67e78a7be3" x="135.799985" y="174.951404" style="fill: #1f77b4; stroke: #1f77b4"/>
     <use xlink:href="#m67e78a7be3" x="138.494214" y="174.887003" style="fill: #1f77b4; stroke: #1f77b4"/>
     <use xlink:href="#m67e78a7be3" x="141.188442" y="174.112997" style="fill: #1f77b4; stroke: #1f77b4"/>
     <use xlink:href="#m67e78a7be3" x="143.882671" y="174.44631" style="fill: #1f77b4; stroke: #1f77b4"/>
     <use xlink:href="#m67e78a7be3" x="146.576899" y="174.463734" style="fill: #1f77b4; stroke: #1f77b4"/>
     <use xlink:href="#m67e78a7be3" x="149.271128" y="173.952433" style="fill: #1f77b4; stroke: #1f77b4"/>
     <use xlink:href="#m67e78a7be3" x="151.965356" y="176.632332" style="fill: #1f77b4; stroke: #1f77b4"/>
     <use xlink:href="#m67e78a7be3" x="154.659585" y="174.42877" style="fill: #1f77b4; stroke: #1f77b4"/>
     <use xlink:href="#m67e78a7be3" x="157.353814" y="173.099906" style="fill: #1f77b4; stroke: #1f77b4"/>
     <use xlink:href="#m67e78a7be3" x="160.048042" y="172.290703" style="fill: #1f77b4; stroke: #1f77b4"/>
     <use xlink:href="#m67e78a7be3" x="162.742271" y="172.793153" style="fill: #1f77b4; stroke: #1f77b4"/>
     <use xlink:href="#m67e78a7be3" x="165.436499" y="173.019517" style="fill: #1f77b4; stroke: #1f77b4"/>
     <use xlink:href="#m67e78a7be3" x="168.130728" y="173.252455" style="fill: #1f77b4; stroke: #1f77b4"/>
     <use xlink:href="#m67e78a7be3" x="170.824957" y="172.702705" style="fill: #1f77b4; stroke: #1f77b4"/>
     <use xlink:href="#m67e78a7be3" x="173.519185" y="172.669703" style="fill: #1f77b4; stroke: #1f77b4"/>
     <use xlink:href="#m67e78a7be3" x="176.213414" y="173.725405" style="fill: #1f77b4; stroke: #1f77b4"/>
     <use xlink:href="#m67e78a7be3" x="178.907642" y="175.446751" style="fill: #1f77b4; stroke: #1f77b4"/>
     <use xlink:href="#m67e78a7be3" x="181.601871" y="175.666811" style="fill: #1f77b4; stroke: #1f77b4"/>
     <use xlink:href="#m67e78a7be3" x="184.2961" y="177.13406" style="fill: #1f77b4; stroke: #1f77b4"/>
     <use xlink:href="#m67e78a7be3" x="186.990328" y="177.55013" style="fill: #1f77b4; stroke: #1f77b4"/>
     <use xlink:href="#m67e78a7be3" x="189.684557" y="177.646425" style="fill: #1f77b4; stroke: #1f77b4"/>
     <use xlink:href="#m67e78a7be3" x="192.378785" y="177.206666" style="fill: #1f77b4; stroke: #1f77b4"/>
     <use xlink:href="#m67e78a7be3" x="195.073014" y="175.963366" style="fill: #1f77b4; stroke: #1f77b4"/>
     <use xlink:href="#m67e78a7be3" x="197.767243" y="175.026856" style="fill: #1f77b4; stroke: #1f77b4"/>
     <use xlink:href="#m67e78a7be3" x="200.461471" y="173.964858" style="fill: #1f77b4; stroke: #1f77b4"/>
     <use xlink:href="#m67e78a7be3" x="203.1557" y="172.388754" style="fill: #1f77b4; stroke: #1f77b4"/>
     <use xlink:href="#m67e78a7be3" x="205.849928" y="171.339078" style="fill: #1f77b4; stroke: #1f77b4"/>
     <use xlink:href="#m67e78a7be3" x="208.544157" y="170.79769" style="fill: #1f77b4; stroke: #1f77b4"/>
     <use xlink:href="#m67e78a7be3" x="211.238386" y="171.115143" style="fill: #1f77b4; stroke: #1f77b4"/>
     <use xlink:href="#m67e78a7be3" x="213.932614" y="171.908372" style="fill: #1f77b4; stroke: #1f77b4"/>
     <use xlink:href="#m67e78a7be3" x="216.626843" y="172.101487" style="fill: #1f77b4; stroke: #1f77b4"/>
     <use xlink:href="#m67e78a7be3" x="219.321071" y="174.191186" style="fill: #1f77b4; stroke: #1f77b4"/>
     <use xlink:href="#m67e78a7be3" x="222.0153" y="175.251338" style="fill: #1f77b4; stroke: #1f77b4"/>
     <use xlink:href="#m67e78a7be3" x="224.709528" y="175.794525" style="fill: #1f77b4; stroke: #1f77b4"/>
     <use xlink:href="#m67e78a7be3" x="227.403757" y="176.275541" style="fill: #1f77b4; stroke: #1f77b4"/>
     <use xlink:href="#m67e78a7be3" x="230.097986" y="176.86798" style="fill: #1f77b4; stroke: #1f77b4"/>
     <use xlink:href="#m67e78a7be3" x="232.792214" y="177.11439" style="fill: #1f77b4; stroke: #1f77b4"/>
     <use xlink:href="#m67e78a7be3" x="235.486443" y="176.342466" style="fill: #1f77b4; stroke: #1f77b4"/>
     <use xlink:href="#m67e78a7be3" x="238.180671" y="175.625912" style="fill: #1f77b4; stroke: #1f77b4"/>
     <use xlink:href="#m67e78a7be3" x="240.8749" y="175.981552" style="fill: #1f77b4; stroke: #1f77b4"/>
     <use xlink:href="#m67e78a7be3" x="243.569129" y="175.851935" style="fill: #1f77b4; stroke: #1f77b4"/>
     <use xlink:href="#m67e78a7be3" x="246.263357" y="174.62985" style="fill: #1f77b4; stroke: #1f77b4"/>
     <use xlink:href="#m67e78a7be3" x="248.957586" y="173.384203" style="fill: #1f77b4; stroke: #1f77b4"/>
     <use xlink:href="#m67e78a7be3" x="251.651814" y="172.957607" style="fill: #1f77b4; stroke: #1f77b4"/>
     <use xlink:href="#m67e78a7be3" x="254.346043" y="173.932014" style="fill: #1f77b4; stroke: #1f77b4"/>
     <use xlink:href="#m67e78a7be3" x="257.040272" y="174.913226" style="fill: #1f77b4; stroke: #1f77b4"/>
     <use xlink:href="#m67e78a7be3" x="259.7345" y="175.111393" style="fill: #1f77b4; stroke: #1f77b4"/>
     <use xlink:href="#m67e78a7be3" x="262.428729" y="174.675511" style="fill: #1f77b4; stroke: #1f77b4"/>
     <use xlink:href="#m67e78a7be3" x="265.122957" y="174.356622" style="fill: #1f77b4; stroke: #1f77b4"/>
     <use xlink:href="#m67e78a7be3" x="267.817186" y="174.07628" style="fill: #1f77b4; stroke: #1f77b4"/>
     <use xlink:href="#m67e78a7be3" x="270.511415" y="174.13857" style="fill: #1f77b4; stroke: #1f77b4"/>
     <use xlink:href="#m67e78a7be3" x="273.205643" y="174.383948" style="fill: #1f77b4; stroke: #1f77b4"/>
     <use xlink:href="#m67e78a7be3" x="275.899872" y="175.006679" style="fill: #1f77b4; stroke: #1f77b4"/>
     <use xlink:href="#m67e78a7be3" x="278.5941" y="173.335846" style="fill: #1f77b4; stroke: #1f77b4"/>
     <use xlink:href="#m67e78a7be3" x="281.288329" y="174.229042" style="fill: #1f77b4; stroke: #1f77b4"/>
     <use xlink:href="#m67e78a7be3" x="283.982558" y="174.140882" style="fill: #1f77b4; stroke: #1f77b4"/>
     <use xlink:href="#m67e78a7be3" x="286.676786" y="173.665185" style="fill: #1f77b4; stroke: #1f77b4"/>
     <use xlink:href="#m67e78a7be3" x="289.371015" y="172.388847" style="fill: #1f77b4; stroke: #1f77b4"/>
     <use xlink:href="#m67e78a7be3" x="292.065243" y="173.917158" style="fill: #1f77b4; stroke: #1f77b4"/>
     <use xlink:href="#m67e78a7be3" x="294.759472" y="172.479965" style="fill: #1f77b4; stroke: #1f77b4"/>
     <use xlink:href="#m67e78a7be3" x="297.4537" y="172.798575" style="fill: #1f77b4; stroke: #1f77b4"/>
     <use xlink:href="#m67e78a7be3" x="300.147929" y="171.416549" style="fill: #1f77b4; stroke: #1f77b4"/>
     <use xlink:href="#m67e78a7be3" x="302.842158" y="172.306441" style="fill: #1f77b4; stroke: #1f77b4"/>
     <use xlink:href="#m67e78a7be3" x="305.536386" y="170.860003" style="fill: #1f77b4; stroke: #1f77b4"/>
     <use xlink:href="#m67e78a7be3" x="308.230615" y="169.977733" style="fill: #1f77b4; stroke: #1f77b4"/>
     <use xlink:href="#m67e78a7be3" x="310.924843" y="170.183765" style="fill: #1f77b4; stroke: #1f77b4"/>
     <use xlink:href="#m67e78a7be3" x="313.619072" y="165.474303" style="fill: #1f77b4; stroke: #1f77b4"/>
     <use xlink:href="#m67e78a7be3" x="316.313301" y="167.741301" style="fill: #1f77b4; stroke: #1f77b4"/>
     <use xlink:href="#m67e78a7be3" x="319.007529" y="162.977744" style="fill: #1f77b4; stroke: #1f77b4"/>
     <use xlink:href="#m67e78a7be3" x="321.701758" y="164.577029" style="fill: #1f77b4; stroke: #1f77b4"/>
     <use xlink:href="#m67e78a7be3" x="324.395986" y="165.470789" style="fill: #1f77b4; stroke: #1f77b4"/>
     <use xlink:href="#m67e78a7be3" x="327.090215" y="162.801892" style="fill: #1f77b4; stroke: #1f77b4"/>
     <use xlink:href="#m67e78a7be3" x="329.784444" y="171.347378" style="fill: #1f77b4; stroke: #1f77b4"/>
     <use xlink:href="#m67e78a7be3" x="332.478672" y="178.482306" style="fill: #1f77b4; stroke: #1f77b4"/>
     <use xlink:href="#m67e78a7be3" x="335.172901" y="191.944279" style="fill: #1f77b4; stroke: #1f77b4"/>
     <use xlink:href="#m67e78a7be3" x="337.867129" y="187.016137" style="fill: #1f77b4; stroke: #1f77b4"/>
     <use xlink:href="#m67e78a7be3" x="340.561358" y="181.197778" style="fill: #1f77b4; stroke: #1f77b4"/>
     <use xlink:href="#m67e78a7be3" x="343.255587" y="178.90085" style="fill: #1f77b4; stroke: #1f77b4"/>
     <use xlink:href="#m67e78a7be3" x="345.949815" y="179.510735" style="fill: #1f77b4; stroke: #1f77b4"/>
     <use xlink:href="#m67e78a7be3" x="348.644044" y="177.144194" style="fill: #1f77b4; stroke: #1f77b4"/>
     <use xlink:href="#m67e78a7be3" x="351.338272" y="174.974854" style="fill: #1f77b4; stroke: #1f77b4"/>
     <use xlink:href="#m67e78a7be3" x="354.032501" y="176.436611" style="fill: #1f77b4; stroke: #1f77b4"/>
     <use xlink:href="#m67e78a7be3" x="356.72673" y="174.63464" style="fill: #1f77b4; stroke: #1f77b4"/>
     <use xlink:href="#m67e78a7be3" x="359.420958" y="175.859724" style="fill: #1f77b4; stroke: #1f77b4"/>
     <use xlink:href="#m67e78a7be3" x="362.115187" y="173.578405" style="fill: #1f77b4; stroke: #1f77b4"/>
     <use xlink:href="#m67e78a7be3" x="364.809415" y="178.264809" style="fill: #1f77b4; stroke: #1f77b4"/>
     <use xlink:href="#m67e78a7be3" x="367.503644" y="175.091221" style="fill: #1f77b4; stroke: #1f77b4"/>
     <use xlink:href="#m67e78a7be3" x="370.197873" y="175.473182" style="fill: #1f77b4; stroke: #1f77b4"/>
     <use xlink:href="#m67e78a7be3" x="372.892101" y="174.950988" style="fill: #1f77b4; stroke: #1f77b4"/>
     <use xlink:href="#m67e78a7be3" x="375.58633" y="172.795446" style="fill: #1f77b4; stroke: #1f77b4"/>
     <use xlink:href="#m67e78a7be3" x="378.280558" y="175.582277" style="fill: #1f77b4; stroke: #1f77b4"/>
     <use xlink:href="#m67e78a7be3" x="380.974787" y="172.172277" style="fill: #1f77b4; stroke: #1f77b4"/>
     <use xlink:href="#m67e78a7be3" x="383.669015" y="173.748604" style="fill: #1f77b4; stroke: #1f77b4"/>
     <use xlink:href="#m67e78a7be3" x="386.363244" y="174.96767" style="fill: #1f77b4; stroke: #1f77b4"/>
     <use xlink:href="#m67e78a7be3" x="389.057473" y="176.017038" style="fill: #1f77b4; stroke: #1f77b4"/>
     <use xlink:href="#m67e78a7be3" x="391.751701" y="174.178758" style="fill: #1f77b4; stroke: #1f77b4"/>
     <use xlink:href="#m67e78a7be3" x="394.44593" y="174.052357" style="fill: #1f77b4; stroke: #1f77b4"/>
     <use xlink:href="#m67e78a7be3" x="397.140158" y="174.956711" style="fill: #1f77b4; stroke: #1f77b4"/>
    </g>
   </g>
   <g id="patch_3">
    <path d="M 57.6 307.584 
L 57.6 41.472 
" style="fill: none; stroke: #ffffff; stroke-width: 0.8; stroke-linejoin: miter; stroke-linecap: square"/>
   </g>
   <g id="patch_4">
    <path d="M 414.72 307.584 
L 414.72 41.472 
" style="fill: none; stroke: #ffffff; stroke-width: 0.8; stroke-linejoin: miter; stroke-linecap: square"/>
   </g>
   <g id="patch_5">
    <path d="M 57.6 307.584 
L 414.72 307.584 
" style="fill: none; stroke: #ffffff; stroke-width: 0.8; stroke-linejoin: miter; stroke-linecap: square"/>
   </g>
   <g id="patch_6">
    <path d="M 57.6 41.472 
L 414.72 41.472 
" style="fill: none; stroke: #ffffff; stroke-width: 0.8; stroke-linejoin: miter; stroke-linecap: square"/>
   </g>
   <g id="text_19">
    <!-- Partial Autocorrelation -->
    <g style="fill: #262626" transform="translate(177.463125 35.472) scale(0.12 -0.12)">
     <defs>
      <path id="ArialMT-50" d="M 494 0 
L 494 4581 
L 2222 4581 
Q 2678 4581 2919 4538 
Q 3256 4481 3484 4323 
Q 3713 4166 3852 3881 
Q 3991 3597 3991 3256 
Q 3991 2672 3619 2267 
Q 3247 1863 2275 1863 
L 1100 1863 
L 1100 0 
L 494 0 
z
M 1100 2403 
L 2284 2403 
Q 2872 2403 3119 2622 
Q 3366 2841 3366 3238 
Q 3366 3525 3220 3729 
Q 3075 3934 2838 4000 
Q 2684 4041 2272 4041 
L 1100 4041 
L 1100 2403 
z
" transform="scale(0.015625)"/>
     </defs>
     <use xlink:href="#ArialMT-50"/>
     <use xlink:href="#ArialMT-61" x="66.699219"/>
     <use xlink:href="#ArialMT-72" x="122.314453"/>
     <use xlink:href="#ArialMT-74" x="155.615234"/>
     <use xlink:href="#ArialMT-69" x="183.398438"/>
     <use xlink:href="#ArialMT-61" x="205.615234"/>
     <use xlink:href="#ArialMT-6c" x="261.230469"/>
     <use xlink:href="#ArialMT-20" x="283.447266"/>
     <use xlink:href="#ArialMT-41" x="305.730469"/>
     <use xlink:href="#ArialMT-75" x="372.429688"/>
     <use xlink:href="#ArialMT-74" x="428.044922"/>
     <use xlink:href="#ArialMT-6f" x="455.828125"/>
     <use xlink:href="#ArialMT-63" x="511.443359"/>
     <use xlink:href="#ArialMT-6f" x="561.443359"/>
     <use xlink:href="#ArialMT-72" x="617.058594"/>
     <use xlink:href="#ArialMT-72" x="650.359375"/>
     <use xlink:href="#ArialMT-65" x="683.660156"/>
     <use xlink:href="#ArialMT-6c" x="739.275391"/>
     <use xlink:href="#ArialMT-61" x="761.492188"/>
     <use xlink:href="#ArialMT-74" x="817.107422"/>
     <use xlink:href="#ArialMT-69" x="844.890625"/>
     <use xlink:href="#ArialMT-6f" x="867.107422"/>
     <use xlink:href="#ArialMT-6e" x="922.722656"/>
    </g>
   </g>
  </g>
 </g>
 <defs>
  <clipPath id="pdd270bc690">
   <rect x="57.6" y="41.472" width="357.12" height="266.112"/>
  </clipPath>
 </defs>
</svg>
