<?xml version="1.0" encoding="utf-8" standalone="no"?>
<!DOCTYPE svg PUBLIC "-//W3C//DTD SVG 1.1//EN"
  "http://www.w3.org/Graphics/SVG/1.1/DTD/svg11.dtd">
<svg xmlns:xlink="http://www.w3.org/1999/xlink" width="460.8pt" height="345.6pt" viewBox="0 0 460.8 345.6" xmlns="http://www.w3.org/2000/svg" version="1.1">
 <metadata>
  <rdf:RDF xmlns:dc="http://purl.org/dc/elements/1.1/" xmlns:cc="http://creativecommons.org/ns#" xmlns:rdf="http://www.w3.org/1999/02/22-rdf-syntax-ns#">
   <cc:Work>
    <dc:type rdf:resource="http://purl.org/dc/dcmitype/StillImage"/>
    <dc:date>2023-06-29T17:38:42.996207</dc:date>
    <dc:format>image/svg+xml</dc:format>
    <dc:creator>
     <cc:Agent>
      <dc:title>Matplotlib v3.7.1, https://matplotlib.org/</dc:title>
     </cc:Agent>
    </dc:creator>
   </cc:Work>
  </rdf:RDF>
 </metadata>
 <defs>
  <style type="text/css">*{stroke-linejoin: round; stroke-linecap: butt}</style>
 </defs>
 <g id="figure_1">
  <g id="patch_1">
   <path d="M 0 345.6 
L 460.8 345.6 
L 460.8 0 
L 0 0 
z
" style="fill: #ffffff"/>
  </g>
  <g id="axes_1">
   <g id="patch_2">
    <path d="M 57.6 307.584 
L 414.72 307.584 
L 414.72 41.472 
L 57.6 41.472 
z
" style="fill: #eaeaf2"/>
   </g>
   <g id="matplotlib.axis_1">
    <g id="xtick_1">
     <g id="text_1">
      <!-- 0 -->
      <g style="fill: #262626" transform="translate(70.496165 323.173375) scale(0.12 -0.12)">
       <defs>
        <path id="ArialMT-30" d="M 266 2259 
Q 266 3072 433 3567 
Q 600 4063 929 4331 
Q 1259 4600 1759 4600 
Q 2128 4600 2406 4451 
Q 2684 4303 2865 4023 
Q 3047 3744 3150 3342 
Q 3253 2941 3253 2259 
Q 3253 1453 3087 958 
Q 2922 463 2592 192 
Q 2263 -78 1759 -78 
Q 1097 -78 719 397 
Q 266 969 266 2259 
z
M 844 2259 
Q 844 1131 1108 757 
Q 1372 384 1759 384 
Q 2147 384 2411 759 
Q 2675 1134 2675 2259 
Q 2675 3391 2411 3762 
Q 2147 4134 1753 4134 
Q 1366 4134 1134 3806 
Q 844 3388 844 2259 
z
" transform="scale(0.015625)"/>
       </defs>
       <use xlink:href="#ArialMT-30"/>
      </g>
     </g>
    </g>
    <g id="xtick_2">
     <g id="text_2">
      <!-- 20 -->
      <g style="fill: #262626" transform="translate(121.044174 323.173375) scale(0.12 -0.12)">
       <defs>
        <path id="ArialMT-32" d="M 3222 541 
L 3222 0 
L 194 0 
Q 188 203 259 391 
Q 375 700 629 1000 
Q 884 1300 1366 1694 
Q 2113 2306 2375 2664 
Q 2638 3022 2638 3341 
Q 2638 3675 2398 3904 
Q 2159 4134 1775 4134 
Q 1369 4134 1125 3890 
Q 881 3647 878 3216 
L 300 3275 
Q 359 3922 746 4261 
Q 1134 4600 1788 4600 
Q 2447 4600 2831 4234 
Q 3216 3869 3216 3328 
Q 3216 3053 3103 2787 
Q 2991 2522 2730 2228 
Q 2469 1934 1863 1422 
Q 1356 997 1212 845 
Q 1069 694 975 541 
L 3222 541 
z
" transform="scale(0.015625)"/>
       </defs>
       <use xlink:href="#ArialMT-32"/>
       <use xlink:href="#ArialMT-30" x="55.615234"/>
      </g>
     </g>
    </g>
    <g id="xtick_3">
     <g id="text_3">
      <!-- 40 -->
      <g style="fill: #262626" transform="translate(174.928746 323.173375) scale(0.12 -0.12)">
       <defs>
        <path id="ArialMT-34" d="M 2069 0 
L 2069 1097 
L 81 1097 
L 81 1613 
L 2172 4581 
L 2631 4581 
L 2631 1613 
L 3250 1613 
L 3250 1097 
L 2631 1097 
L 2631 0 
L 2069 0 
z
M 2069 1613 
L 2069 3678 
L 634 1613 
L 2069 1613 
z
" transform="scale(0.015625)"/>
       </defs>
       <use xlink:href="#ArialMT-34"/>
       <use xlink:href="#ArialMT-30" x="55.615234"/>
      </g>
     </g>
    </g>
    <g id="xtick_4">
     <g id="text_4">
      <!-- 60 -->
      <g style="fill: #262626" transform="translate(228.813318 323.173375) scale(0.12 -0.12)">
       <defs>
        <path id="ArialMT-36" d="M 3184 3459 
L 2625 3416 
Q 2550 3747 2413 3897 
Q 2184 4138 1850 4138 
Q 1581 4138 1378 3988 
Q 1113 3794 959 3422 
Q 806 3050 800 2363 
Q 1003 2672 1297 2822 
Q 1591 2972 1913 2972 
Q 2475 2972 2870 2558 
Q 3266 2144 3266 1488 
Q 3266 1056 3080 686 
Q 2894 316 2569 119 
Q 2244 -78 1831 -78 
Q 1128 -78 684 439 
Q 241 956 241 2144 
Q 241 3472 731 4075 
Q 1159 4600 1884 4600 
Q 2425 4600 2770 4297 
Q 3116 3994 3184 3459 
z
M 888 1484 
Q 888 1194 1011 928 
Q 1134 663 1356 523 
Q 1578 384 1822 384 
Q 2178 384 2434 671 
Q 2691 959 2691 1453 
Q 2691 1928 2437 2201 
Q 2184 2475 1800 2475 
Q 1419 2475 1153 2201 
Q 888 1928 888 1484 
z
" transform="scale(0.015625)"/>
       </defs>
       <use xlink:href="#ArialMT-36"/>
       <use xlink:href="#ArialMT-30" x="55.615234"/>
      </g>
     </g>
    </g>
    <g id="xtick_5">
     <g id="text_5">
      <!-- 80 -->
      <g style="fill: #262626" transform="translate(282.69789 323.173375) scale(0.12 -0.12)">
       <defs>
        <path id="ArialMT-38" d="M 1131 2484 
Q 781 2613 612 2850 
Q 444 3088 444 3419 
Q 444 3919 803 4259 
Q 1163 4600 1759 4600 
Q 2359 4600 2725 4251 
Q 3091 3903 3091 3403 
Q 3091 3084 2923 2848 
Q 2756 2613 2416 2484 
Q 2838 2347 3058 2040 
Q 3278 1734 3278 1309 
Q 3278 722 2862 322 
Q 2447 -78 1769 -78 
Q 1091 -78 675 323 
Q 259 725 259 1325 
Q 259 1772 486 2073 
Q 713 2375 1131 2484 
z
M 1019 3438 
Q 1019 3113 1228 2906 
Q 1438 2700 1772 2700 
Q 2097 2700 2305 2904 
Q 2513 3109 2513 3406 
Q 2513 3716 2298 3927 
Q 2084 4138 1766 4138 
Q 1444 4138 1231 3931 
Q 1019 3725 1019 3438 
z
M 838 1322 
Q 838 1081 952 856 
Q 1066 631 1291 507 
Q 1516 384 1775 384 
Q 2178 384 2440 643 
Q 2703 903 2703 1303 
Q 2703 1709 2433 1975 
Q 2163 2241 1756 2241 
Q 1359 2241 1098 1978 
Q 838 1716 838 1322 
z
" transform="scale(0.015625)"/>
       </defs>
       <use xlink:href="#ArialMT-38"/>
       <use xlink:href="#ArialMT-30" x="55.615234"/>
      </g>
     </g>
    </g>
    <g id="xtick_6">
     <g id="text_6">
      <!-- 100 -->
      <g style="fill: #262626" transform="translate(333.245899 323.173375) scale(0.12 -0.12)">
       <defs>
        <path id="ArialMT-31" d="M 2384 0 
L 1822 0 
L 1822 3584 
Q 1619 3391 1289 3197 
Q 959 3003 697 2906 
L 697 3450 
Q 1169 3672 1522 3987 
Q 1875 4303 2022 4600 
L 2384 4600 
L 2384 0 
z
" transform="scale(0.015625)"/>
       </defs>
       <use xlink:href="#ArialMT-31"/>
       <use xlink:href="#ArialMT-30" x="55.615234"/>
       <use xlink:href="#ArialMT-30" x="111.230469"/>
      </g>
     </g>
    </g>
    <g id="xtick_7">
     <g id="text_7">
      <!-- 120 -->
      <g style="fill: #262626" transform="translate(387.130471 323.173375) scale(0.12 -0.12)">
       <use xlink:href="#ArialMT-31"/>
       <use xlink:href="#ArialMT-32" x="55.615234"/>
       <use xlink:href="#ArialMT-30" x="111.230469"/>
      </g>
     </g>
    </g>
    <g id="text_8">
     <!-- Time lags (k) -->
     <g style="fill: #262626" transform="translate(184.495781 342.661812) scale(0.18 -0.18)">
      <defs>
       <path id="ArialMT-54" d="M 1659 0 
L 1659 4041 
L 150 4041 
L 150 4581 
L 3781 4581 
L 3781 4041 
L 2266 4041 
L 2266 0 
L 1659 0 
z
" transform="scale(0.015625)"/>
       <path id="ArialMT-69" d="M 425 3934 
L 425 4581 
L 988 4581 
L 988 3934 
L 425 3934 
z
M 425 0 
L 425 3319 
L 988 3319 
L 988 0 
L 425 0 
z
" transform="scale(0.015625)"/>
       <path id="ArialMT-6d" d="M 422 0 
L 422 3319 
L 925 3319 
L 925 2853 
Q 1081 3097 1340 3245 
Q 1600 3394 1931 3394 
Q 2300 3394 2536 3241 
Q 2772 3088 2869 2813 
Q 3263 3394 3894 3394 
Q 4388 3394 4653 3120 
Q 4919 2847 4919 2278 
L 4919 0 
L 4359 0 
L 4359 2091 
Q 4359 2428 4304 2576 
Q 4250 2725 4106 2815 
Q 3963 2906 3769 2906 
Q 3419 2906 3187 2673 
Q 2956 2441 2956 1928 
L 2956 0 
L 2394 0 
L 2394 2156 
Q 2394 2531 2256 2718 
Q 2119 2906 1806 2906 
Q 1569 2906 1367 2781 
Q 1166 2656 1075 2415 
Q 984 2175 984 1722 
L 984 0 
L 422 0 
z
" transform="scale(0.015625)"/>
       <path id="ArialMT-65" d="M 2694 1069 
L 3275 997 
Q 3138 488 2766 206 
Q 2394 -75 1816 -75 
Q 1088 -75 661 373 
Q 234 822 234 1631 
Q 234 2469 665 2931 
Q 1097 3394 1784 3394 
Q 2450 3394 2872 2941 
Q 3294 2488 3294 1666 
Q 3294 1616 3291 1516 
L 816 1516 
Q 847 969 1125 678 
Q 1403 388 1819 388 
Q 2128 388 2347 550 
Q 2566 713 2694 1069 
z
M 847 1978 
L 2700 1978 
Q 2663 2397 2488 2606 
Q 2219 2931 1791 2931 
Q 1403 2931 1139 2672 
Q 875 2413 847 1978 
z
" transform="scale(0.015625)"/>
       <path id="ArialMT-20" transform="scale(0.015625)"/>
       <path id="ArialMT-6c" d="M 409 0 
L 409 4581 
L 972 4581 
L 972 0 
L 409 0 
z
" transform="scale(0.015625)"/>
       <path id="ArialMT-61" d="M 2588 409 
Q 2275 144 1986 34 
Q 1697 -75 1366 -75 
Q 819 -75 525 192 
Q 231 459 231 875 
Q 231 1119 342 1320 
Q 453 1522 633 1644 
Q 813 1766 1038 1828 
Q 1203 1872 1538 1913 
Q 2219 1994 2541 2106 
Q 2544 2222 2544 2253 
Q 2544 2597 2384 2738 
Q 2169 2928 1744 2928 
Q 1347 2928 1158 2789 
Q 969 2650 878 2297 
L 328 2372 
Q 403 2725 575 2942 
Q 747 3159 1072 3276 
Q 1397 3394 1825 3394 
Q 2250 3394 2515 3294 
Q 2781 3194 2906 3042 
Q 3031 2891 3081 2659 
Q 3109 2516 3109 2141 
L 3109 1391 
Q 3109 606 3145 398 
Q 3181 191 3288 0 
L 2700 0 
Q 2613 175 2588 409 
z
M 2541 1666 
Q 2234 1541 1622 1453 
Q 1275 1403 1131 1340 
Q 988 1278 909 1158 
Q 831 1038 831 891 
Q 831 666 1001 516 
Q 1172 366 1500 366 
Q 1825 366 2078 508 
Q 2331 650 2450 897 
Q 2541 1088 2541 1459 
L 2541 1666 
z
" transform="scale(0.015625)"/>
       <path id="ArialMT-67" d="M 319 -275 
L 866 -356 
Q 900 -609 1056 -725 
Q 1266 -881 1628 -881 
Q 2019 -881 2231 -725 
Q 2444 -569 2519 -288 
Q 2563 -116 2559 434 
Q 2191 0 1641 0 
Q 956 0 581 494 
Q 206 988 206 1678 
Q 206 2153 378 2554 
Q 550 2956 876 3175 
Q 1203 3394 1644 3394 
Q 2231 3394 2613 2919 
L 2613 3319 
L 3131 3319 
L 3131 450 
Q 3131 -325 2973 -648 
Q 2816 -972 2473 -1159 
Q 2131 -1347 1631 -1347 
Q 1038 -1347 672 -1080 
Q 306 -813 319 -275 
z
M 784 1719 
Q 784 1066 1043 766 
Q 1303 466 1694 466 
Q 2081 466 2343 764 
Q 2606 1063 2606 1700 
Q 2606 2309 2336 2618 
Q 2066 2928 1684 2928 
Q 1309 2928 1046 2623 
Q 784 2319 784 1719 
z
" transform="scale(0.015625)"/>
       <path id="ArialMT-73" d="M 197 991 
L 753 1078 
Q 800 744 1014 566 
Q 1228 388 1613 388 
Q 2000 388 2187 545 
Q 2375 703 2375 916 
Q 2375 1106 2209 1216 
Q 2094 1291 1634 1406 
Q 1016 1563 777 1677 
Q 538 1791 414 1992 
Q 291 2194 291 2438 
Q 291 2659 392 2848 
Q 494 3038 669 3163 
Q 800 3259 1026 3326 
Q 1253 3394 1513 3394 
Q 1903 3394 2198 3281 
Q 2494 3169 2634 2976 
Q 2775 2784 2828 2463 
L 2278 2388 
Q 2241 2644 2061 2787 
Q 1881 2931 1553 2931 
Q 1166 2931 1000 2803 
Q 834 2675 834 2503 
Q 834 2394 903 2306 
Q 972 2216 1119 2156 
Q 1203 2125 1616 2013 
Q 2213 1853 2448 1751 
Q 2684 1650 2818 1456 
Q 2953 1263 2953 975 
Q 2953 694 2789 445 
Q 2625 197 2315 61 
Q 2006 -75 1616 -75 
Q 969 -75 630 194 
Q 291 463 197 991 
z
" transform="scale(0.015625)"/>
       <path id="ArialMT-28" d="M 1497 -1347 
Q 1031 -759 709 28 
Q 388 816 388 1659 
Q 388 2403 628 3084 
Q 909 3875 1497 4659 
L 1900 4659 
Q 1522 4009 1400 3731 
Q 1209 3300 1100 2831 
Q 966 2247 966 1656 
Q 966 153 1900 -1347 
L 1497 -1347 
z
" transform="scale(0.015625)"/>
       <path id="ArialMT-6b" d="M 425 0 
L 425 4581 
L 988 4581 
L 988 1969 
L 2319 3319 
L 3047 3319 
L 1778 2088 
L 3175 0 
L 2481 0 
L 1384 1697 
L 988 1316 
L 988 0 
L 425 0 
z
" transform="scale(0.015625)"/>
       <path id="ArialMT-29" d="M 791 -1347 
L 388 -1347 
Q 1322 153 1322 1656 
Q 1322 2244 1188 2822 
Q 1081 3291 891 3722 
Q 769 4003 388 4659 
L 791 4659 
Q 1378 3875 1659 3084 
Q 1900 2403 1900 1659 
Q 1900 816 1576 28 
Q 1253 -759 791 -1347 
z
" transform="scale(0.015625)"/>
      </defs>
      <use xlink:href="#ArialMT-54"/>
      <use xlink:href="#ArialMT-69" x="57.333984"/>
      <use xlink:href="#ArialMT-6d" x="79.550781"/>
      <use xlink:href="#ArialMT-65" x="162.851562"/>
      <use xlink:href="#ArialMT-20" x="218.466797"/>
      <use xlink:href="#ArialMT-6c" x="246.25"/>
      <use xlink:href="#ArialMT-61" x="268.466797"/>
      <use xlink:href="#ArialMT-67" x="324.082031"/>
      <use xlink:href="#ArialMT-73" x="379.697266"/>
      <use xlink:href="#ArialMT-20" x="429.697266"/>
      <use xlink:href="#ArialMT-28" x="457.480469"/>
      <use xlink:href="#ArialMT-6b" x="490.78125"/>
      <use xlink:href="#ArialMT-29" x="540.78125"/>
     </g>
    </g>
   </g>
   <g id="matplotlib.axis_2">
    <g id="ytick_1">
     <g id="text_9">
      <!-- −1.00 -->
      <g style="fill: #262626" transform="translate(20.238125 311.878687) scale(0.12 -0.12)">
       <defs>
        <path id="ArialMT-2212" d="M 3381 1997 
L 356 1997 
L 356 2522 
L 3381 2522 
L 3381 1997 
z
" transform="scale(0.015625)"/>
        <path id="ArialMT-2e" d="M 581 0 
L 581 641 
L 1222 641 
L 1222 0 
L 581 0 
z
" transform="scale(0.015625)"/>
       </defs>
       <use xlink:href="#ArialMT-2212"/>
       <use xlink:href="#ArialMT-31" x="58.398438"/>
       <use xlink:href="#ArialMT-2e" x="114.013672"/>
       <use xlink:href="#ArialMT-30" x="141.796875"/>
       <use xlink:href="#ArialMT-30" x="197.412109"/>
      </g>
     </g>
    </g>
    <g id="ytick_2">
     <g id="text_10">
      <!-- −0.75 -->
      <g style="fill: #262626" transform="translate(20.238125 278.614687) scale(0.12 -0.12)">
       <defs>
        <path id="ArialMT-37" d="M 303 3981 
L 303 4522 
L 3269 4522 
L 3269 4084 
Q 2831 3619 2401 2847 
Q 1972 2075 1738 1259 
Q 1569 684 1522 0 
L 944 0 
Q 953 541 1156 1306 
Q 1359 2072 1739 2783 
Q 2119 3494 2547 3981 
L 303 3981 
z
" transform="scale(0.015625)"/>
        <path id="ArialMT-35" d="M 266 1200 
L 856 1250 
Q 922 819 1161 601 
Q 1400 384 1738 384 
Q 2144 384 2425 690 
Q 2706 997 2706 1503 
Q 2706 1984 2436 2262 
Q 2166 2541 1728 2541 
Q 1456 2541 1237 2417 
Q 1019 2294 894 2097 
L 366 2166 
L 809 4519 
L 3088 4519 
L 3088 3981 
L 1259 3981 
L 1013 2750 
Q 1425 3038 1878 3038 
Q 2478 3038 2890 2622 
Q 3303 2206 3303 1553 
Q 3303 931 2941 478 
Q 2500 -78 1738 -78 
Q 1113 -78 717 272 
Q 322 622 266 1200 
z
" transform="scale(0.015625)"/>
       </defs>
       <use xlink:href="#ArialMT-2212"/>
       <use xlink:href="#ArialMT-30" x="58.398438"/>
       <use xlink:href="#ArialMT-2e" x="114.013672"/>
       <use xlink:href="#ArialMT-37" x="141.796875"/>
       <use xlink:href="#ArialMT-35" x="197.412109"/>
      </g>
     </g>
    </g>
    <g id="ytick_3">
     <g id="text_11">
      <!-- −0.50 -->
      <g style="fill: #262626" transform="translate(20.238125 245.350687) scale(0.12 -0.12)">
       <use xlink:href="#ArialMT-2212"/>
       <use xlink:href="#ArialMT-30" x="58.398438"/>
       <use xlink:href="#ArialMT-2e" x="114.013672"/>
       <use xlink:href="#ArialMT-35" x="141.796875"/>
       <use xlink:href="#ArialMT-30" x="197.412109"/>
      </g>
     </g>
    </g>
    <g id="ytick_4">
     <g id="text_12">
      <!-- −0.25 -->
      <g style="fill: #262626" transform="translate(20.238125 212.086687) scale(0.12 -0.12)">
       <use xlink:href="#ArialMT-2212"/>
       <use xlink:href="#ArialMT-30" x="58.398438"/>
       <use xlink:href="#ArialMT-2e" x="114.013672"/>
       <use xlink:href="#ArialMT-32" x="141.796875"/>
       <use xlink:href="#ArialMT-35" x="197.412109"/>
      </g>
     </g>
    </g>
    <g id="ytick_5">
     <g id="text_13">
      <!-- 0.00 -->
      <g style="fill: #262626" transform="translate(27.246875 178.822688) scale(0.12 -0.12)">
       <use xlink:href="#ArialMT-30"/>
       <use xlink:href="#ArialMT-2e" x="55.615234"/>
       <use xlink:href="#ArialMT-30" x="83.398438"/>
       <use xlink:href="#ArialMT-30" x="139.013672"/>
      </g>
     </g>
    </g>
    <g id="ytick_6">
     <g id="text_14">
      <!-- 0.25 -->
      <g style="fill: #262626" transform="translate(27.246875 145.558688) scale(0.12 -0.12)">
       <use xlink:href="#ArialMT-30"/>
       <use xlink:href="#ArialMT-2e" x="55.615234"/>
       <use xlink:href="#ArialMT-32" x="83.398438"/>
       <use xlink:href="#ArialMT-35" x="139.013672"/>
      </g>
     </g>
    </g>
    <g id="ytick_7">
     <g id="text_15">
      <!-- 0.50 -->
      <g style="fill: #262626" transform="translate(27.246875 112.294688) scale(0.12 -0.12)">
       <use xlink:href="#ArialMT-30"/>
       <use xlink:href="#ArialMT-2e" x="55.615234"/>
       <use xlink:href="#ArialMT-35" x="83.398438"/>
       <use xlink:href="#ArialMT-30" x="139.013672"/>
      </g>
     </g>
    </g>
    <g id="ytick_8">
     <g id="text_16">
      <!-- 0.75 -->
      <g style="fill: #262626" transform="translate(27.246875 79.030687) scale(0.12 -0.12)">
       <use xlink:href="#ArialMT-30"/>
       <use xlink:href="#ArialMT-2e" x="55.615234"/>
       <use xlink:href="#ArialMT-37" x="83.398438"/>
       <use xlink:href="#ArialMT-35" x="139.013672"/>
      </g>
     </g>
    </g>
    <g id="ytick_9">
     <g id="text_17">
      <!-- 1.00 -->
      <g style="fill: #262626" transform="translate(27.246875 45.766688) scale(0.12 -0.12)">
       <use xlink:href="#ArialMT-31"/>
       <use xlink:href="#ArialMT-2e" x="55.615234"/>
       <use xlink:href="#ArialMT-30" x="83.398438"/>
       <use xlink:href="#ArialMT-30" x="139.013672"/>
      </g>
     </g>
    </g>
    <g id="text_18">
     <!-- Autocorrelation -->
     <g style="fill: #262626" transform="translate(12.660625 235.058625) rotate(-90) scale(0.18 -0.18)">
      <defs>
       <path id="ArialMT-41" d="M -9 0 
L 1750 4581 
L 2403 4581 
L 4278 0 
L 3588 0 
L 3053 1388 
L 1138 1388 
L 634 0 
L -9 0 
z
M 1313 1881 
L 2866 1881 
L 2388 3150 
Q 2169 3728 2063 4100 
Q 1975 3659 1816 3225 
L 1313 1881 
z
" transform="scale(0.015625)"/>
       <path id="ArialMT-75" d="M 2597 0 
L 2597 488 
Q 2209 -75 1544 -75 
Q 1250 -75 995 37 
Q 741 150 617 320 
Q 494 491 444 738 
Q 409 903 409 1263 
L 409 3319 
L 972 3319 
L 972 1478 
Q 972 1038 1006 884 
Q 1059 663 1231 536 
Q 1403 409 1656 409 
Q 1909 409 2131 539 
Q 2353 669 2445 892 
Q 2538 1116 2538 1541 
L 2538 3319 
L 3100 3319 
L 3100 0 
L 2597 0 
z
" transform="scale(0.015625)"/>
       <path id="ArialMT-74" d="M 1650 503 
L 1731 6 
Q 1494 -44 1306 -44 
Q 1000 -44 831 53 
Q 663 150 594 308 
Q 525 466 525 972 
L 525 2881 
L 113 2881 
L 113 3319 
L 525 3319 
L 525 4141 
L 1084 4478 
L 1084 3319 
L 1650 3319 
L 1650 2881 
L 1084 2881 
L 1084 941 
Q 1084 700 1114 631 
Q 1144 563 1211 522 
Q 1278 481 1403 481 
Q 1497 481 1650 503 
z
" transform="scale(0.015625)"/>
       <path id="ArialMT-6f" d="M 213 1659 
Q 213 2581 725 3025 
Q 1153 3394 1769 3394 
Q 2453 3394 2887 2945 
Q 3322 2497 3322 1706 
Q 3322 1066 3130 698 
Q 2938 331 2570 128 
Q 2203 -75 1769 -75 
Q 1072 -75 642 372 
Q 213 819 213 1659 
z
M 791 1659 
Q 791 1022 1069 705 
Q 1347 388 1769 388 
Q 2188 388 2466 706 
Q 2744 1025 2744 1678 
Q 2744 2294 2464 2611 
Q 2184 2928 1769 2928 
Q 1347 2928 1069 2612 
Q 791 2297 791 1659 
z
" transform="scale(0.015625)"/>
       <path id="ArialMT-63" d="M 2588 1216 
L 3141 1144 
Q 3050 572 2676 248 
Q 2303 -75 1759 -75 
Q 1078 -75 664 370 
Q 250 816 250 1647 
Q 250 2184 428 2587 
Q 606 2991 970 3192 
Q 1334 3394 1763 3394 
Q 2303 3394 2647 3120 
Q 2991 2847 3088 2344 
L 2541 2259 
Q 2463 2594 2264 2762 
Q 2066 2931 1784 2931 
Q 1359 2931 1093 2626 
Q 828 2322 828 1663 
Q 828 994 1084 691 
Q 1341 388 1753 388 
Q 2084 388 2306 591 
Q 2528 794 2588 1216 
z
" transform="scale(0.015625)"/>
       <path id="ArialMT-72" d="M 416 0 
L 416 3319 
L 922 3319 
L 922 2816 
Q 1116 3169 1280 3281 
Q 1444 3394 1641 3394 
Q 1925 3394 2219 3213 
L 2025 2691 
Q 1819 2813 1613 2813 
Q 1428 2813 1281 2702 
Q 1134 2591 1072 2394 
Q 978 2094 978 1738 
L 978 0 
L 416 0 
z
" transform="scale(0.015625)"/>
       <path id="ArialMT-6e" d="M 422 0 
L 422 3319 
L 928 3319 
L 928 2847 
Q 1294 3394 1984 3394 
Q 2284 3394 2536 3286 
Q 2788 3178 2913 3003 
Q 3038 2828 3088 2588 
Q 3119 2431 3119 2041 
L 3119 0 
L 2556 0 
L 2556 2019 
Q 2556 2363 2490 2533 
Q 2425 2703 2258 2804 
Q 2091 2906 1866 2906 
Q 1506 2906 1245 2678 
Q 984 2450 984 1813 
L 984 0 
L 422 0 
z
" transform="scale(0.015625)"/>
      </defs>
      <use xlink:href="#ArialMT-41"/>
      <use xlink:href="#ArialMT-75" x="66.699219"/>
      <use xlink:href="#ArialMT-74" x="122.314453"/>
      <use xlink:href="#ArialMT-6f" x="150.097656"/>
      <use xlink:href="#ArialMT-63" x="205.712891"/>
      <use xlink:href="#ArialMT-6f" x="255.712891"/>
      <use xlink:href="#ArialMT-72" x="311.328125"/>
      <use xlink:href="#ArialMT-72" x="344.628906"/>
      <use xlink:href="#ArialMT-65" x="377.929688"/>
      <use xlink:href="#ArialMT-6c" x="433.544922"/>
      <use xlink:href="#ArialMT-61" x="455.761719"/>
      <use xlink:href="#ArialMT-74" x="511.376953"/>
      <use xlink:href="#ArialMT-69" x="539.160156"/>
      <use xlink:href="#ArialMT-6f" x="561.376953"/>
      <use xlink:href="#ArialMT-6e" x="616.992188"/>
     </g>
    </g>
   </g>
   <g id="PolyCollection_1">
    <defs>
     <path id="m9be66daf29" d="M 75.179842 -172.463254 
L 75.179842 -169.680746 
L 79.221184 -168.678739 
L 81.915413 -168.010569 
L 84.609642 -167.487426 
L 87.30387 -167.052453 
L 89.998099 -166.678599 
L 92.692327 -166.350523 
L 95.386556 -166.058487 
L 98.080785 -165.795791 
L 100.775013 -165.557572 
L 103.469242 -165.34009 
L 106.16347 -165.140337 
L 108.857699 -164.956044 
L 111.551928 -164.785383 
L 114.246156 -164.626758 
L 116.940385 -164.478674 
L 119.634613 -164.339848 
L 122.328842 -164.209352 
L 125.023071 -164.086508 
L 127.717299 -163.970756 
L 130.411528 -163.861629 
L 133.105756 -163.758683 
L 135.799985 -163.661428 
L 138.494214 -163.569415 
L 141.188442 -163.48219 
L 143.882671 -163.399334 
L 146.576899 -163.320465 
L 149.271128 -163.245295 
L 151.965356 -163.173593 
L 154.659585 -163.105139 
L 157.353814 -163.039735 
L 160.048042 -162.977161 
L 162.742271 -162.917212 
L 165.436499 -162.859724 
L 168.130728 -162.804521 
L 170.824957 -162.751441 
L 173.519185 -162.700345 
L 176.213414 -162.651136 
L 178.907642 -162.603704 
L 181.601871 -162.557936 
L 184.2961 -162.513724 
L 186.990328 -162.471001 
L 189.684557 -162.42971 
L 192.378785 -162.38981 
L 195.073014 -162.351257 
L 197.767243 -162.313988 
L 200.461471 -162.277925 
L 203.1557 -162.243015 
L 205.849928 -162.2092 
L 208.544157 -162.176404 
L 211.238386 -162.144554 
L 213.932614 -162.11356 
L 216.626843 -162.083317 
L 219.321071 -162.053746 
L 222.0153 -162.024794 
L 224.709528 -161.996413 
L 227.403757 -161.968562 
L 230.097986 -161.941214 
L 232.792214 -161.914354 
L 235.486443 -161.887967 
L 238.180671 -161.862027 
L 240.8749 -161.836505 
L 243.569129 -161.811367 
L 246.263357 -161.786578 
L 248.957586 -161.762086 
L 251.651814 -161.737842 
L 254.346043 -161.713819 
L 257.040272 -161.689979 
L 259.7345 -161.666261 
L 262.428729 -161.64261 
L 265.122957 -161.618961 
L 267.817186 -161.595258 
L 270.511415 -161.571467 
L 273.205643 -161.547591 
L 275.899872 -161.523655 
L 278.5941 -161.499687 
L 281.288329 -161.475726 
L 283.982558 -161.45182 
L 286.676786 -161.428026 
L 289.371015 -161.404392 
L 292.065243 -161.380977 
L 294.759472 -161.357848 
L 297.4537 -161.335029 
L 300.147929 -161.312534 
L 302.842158 -161.290383 
L 305.536386 -161.268578 
L 308.230615 -161.247096 
L 310.924843 -161.225913 
L 313.619072 -161.204995 
L 316.313301 -161.184307 
L 319.007529 -161.163806 
L 321.701758 -161.143464 
L 324.395986 -161.12327 
L 327.090215 -161.103234 
L 329.784444 -161.083355 
L 332.478672 -161.063658 
L 335.172901 -161.044173 
L 337.867129 -161.024943 
L 340.561358 -161.005998 
L 343.255587 -160.987351 
L 345.949815 -160.969015 
L 348.644044 -160.951013 
L 351.338272 -160.933365 
L 354.032501 -160.91609 
L 356.72673 -160.899213 
L 359.420958 -160.882765 
L 362.115187 -160.866772 
L 364.809415 -160.851245 
L 367.503644 -160.836189 
L 370.197873 -160.821615 
L 372.892101 -160.807534 
L 375.58633 -160.793941 
L 378.280558 -160.780847 
L 380.974787 -160.768267 
L 383.669015 -160.756195 
L 386.363244 -160.744631 
L 389.057473 -160.733573 
L 391.751701 -160.723016 
L 394.44593 -160.712956 
L 398.487273 -160.703385 
L 398.487273 -181.440615 
L 398.487273 -181.440615 
L 394.44593 -181.431044 
L 391.751701 -181.420984 
L 389.057473 -181.410427 
L 386.363244 -181.399369 
L 383.669015 -181.387805 
L 380.974787 -181.375733 
L 378.280558 -181.363153 
L 375.58633 -181.350059 
L 372.892101 -181.336466 
L 370.197873 -181.322385 
L 367.503644 -181.307811 
L 364.809415 -181.292755 
L 362.115187 -181.277228 
L 359.420958 -181.261235 
L 356.72673 -181.244787 
L 354.032501 -181.22791 
L 351.338272 -181.210635 
L 348.644044 -181.192987 
L 345.949815 -181.174985 
L 343.255587 -181.156649 
L 340.561358 -181.138002 
L 337.867129 -181.119057 
L 335.172901 -181.099827 
L 332.478672 -181.080342 
L 329.784444 -181.060645 
L 327.090215 -181.040766 
L 324.395986 -181.02073 
L 321.701758 -181.000536 
L 319.007529 -180.980194 
L 316.313301 -180.959693 
L 313.619072 -180.939005 
L 310.924843 -180.918087 
L 308.230615 -180.896904 
L 305.536386 -180.875422 
L 302.842158 -180.853617 
L 300.147929 -180.831466 
L 297.4537 -180.808971 
L 294.759472 -180.786152 
L 292.065243 -180.763023 
L 289.371015 -180.739608 
L 286.676786 -180.715974 
L 283.982558 -180.69218 
L 281.288329 -180.668274 
L 278.5941 -180.644313 
L 275.899872 -180.620345 
L 273.205643 -180.596409 
L 270.511415 -180.572533 
L 267.817186 -180.548742 
L 265.122957 -180.525039 
L 262.428729 -180.50139 
L 259.7345 -180.477739 
L 257.040272 -180.454021 
L 254.346043 -180.430181 
L 251.651814 -180.406158 
L 248.957586 -180.381914 
L 246.263357 -180.357422 
L 243.569129 -180.332633 
L 240.8749 -180.307495 
L 238.180671 -180.281973 
L 235.486443 -180.256033 
L 232.792214 -180.229646 
L 230.097986 -180.202786 
L 227.403757 -180.175438 
L 224.709528 -180.147587 
L 222.0153 -180.119206 
L 219.321071 -180.090254 
L 216.626843 -180.060683 
L 213.932614 -180.03044 
L 211.238386 -179.999446 
L 208.544157 -179.967596 
L 205.849928 -179.9348 
L 203.1557 -179.900985 
L 200.461471 -179.866075 
L 197.767243 -179.830012 
L 195.073014 -179.792743 
L 192.378785 -179.75419 
L 189.684557 -179.71429 
L 186.990328 -179.672999 
L 184.2961 -179.630276 
L 181.601871 -179.586064 
L 178.907642 -179.540296 
L 176.213414 -179.492864 
L 173.519185 -179.443655 
L 170.824957 -179.392559 
L 168.130728 -179.339479 
L 165.436499 -179.284276 
L 162.742271 -179.226788 
L 160.048042 -179.166839 
L 157.353814 -179.104265 
L 154.659585 -179.038861 
L 151.965356 -178.970407 
L 149.271128 -178.898705 
L 146.576899 -178.823535 
L 143.882671 -178.744666 
L 141.188442 -178.66181 
L 138.494214 -178.574585 
L 135.799985 -178.482572 
L 133.105756 -178.385317 
L 130.411528 -178.282371 
L 127.717299 -178.173244 
L 125.023071 -178.057492 
L 122.328842 -177.934648 
L 119.634613 -177.804152 
L 116.940385 -177.665326 
L 114.246156 -177.517242 
L 111.551928 -177.358617 
L 108.857699 -177.187956 
L 106.16347 -177.003663 
L 103.469242 -176.80391 
L 100.775013 -176.586428 
L 98.080785 -176.348209 
L 95.386556 -176.085513 
L 92.692327 -175.793477 
L 89.998099 -175.465401 
L 87.30387 -175.091547 
L 84.609642 -174.656574 
L 81.915413 -174.133431 
L 79.221184 -173.465261 
L 75.179842 -172.463254 
z
" style="stroke: #ffffff; stroke-opacity: 0.25"/>
    </defs>
    <g clip-path="url(#pf59e473be0)">
     <use xlink:href="#m9be66daf29" x="0" y="345.6" style="fill: #1f77b4; fill-opacity: 0.25; stroke: #ffffff; stroke-opacity: 0.25"/>
    </g>
   </g>
   <g id="LineCollection_1">
    <path d="M 73.832727 174.528 
L 73.832727 41.472 
" clip-path="url(#pf59e473be0)" style="fill: none; stroke: #1f77b4; stroke-width: 1.5"/>
    <path d="M 76.526956 174.528 
L 76.526956 42.837796 
" clip-path="url(#pf59e473be0)" style="fill: none; stroke: #1f77b4; stroke-width: 1.5"/>
    <path d="M 79.221184 174.528 
L 79.221184 45.423378 
" clip-path="url(#pf59e473be0)" style="fill: none; stroke: #1f77b4; stroke-width: 1.5"/>
    <path d="M 81.915413 174.528 
L 81.915413 48.431366 
" clip-path="url(#pf59e473be0)" style="fill: none; stroke: #1f77b4; stroke-width: 1.5"/>
    <path d="M 84.609642 174.528 
L 84.609642 51.538281 
" clip-path="url(#pf59e473be0)" style="fill: none; stroke: #1f77b4; stroke-width: 1.5"/>
    <path d="M 87.30387 174.528 
L 87.30387 54.595149 
" clip-path="url(#pf59e473be0)" style="fill: none; stroke: #1f77b4; stroke-width: 1.5"/>
    <path d="M 89.998099 174.528 
L 89.998099 57.584542 
" clip-path="url(#pf59e473be0)" style="fill: none; stroke: #1f77b4; stroke-width: 1.5"/>
    <path d="M 92.692327 174.528 
L 92.692327 60.5033 
" clip-path="url(#pf59e473be0)" style="fill: none; stroke: #1f77b4; stroke-width: 1.5"/>
    <path d="M 95.386556 174.528 
L 95.386556 63.344091 
" clip-path="url(#pf59e473be0)" style="fill: none; stroke: #1f77b4; stroke-width: 1.5"/>
    <path d="M 98.080785 174.528 
L 98.080785 66.104223 
" clip-path="url(#pf59e473be0)" style="fill: none; stroke: #1f77b4; stroke-width: 1.5"/>
    <path d="M 100.775013 174.528 
L 100.775013 68.765963 
" clip-path="url(#pf59e473be0)" style="fill: none; stroke: #1f77b4; stroke-width: 1.5"/>
    <path d="M 103.469242 174.528 
L 103.469242 71.305089 
" clip-path="url(#pf59e473be0)" style="fill: none; stroke: #1f77b4; stroke-width: 1.5"/>
    <path d="M 106.16347 174.528 
L 106.16347 73.76121 
" clip-path="url(#pf59e473be0)" style="fill: none; stroke: #1f77b4; stroke-width: 1.5"/>
    <path d="M 108.857699 174.528 
L 108.857699 76.141378 
" clip-path="url(#pf59e473be0)" style="fill: none; stroke: #1f77b4; stroke-width: 1.5"/>
    <path d="M 111.551928 174.528 
L 111.551928 78.423127 
" clip-path="url(#pf59e473be0)" style="fill: none; stroke: #1f77b4; stroke-width: 1.5"/>
    <path d="M 114.246156 174.528 
L 114.246156 80.559403 
" clip-path="url(#pf59e473be0)" style="fill: none; stroke: #1f77b4; stroke-width: 1.5"/>
    <path d="M 116.940385 174.528 
L 116.940385 82.548931 
" clip-path="url(#pf59e473be0)" style="fill: none; stroke: #1f77b4; stroke-width: 1.5"/>
    <path d="M 119.634613 174.528 
L 119.634613 84.454288 
" clip-path="url(#pf59e473be0)" style="fill: none; stroke: #1f77b4; stroke-width: 1.5"/>
    <path d="M 122.328842 174.528 
L 122.328842 86.324498 
" clip-path="url(#pf59e473be0)" style="fill: none; stroke: #1f77b4; stroke-width: 1.5"/>
    <path d="M 125.023071 174.528 
L 125.023071 88.17377 
" clip-path="url(#pf59e473be0)" style="fill: none; stroke: #1f77b4; stroke-width: 1.5"/>
    <path d="M 127.717299 174.528 
L 127.717299 90.015335 
" clip-path="url(#pf59e473be0)" style="fill: none; stroke: #1f77b4; stroke-width: 1.5"/>
    <path d="M 130.411528 174.528 
L 130.411528 91.837339 
" clip-path="url(#pf59e473be0)" style="fill: none; stroke: #1f77b4; stroke-width: 1.5"/>
    <path d="M 133.105756 174.528 
L 133.105756 93.603147 
" clip-path="url(#pf59e473be0)" style="fill: none; stroke: #1f77b4; stroke-width: 1.5"/>
    <path d="M 135.799985 174.528 
L 135.799985 95.310272 
" clip-path="url(#pf59e473be0)" style="fill: none; stroke: #1f77b4; stroke-width: 1.5"/>
    <path d="M 138.494214 174.528 
L 138.494214 96.936817 
" clip-path="url(#pf59e473be0)" style="fill: none; stroke: #1f77b4; stroke-width: 1.5"/>
    <path d="M 141.188442 174.528 
L 141.188442 98.480066 
" clip-path="url(#pf59e473be0)" style="fill: none; stroke: #1f77b4; stroke-width: 1.5"/>
    <path d="M 143.882671 174.528 
L 143.882671 99.940197 
" clip-path="url(#pf59e473be0)" style="fill: none; stroke: #1f77b4; stroke-width: 1.5"/>
    <path d="M 146.576899 174.528 
L 146.576899 101.347719 
" clip-path="url(#pf59e473be0)" style="fill: none; stroke: #1f77b4; stroke-width: 1.5"/>
    <path d="M 149.271128 174.528 
L 149.271128 102.719446 
" clip-path="url(#pf59e473be0)" style="fill: none; stroke: #1f77b4; stroke-width: 1.5"/>
    <path d="M 151.965356 174.528 
L 151.965356 104.053219 
" clip-path="url(#pf59e473be0)" style="fill: none; stroke: #1f77b4; stroke-width: 1.5"/>
    <path d="M 154.659585 174.528 
L 154.659585 105.350713 
" clip-path="url(#pf59e473be0)" style="fill: none; stroke: #1f77b4; stroke-width: 1.5"/>
    <path d="M 157.353814 174.528 
L 157.353814 106.59342 
" clip-path="url(#pf59e473be0)" style="fill: none; stroke: #1f77b4; stroke-width: 1.5"/>
    <path d="M 160.048042 174.528 
L 160.048042 107.782237 
" clip-path="url(#pf59e473be0)" style="fill: none; stroke: #1f77b4; stroke-width: 1.5"/>
    <path d="M 162.742271 174.528 
L 162.742271 108.930241 
" clip-path="url(#pf59e473be0)" style="fill: none; stroke: #1f77b4; stroke-width: 1.5"/>
    <path d="M 165.436499 174.528 
L 165.436499 110.02695 
" clip-path="url(#pf59e473be0)" style="fill: none; stroke: #1f77b4; stroke-width: 1.5"/>
    <path d="M 168.130728 174.528 
L 168.130728 111.071516 
" clip-path="url(#pf59e473be0)" style="fill: none; stroke: #1f77b4; stroke-width: 1.5"/>
    <path d="M 170.824957 174.528 
L 170.824957 112.073258 
" clip-path="url(#pf59e473be0)" style="fill: none; stroke: #1f77b4; stroke-width: 1.5"/>
    <path d="M 173.519185 174.528 
L 173.519185 113.053747 
" clip-path="url(#pf59e473be0)" style="fill: none; stroke: #1f77b4; stroke-width: 1.5"/>
    <path d="M 176.213414 174.528 
L 176.213414 114.000443 
" clip-path="url(#pf59e473be0)" style="fill: none; stroke: #1f77b4; stroke-width: 1.5"/>
    <path d="M 178.907642 174.528 
L 178.907642 114.908149 
" clip-path="url(#pf59e473be0)" style="fill: none; stroke: #1f77b4; stroke-width: 1.5"/>
    <path d="M 181.601871 174.528 
L 181.601871 115.774748 
" clip-path="url(#pf59e473be0)" style="fill: none; stroke: #1f77b4; stroke-width: 1.5"/>
    <path d="M 184.2961 174.528 
L 184.2961 116.626064 
" clip-path="url(#pf59e473be0)" style="fill: none; stroke: #1f77b4; stroke-width: 1.5"/>
    <path d="M 186.990328 174.528 
L 186.990328 117.465299 
" clip-path="url(#pf59e473be0)" style="fill: none; stroke: #1f77b4; stroke-width: 1.5"/>
    <path d="M 189.684557 174.528 
L 189.684557 118.303348 
" clip-path="url(#pf59e473be0)" style="fill: none; stroke: #1f77b4; stroke-width: 1.5"/>
    <path d="M 192.378785 174.528 
L 192.378785 119.13531 
" clip-path="url(#pf59e473be0)" style="fill: none; stroke: #1f77b4; stroke-width: 1.5"/>
    <path d="M 195.073014 174.528 
L 195.073014 119.946775 
" clip-path="url(#pf59e473be0)" style="fill: none; stroke: #1f77b4; stroke-width: 1.5"/>
    <path d="M 197.767243 174.528 
L 197.767243 120.724848 
" clip-path="url(#pf59e473be0)" style="fill: none; stroke: #1f77b4; stroke-width: 1.5"/>
    <path d="M 200.461471 174.528 
L 200.461471 121.484822 
" clip-path="url(#pf59e473be0)" style="fill: none; stroke: #1f77b4; stroke-width: 1.5"/>
    <path d="M 203.1557 174.528 
L 203.1557 122.221969 
" clip-path="url(#pf59e473be0)" style="fill: none; stroke: #1f77b4; stroke-width: 1.5"/>
    <path d="M 205.849928 174.528 
L 205.849928 122.918805 
" clip-path="url(#pf59e473be0)" style="fill: none; stroke: #1f77b4; stroke-width: 1.5"/>
    <path d="M 208.544157 174.528 
L 208.544157 123.576411 
" clip-path="url(#pf59e473be0)" style="fill: none; stroke: #1f77b4; stroke-width: 1.5"/>
    <path d="M 211.238386 174.528 
L 211.238386 124.176827 
" clip-path="url(#pf59e473be0)" style="fill: none; stroke: #1f77b4; stroke-width: 1.5"/>
    <path d="M 213.932614 174.528 
L 213.932614 124.706146 
" clip-path="url(#pf59e473be0)" style="fill: none; stroke: #1f77b4; stroke-width: 1.5"/>
    <path d="M 216.626843 174.528 
L 216.626843 125.18009 
" clip-path="url(#pf59e473be0)" style="fill: none; stroke: #1f77b4; stroke-width: 1.5"/>
    <path d="M 219.321071 174.528 
L 219.321071 125.620149 
" clip-path="url(#pf59e473be0)" style="fill: none; stroke: #1f77b4; stroke-width: 1.5"/>
    <path d="M 222.0153 174.528 
L 222.0153 126.028387 
" clip-path="url(#pf59e473be0)" style="fill: none; stroke: #1f77b4; stroke-width: 1.5"/>
    <path d="M 224.709528 174.528 
L 224.709528 126.40852 
" clip-path="url(#pf59e473be0)" style="fill: none; stroke: #1f77b4; stroke-width: 1.5"/>
    <path d="M 227.403757 174.528 
L 227.403757 126.773602 
" clip-path="url(#pf59e473be0)" style="fill: none; stroke: #1f77b4; stroke-width: 1.5"/>
    <path d="M 230.097986 174.528 
L 230.097986 127.130476 
" clip-path="url(#pf59e473be0)" style="fill: none; stroke: #1f77b4; stroke-width: 1.5"/>
    <path d="M 232.792214 174.528 
L 232.792214 127.481134 
" clip-path="url(#pf59e473be0)" style="fill: none; stroke: #1f77b4; stroke-width: 1.5"/>
    <path d="M 235.486443 174.528 
L 235.486443 127.815698 
" clip-path="url(#pf59e473be0)" style="fill: none; stroke: #1f77b4; stroke-width: 1.5"/>
    <path d="M 238.180671 174.528 
L 238.180671 128.127793 
" clip-path="url(#pf59e473be0)" style="fill: none; stroke: #1f77b4; stroke-width: 1.5"/>
    <path d="M 240.8749 174.528 
L 240.8749 128.415572 
" clip-path="url(#pf59e473be0)" style="fill: none; stroke: #1f77b4; stroke-width: 1.5"/>
    <path d="M 243.569129 174.528 
L 243.569129 128.675378 
" clip-path="url(#pf59e473be0)" style="fill: none; stroke: #1f77b4; stroke-width: 1.5"/>
    <path d="M 246.263357 174.528 
L 246.263357 128.88963 
" clip-path="url(#pf59e473be0)" style="fill: none; stroke: #1f77b4; stroke-width: 1.5"/>
    <path d="M 248.957586 174.528 
L 248.957586 129.061682 
" clip-path="url(#pf59e473be0)" style="fill: none; stroke: #1f77b4; stroke-width: 1.5"/>
    <path d="M 251.651814 174.528 
L 251.651814 129.211856 
" clip-path="url(#pf59e473be0)" style="fill: none; stroke: #1f77b4; stroke-width: 1.5"/>
    <path d="M 254.346043 174.528 
L 254.346043 129.325935 
" clip-path="url(#pf59e473be0)" style="fill: none; stroke: #1f77b4; stroke-width: 1.5"/>
    <path d="M 257.040272 174.528 
L 257.040272 129.38561 
" clip-path="url(#pf59e473be0)" style="fill: none; stroke: #1f77b4; stroke-width: 1.5"/>
    <path d="M 259.7345 174.528 
L 259.7345 129.392207 
" clip-path="url(#pf59e473be0)" style="fill: none; stroke: #1f77b4; stroke-width: 1.5"/>
    <path d="M 262.428729 174.528 
L 262.428729 129.336884 
" clip-path="url(#pf59e473be0)" style="fill: none; stroke: #1f77b4; stroke-width: 1.5"/>
    <path d="M 265.122957 174.528 
L 265.122957 129.228948 
" clip-path="url(#pf59e473be0)" style="fill: none; stroke: #1f77b4; stroke-width: 1.5"/>
    <path d="M 267.817186 174.528 
L 267.817186 129.088099 
" clip-path="url(#pf59e473be0)" style="fill: none; stroke: #1f77b4; stroke-width: 1.5"/>
    <path d="M 270.511415 174.528 
L 270.511415 128.95052 
" clip-path="url(#pf59e473be0)" style="fill: none; stroke: #1f77b4; stroke-width: 1.5"/>
    <path d="M 273.205643 174.528 
L 273.205643 128.834839 
" clip-path="url(#pf59e473be0)" style="fill: none; stroke: #1f77b4; stroke-width: 1.5"/>
    <path d="M 275.899872 174.528 
L 275.899872 128.74839 
" clip-path="url(#pf59e473be0)" style="fill: none; stroke: #1f77b4; stroke-width: 1.5"/>
    <path d="M 278.5941 174.528 
L 278.5941 128.696158 
" clip-path="url(#pf59e473be0)" style="fill: none; stroke: #1f77b4; stroke-width: 1.5"/>
    <path d="M 281.288329 174.528 
L 281.288329 128.692631 
" clip-path="url(#pf59e473be0)" style="fill: none; stroke: #1f77b4; stroke-width: 1.5"/>
    <path d="M 283.982558 174.528 
L 283.982558 128.743143 
" clip-path="url(#pf59e473be0)" style="fill: none; stroke: #1f77b4; stroke-width: 1.5"/>
    <path d="M 286.676786 174.528 
L 286.676786 128.841003 
" clip-path="url(#pf59e473be0)" style="fill: none; stroke: #1f77b4; stroke-width: 1.5"/>
    <path d="M 289.371015 174.528 
L 289.371015 128.998376 
" clip-path="url(#pf59e473be0)" style="fill: none; stroke: #1f77b4; stroke-width: 1.5"/>
    <path d="M 292.065243 174.528 
L 292.065243 129.222593 
" clip-path="url(#pf59e473be0)" style="fill: none; stroke: #1f77b4; stroke-width: 1.5"/>
    <path d="M 294.759472 174.528 
L 294.759472 129.473442 
" clip-path="url(#pf59e473be0)" style="fill: none; stroke: #1f77b4; stroke-width: 1.5"/>
    <path d="M 297.4537 174.528 
L 297.4537 129.74286 
" clip-path="url(#pf59e473be0)" style="fill: none; stroke: #1f77b4; stroke-width: 1.5"/>
    <path d="M 300.147929 174.528 
L 300.147929 130.036356 
" clip-path="url(#pf59e473be0)" style="fill: none; stroke: #1f77b4; stroke-width: 1.5"/>
    <path d="M 302.842158 174.528 
L 302.842158 130.334802 
" clip-path="url(#pf59e473be0)" style="fill: none; stroke: #1f77b4; stroke-width: 1.5"/>
    <path d="M 305.536386 174.528 
L 305.536386 130.614837 
" clip-path="url(#pf59e473be0)" style="fill: none; stroke: #1f77b4; stroke-width: 1.5"/>
    <path d="M 308.230615 174.528 
L 308.230615 130.874471 
" clip-path="url(#pf59e473be0)" style="fill: none; stroke: #1f77b4; stroke-width: 1.5"/>
    <path d="M 310.924843 174.528 
L 310.924843 131.102117 
" clip-path="url(#pf59e473be0)" style="fill: none; stroke: #1f77b4; stroke-width: 1.5"/>
    <path d="M 313.619072 174.528 
L 313.619072 131.295656 
" clip-path="url(#pf59e473be0)" style="fill: none; stroke: #1f77b4; stroke-width: 1.5"/>
    <path d="M 316.313301 174.528 
L 316.313301 131.447384 
" clip-path="url(#pf59e473be0)" style="fill: none; stroke: #1f77b4; stroke-width: 1.5"/>
    <path d="M 319.007529 174.528 
L 319.007529 131.569542 
" clip-path="url(#pf59e473be0)" style="fill: none; stroke: #1f77b4; stroke-width: 1.5"/>
    <path d="M 321.701758 174.528 
L 321.701758 131.682396 
" clip-path="url(#pf59e473be0)" style="fill: none; stroke: #1f77b4; stroke-width: 1.5"/>
    <path d="M 324.395986 174.528 
L 324.395986 131.808016 
" clip-path="url(#pf59e473be0)" style="fill: none; stroke: #1f77b4; stroke-width: 1.5"/>
    <path d="M 327.090215 174.528 
L 327.090215 131.93269 
" clip-path="url(#pf59e473be0)" style="fill: none; stroke: #1f77b4; stroke-width: 1.5"/>
    <path d="M 329.784444 174.528 
L 329.784444 132.085397 
" clip-path="url(#pf59e473be0)" style="fill: none; stroke: #1f77b4; stroke-width: 1.5"/>
    <path d="M 332.478672 174.528 
L 332.478672 132.274255 
" clip-path="url(#pf59e473be0)" style="fill: none; stroke: #1f77b4; stroke-width: 1.5"/>
    <path d="M 335.172901 174.528 
L 335.172901 132.510909 
" clip-path="url(#pf59e473be0)" style="fill: none; stroke: #1f77b4; stroke-width: 1.5"/>
    <path d="M 337.867129 174.528 
L 337.867129 132.782612 
" clip-path="url(#pf59e473be0)" style="fill: none; stroke: #1f77b4; stroke-width: 1.5"/>
    <path d="M 340.561358 174.528 
L 340.561358 133.074949 
" clip-path="url(#pf59e473be0)" style="fill: none; stroke: #1f77b4; stroke-width: 1.5"/>
    <path d="M 343.255587 174.528 
L 343.255587 133.383796 
" clip-path="url(#pf59e473be0)" style="fill: none; stroke: #1f77b4; stroke-width: 1.5"/>
    <path d="M 345.949815 174.528 
L 345.949815 133.723992 
" clip-path="url(#pf59e473be0)" style="fill: none; stroke: #1f77b4; stroke-width: 1.5"/>
    <path d="M 348.644044 174.528 
L 348.644044 134.090362 
" clip-path="url(#pf59e473be0)" style="fill: none; stroke: #1f77b4; stroke-width: 1.5"/>
    <path d="M 351.338272 174.528 
L 351.338272 134.487146 
" clip-path="url(#pf59e473be0)" style="fill: none; stroke: #1f77b4; stroke-width: 1.5"/>
    <path d="M 354.032501 174.528 
L 354.032501 134.916135 
" clip-path="url(#pf59e473be0)" style="fill: none; stroke: #1f77b4; stroke-width: 1.5"/>
    <path d="M 356.72673 174.528 
L 356.72673 135.392214 
" clip-path="url(#pf59e473be0)" style="fill: none; stroke: #1f77b4; stroke-width: 1.5"/>
    <path d="M 359.420958 174.528 
L 359.420958 135.906404 
" clip-path="url(#pf59e473be0)" style="fill: none; stroke: #1f77b4; stroke-width: 1.5"/>
    <path d="M 362.115187 174.528 
L 362.115187 136.442977 
" clip-path="url(#pf59e473be0)" style="fill: none; stroke: #1f77b4; stroke-width: 1.5"/>
    <path d="M 364.809415 174.528 
L 364.809415 136.997229 
" clip-path="url(#pf59e473be0)" style="fill: none; stroke: #1f77b4; stroke-width: 1.5"/>
    <path d="M 367.503644 174.528 
L 367.503644 137.576537 
" clip-path="url(#pf59e473be0)" style="fill: none; stroke: #1f77b4; stroke-width: 1.5"/>
    <path d="M 370.197873 174.528 
L 370.197873 138.181894 
" clip-path="url(#pf59e473be0)" style="fill: none; stroke: #1f77b4; stroke-width: 1.5"/>
    <path d="M 372.892101 174.528 
L 372.892101 138.792 
" clip-path="url(#pf59e473be0)" style="fill: none; stroke: #1f77b4; stroke-width: 1.5"/>
    <path d="M 375.58633 174.528 
L 375.58633 139.43191 
" clip-path="url(#pf59e473be0)" style="fill: none; stroke: #1f77b4; stroke-width: 1.5"/>
    <path d="M 378.280558 174.528 
L 378.280558 140.106719 
" clip-path="url(#pf59e473be0)" style="fill: none; stroke: #1f77b4; stroke-width: 1.5"/>
    <path d="M 380.974787 174.528 
L 380.974787 140.78871 
" clip-path="url(#pf59e473be0)" style="fill: none; stroke: #1f77b4; stroke-width: 1.5"/>
    <path d="M 383.669015 174.528 
L 383.669015 141.485825 
" clip-path="url(#pf59e473be0)" style="fill: none; stroke: #1f77b4; stroke-width: 1.5"/>
    <path d="M 386.363244 174.528 
L 386.363244 142.200985 
" clip-path="url(#pf59e473be0)" style="fill: none; stroke: #1f77b4; stroke-width: 1.5"/>
    <path d="M 389.057473 174.528 
L 389.057473 142.924568 
" clip-path="url(#pf59e473be0)" style="fill: none; stroke: #1f77b4; stroke-width: 1.5"/>
    <path d="M 391.751701 174.528 
L 391.751701 143.6617 
" clip-path="url(#pf59e473be0)" style="fill: none; stroke: #1f77b4; stroke-width: 1.5"/>
    <path d="M 394.44593 174.528 
L 394.44593 144.407268 
" clip-path="url(#pf59e473be0)" style="fill: none; stroke: #1f77b4; stroke-width: 1.5"/>
    <path d="M 397.140158 174.528 
L 397.140158 145.14801 
" clip-path="url(#pf59e473be0)" style="fill: none; stroke: #1f77b4; stroke-width: 1.5"/>
   </g>
   <g id="line2d_1">
    <path d="M 57.6 174.528 
L 414.72 174.528 
" clip-path="url(#pf59e473be0)" style="fill: none; stroke: #1f77b4; stroke-width: 1.5; stroke-linecap: round"/>
   </g>
   <g id="line2d_2">
    <defs>
     <path id="m268f066b4c" d="M 0 2.5 
C 0.663008 2.5 1.29895 2.236584 1.767767 1.767767 
C 2.236584 1.29895 2.5 0.663008 2.5 0 
C 2.5 -0.663008 2.236584 -1.29895 1.767767 -1.767767 
C 1.29895 -2.236584 0.663008 -2.5 0 -2.5 
C -0.663008 -2.5 -1.29895 -2.236584 -1.767767 -1.767767 
C -2.236584 -1.29895 -2.5 -0.663008 -2.5 0 
C -2.5 0.663008 -2.236584 1.29895 -1.767767 1.767767 
C -1.29895 2.236584 -0.663008 2.5 0 2.5 
z
" style="stroke: #1f77b4"/>
    </defs>
    <g clip-path="url(#pf59e473be0)">
     <use xlink:href="#m268f066b4c" x="73.832727" y="41.472" style="fill: #1f77b4; stroke: #1f77b4"/>
     <use xlink:href="#m268f066b4c" x="76.526956" y="42.837796" style="fill: #1f77b4; stroke: #1f77b4"/>
     <use xlink:href="#m268f066b4c" x="79.221184" y="45.423378" style="fill: #1f77b4; stroke: #1f77b4"/>
     <use xlink:href="#m268f066b4c" x="81.915413" y="48.431366" style="fill: #1f77b4; stroke: #1f77b4"/>
     <use xlink:href="#m268f066b4c" x="84.609642" y="51.538281" style="fill: #1f77b4; stroke: #1f77b4"/>
     <use xlink:href="#m268f066b4c" x="87.30387" y="54.595149" style="fill: #1f77b4; stroke: #1f77b4"/>
     <use xlink:href="#m268f066b4c" x="89.998099" y="57.584542" style="fill: #1f77b4; stroke: #1f77b4"/>
     <use xlink:href="#m268f066b4c" x="92.692327" y="60.5033" style="fill: #1f77b4; stroke: #1f77b4"/>
     <use xlink:href="#m268f066b4c" x="95.386556" y="63.344091" style="fill: #1f77b4; stroke: #1f77b4"/>
     <use xlink:href="#m268f066b4c" x="98.080785" y="66.104223" style="fill: #1f77b4; stroke: #1f77b4"/>
     <use xlink:href="#m268f066b4c" x="100.775013" y="68.765963" style="fill: #1f77b4; stroke: #1f77b4"/>
     <use xlink:href="#m268f066b4c" x="103.469242" y="71.305089" style="fill: #1f77b4; stroke: #1f77b4"/>
     <use xlink:href="#m268f066b4c" x="106.16347" y="73.76121" style="fill: #1f77b4; stroke: #1f77b4"/>
     <use xlink:href="#m268f066b4c" x="108.857699" y="76.141378" style="fill: #1f77b4; stroke: #1f77b4"/>
     <use xlink:href="#m268f066b4c" x="111.551928" y="78.423127" style="fill: #1f77b4; stroke: #1f77b4"/>
     <use xlink:href="#m268f066b4c" x="114.246156" y="80.559403" style="fill: #1f77b4; stroke: #1f77b4"/>
     <use xlink:href="#m268f066b4c" x="116.940385" y="82.548931" style="fill: #1f77b4; stroke: #1f77b4"/>
     <use xlink:href="#m268f066b4c" x="119.634613" y="84.454288" style="fill: #1f77b4; stroke: #1f77b4"/>
     <use xlink:href="#m268f066b4c" x="122.328842" y="86.324498" style="fill: #1f77b4; stroke: #1f77b4"/>
     <use xlink:href="#m268f066b4c" x="125.023071" y="88.17377" style="fill: #1f77b4; stroke: #1f77b4"/>
     <use xlink:href="#m268f066b4c" x="127.717299" y="90.015335" style="fill: #1f77b4; stroke: #1f77b4"/>
     <use xlink:href="#m268f066b4c" x="130.411528" y="91.837339" style="fill: #1f77b4; stroke: #1f77b4"/>
     <use xlink:href="#m268f066b4c" x="133.105756" y="93.603147" style="fill: #1f77b4; stroke: #1f77b4"/>
     <use xlink:href="#m268f066b4c" x="135.799985" y="95.310272" style="fill: #1f77b4; stroke: #1f77b4"/>
     <use xlink:href="#m268f066b4c" x="138.494214" y="96.936817" style="fill: #1f77b4; stroke: #1f77b4"/>
     <use xlink:href="#m268f066b4c" x="141.188442" y="98.480066" style="fill: #1f77b4; stroke: #1f77b4"/>
     <use xlink:href="#m268f066b4c" x="143.882671" y="99.940197" style="fill: #1f77b4; stroke: #1f77b4"/>
     <use xlink:href="#m268f066b4c" x="146.576899" y="101.347719" style="fill: #1f77b4; stroke: #1f77b4"/>
     <use xlink:href="#m268f066b4c" x="149.271128" y="102.719446" style="fill: #1f77b4; stroke: #1f77b4"/>
     <use xlink:href="#m268f066b4c" x="151.965356" y="104.053219" style="fill: #1f77b4; stroke: #1f77b4"/>
     <use xlink:href="#m268f066b4c" x="154.659585" y="105.350713" style="fill: #1f77b4; stroke: #1f77b4"/>
     <use xlink:href="#m268f066b4c" x="157.353814" y="106.59342" style="fill: #1f77b4; stroke: #1f77b4"/>
     <use xlink:href="#m268f066b4c" x="160.048042" y="107.782237" style="fill: #1f77b4; stroke: #1f77b4"/>
     <use xlink:href="#m268f066b4c" x="162.742271" y="108.930241" style="fill: #1f77b4; stroke: #1f77b4"/>
     <use xlink:href="#m268f066b4c" x="165.436499" y="110.02695" style="fill: #1f77b4; stroke: #1f77b4"/>
     <use xlink:href="#m268f066b4c" x="168.130728" y="111.071516" style="fill: #1f77b4; stroke: #1f77b4"/>
     <use xlink:href="#m268f066b4c" x="170.824957" y="112.073258" style="fill: #1f77b4; stroke: #1f77b4"/>
     <use xlink:href="#m268f066b4c" x="173.519185" y="113.053747" style="fill: #1f77b4; stroke: #1f77b4"/>
     <use xlink:href="#m268f066b4c" x="176.213414" y="114.000443" style="fill: #1f77b4; stroke: #1f77b4"/>
     <use xlink:href="#m268f066b4c" x="178.907642" y="114.908149" style="fill: #1f77b4; stroke: #1f77b4"/>
     <use xlink:href="#m268f066b4c" x="181.601871" y="115.774748" style="fill: #1f77b4; stroke: #1f77b4"/>
     <use xlink:href="#m268f066b4c" x="184.2961" y="116.626064" style="fill: #1f77b4; stroke: #1f77b4"/>
     <use xlink:href="#m268f066b4c" x="186.990328" y="117.465299" style="fill: #1f77b4; stroke: #1f77b4"/>
     <use xlink:href="#m268f066b4c" x="189.684557" y="118.303348" style="fill: #1f77b4; stroke: #1f77b4"/>
     <use xlink:href="#m268f066b4c" x="192.378785" y="119.13531" style="fill: #1f77b4; stroke: #1f77b4"/>
     <use xlink:href="#m268f066b4c" x="195.073014" y="119.946775" style="fill: #1f77b4; stroke: #1f77b4"/>
     <use xlink:href="#m268f066b4c" x="197.767243" y="120.724848" style="fill: #1f77b4; stroke: #1f77b4"/>
     <use xlink:href="#m268f066b4c" x="200.461471" y="121.484822" style="fill: #1f77b4; stroke: #1f77b4"/>
     <use xlink:href="#m268f066b4c" x="203.1557" y="122.221969" style="fill: #1f77b4; stroke: #1f77b4"/>
     <use xlink:href="#m268f066b4c" x="205.849928" y="122.918805" style="fill: #1f77b4; stroke: #1f77b4"/>
     <use xlink:href="#m268f066b4c" x="208.544157" y="123.576411" style="fill: #1f77b4; stroke: #1f77b4"/>
     <use xlink:href="#m268f066b4c" x="211.238386" y="124.176827" style="fill: #1f77b4; stroke: #1f77b4"/>
     <use xlink:href="#m268f066b4c" x="213.932614" y="124.706146" style="fill: #1f77b4; stroke: #1f77b4"/>
     <use xlink:href="#m268f066b4c" x="216.626843" y="125.18009" style="fill: #1f77b4; stroke: #1f77b4"/>
     <use xlink:href="#m268f066b4c" x="219.321071" y="125.620149" style="fill: #1f77b4; stroke: #1f77b4"/>
     <use xlink:href="#m268f066b4c" x="222.0153" y="126.028387" style="fill: #1f77b4; stroke: #1f77b4"/>
     <use xlink:href="#m268f066b4c" x="224.709528" y="126.40852" style="fill: #1f77b4; stroke: #1f77b4"/>
     <use xlink:href="#m268f066b4c" x="227.403757" y="126.773602" style="fill: #1f77b4; stroke: #1f77b4"/>
     <use xlink:href="#m268f066b4c" x="230.097986" y="127.130476" style="fill: #1f77b4; stroke: #1f77b4"/>
     <use xlink:href="#m268f066b4c" x="232.792214" y="127.481134" style="fill: #1f77b4; stroke: #1f77b4"/>
     <use xlink:href="#m268f066b4c" x="235.486443" y="127.815698" style="fill: #1f77b4; stroke: #1f77b4"/>
     <use xlink:href="#m268f066b4c" x="238.180671" y="128.127793" style="fill: #1f77b4; stroke: #1f77b4"/>
     <use xlink:href="#m268f066b4c" x="240.8749" y="128.415572" style="fill: #1f77b4; stroke: #1f77b4"/>
     <use xlink:href="#m268f066b4c" x="243.569129" y="128.675378" style="fill: #1f77b4; stroke: #1f77b4"/>
     <use xlink:href="#m268f066b4c" x="246.263357" y="128.88963" style="fill: #1f77b4; stroke: #1f77b4"/>
     <use xlink:href="#m268f066b4c" x="248.957586" y="129.061682" style="fill: #1f77b4; stroke: #1f77b4"/>
     <use xlink:href="#m268f066b4c" x="251.651814" y="129.211856" style="fill: #1f77b4; stroke: #1f77b4"/>
     <use xlink:href="#m268f066b4c" x="254.346043" y="129.325935" style="fill: #1f77b4; stroke: #1f77b4"/>
     <use xlink:href="#m268f066b4c" x="257.040272" y="129.38561" style="fill: #1f77b4; stroke: #1f77b4"/>
     <use xlink:href="#m268f066b4c" x="259.7345" y="129.392207" style="fill: #1f77b4; stroke: #1f77b4"/>
     <use xlink:href="#m268f066b4c" x="262.428729" y="129.336884" style="fill: #1f77b4; stroke: #1f77b4"/>
     <use xlink:href="#m268f066b4c" x="265.122957" y="129.228948" style="fill: #1f77b4; stroke: #1f77b4"/>
     <use xlink:href="#m268f066b4c" x="267.817186" y="129.088099" style="fill: #1f77b4; stroke: #1f77b4"/>
     <use xlink:href="#m268f066b4c" x="270.511415" y="128.95052" style="fill: #1f77b4; stroke: #1f77b4"/>
     <use xlink:href="#m268f066b4c" x="273.205643" y="128.834839" style="fill: #1f77b4; stroke: #1f77b4"/>
     <use xlink:href="#m268f066b4c" x="275.899872" y="128.74839" style="fill: #1f77b4; stroke: #1f77b4"/>
     <use xlink:href="#m268f066b4c" x="278.5941" y="128.696158" style="fill: #1f77b4; stroke: #1f77b4"/>
     <use xlink:href="#m268f066b4c" x="281.288329" y="128.692631" style="fill: #1f77b4; stroke: #1f77b4"/>
     <use xlink:href="#m268f066b4c" x="283.982558" y="128.743143" style="fill: #1f77b4; stroke: #1f77b4"/>
     <use xlink:href="#m268f066b4c" x="286.676786" y="128.841003" style="fill: #1f77b4; stroke: #1f77b4"/>
     <use xlink:href="#m268f066b4c" x="289.371015" y="128.998376" style="fill: #1f77b4; stroke: #1f77b4"/>
     <use xlink:href="#m268f066b4c" x="292.065243" y="129.222593" style="fill: #1f77b4; stroke: #1f77b4"/>
     <use xlink:href="#m268f066b4c" x="294.759472" y="129.473442" style="fill: #1f77b4; stroke: #1f77b4"/>
     <use xlink:href="#m268f066b4c" x="297.4537" y="129.74286" style="fill: #1f77b4; stroke: #1f77b4"/>
     <use xlink:href="#m268f066b4c" x="300.147929" y="130.036356" style="fill: #1f77b4; stroke: #1f77b4"/>
     <use xlink:href="#m268f066b4c" x="302.842158" y="130.334802" style="fill: #1f77b4; stroke: #1f77b4"/>
     <use xlink:href="#m268f066b4c" x="305.536386" y="130.614837" style="fill: #1f77b4; stroke: #1f77b4"/>
     <use xlink:href="#m268f066b4c" x="308.230615" y="130.874471" style="fill: #1f77b4; stroke: #1f77b4"/>
     <use xlink:href="#m268f066b4c" x="310.924843" y="131.102117" style="fill: #1f77b4; stroke: #1f77b4"/>
     <use xlink:href="#m268f066b4c" x="313.619072" y="131.295656" style="fill: #1f77b4; stroke: #1f77b4"/>
     <use xlink:href="#m268f066b4c" x="316.313301" y="131.447384" style="fill: #1f77b4; stroke: #1f77b4"/>
     <use xlink:href="#m268f066b4c" x="319.007529" y="131.569542" style="fill: #1f77b4; stroke: #1f77b4"/>
     <use xlink:href="#m268f066b4c" x="321.701758" y="131.682396" style="fill: #1f77b4; stroke: #1f77b4"/>
     <use xlink:href="#m268f066b4c" x="324.395986" y="131.808016" style="fill: #1f77b4; stroke: #1f77b4"/>
     <use xlink:href="#m268f066b4c" x="327.090215" y="131.93269" style="fill: #1f77b4; stroke: #1f77b4"/>
     <use xlink:href="#m268f066b4c" x="329.784444" y="132.085397" style="fill: #1f77b4; stroke: #1f77b4"/>
     <use xlink:href="#m268f066b4c" x="332.478672" y="132.274255" style="fill: #1f77b4; stroke: #1f77b4"/>
     <use xlink:href="#m268f066b4c" x="335.172901" y="132.510909" style="fill: #1f77b4; stroke: #1f77b4"/>
     <use xlink:href="#m268f066b4c" x="337.867129" y="132.782612" style="fill: #1f77b4; stroke: #1f77b4"/>
     <use xlink:href="#m268f066b4c" x="340.561358" y="133.074949" style="fill: #1f77b4; stroke: #1f77b4"/>
     <use xlink:href="#m268f066b4c" x="343.255587" y="133.383796" style="fill: #1f77b4; stroke: #1f77b4"/>
     <use xlink:href="#m268f066b4c" x="345.949815" y="133.723992" style="fill: #1f77b4; stroke: #1f77b4"/>
     <use xlink:href="#m268f066b4c" x="348.644044" y="134.090362" style="fill: #1f77b4; stroke: #1f77b4"/>
     <use xlink:href="#m268f066b4c" x="351.338272" y="134.487146" style="fill: #1f77b4; stroke: #1f77b4"/>
     <use xlink:href="#m268f066b4c" x="354.032501" y="134.916135" style="fill: #1f77b4; stroke: #1f77b4"/>
     <use xlink:href="#m268f066b4c" x="356.72673" y="135.392214" style="fill: #1f77b4; stroke: #1f77b4"/>
     <use xlink:href="#m268f066b4c" x="359.420958" y="135.906404" style="fill: #1f77b4; stroke: #1f77b4"/>
     <use xlink:href="#m268f066b4c" x="362.115187" y="136.442977" style="fill: #1f77b4; stroke: #1f77b4"/>
     <use xlink:href="#m268f066b4c" x="364.809415" y="136.997229" style="fill: #1f77b4; stroke: #1f77b4"/>
     <use xlink:href="#m268f066b4c" x="367.503644" y="137.576537" style="fill: #1f77b4; stroke: #1f77b4"/>
     <use xlink:href="#m268f066b4c" x="370.197873" y="138.181894" style="fill: #1f77b4; stroke: #1f77b4"/>
     <use xlink:href="#m268f066b4c" x="372.892101" y="138.792" style="fill: #1f77b4; stroke: #1f77b4"/>
     <use xlink:href="#m268f066b4c" x="375.58633" y="139.43191" style="fill: #1f77b4; stroke: #1f77b4"/>
     <use xlink:href="#m268f066b4c" x="378.280558" y="140.106719" style="fill: #1f77b4; stroke: #1f77b4"/>
     <use xlink:href="#m268f066b4c" x="380.974787" y="140.78871" style="fill: #1f77b4; stroke: #1f77b4"/>
     <use xlink:href="#m268f066b4c" x="383.669015" y="141.485825" style="fill: #1f77b4; stroke: #1f77b4"/>
     <use xlink:href="#m268f066b4c" x="386.363244" y="142.200985" style="fill: #1f77b4; stroke: #1f77b4"/>
     <use xlink:href="#m268f066b4c" x="389.057473" y="142.924568" style="fill: #1f77b4; stroke: #1f77b4"/>
     <use xlink:href="#m268f066b4c" x="391.751701" y="143.6617" style="fill: #1f77b4; stroke: #1f77b4"/>
     <use xlink:href="#m268f066b4c" x="394.44593" y="144.407268" style="fill: #1f77b4; stroke: #1f77b4"/>
     <use xlink:href="#m268f066b4c" x="397.140158" y="145.14801" style="fill: #1f77b4; stroke: #1f77b4"/>
    </g>
   </g>
   <g id="patch_3">
    <path d="M 57.6 307.584 
L 57.6 41.472 
" style="fill: none; stroke: #ffffff; stroke-width: 0.8; stroke-linejoin: miter; stroke-linecap: square"/>
   </g>
   <g id="patch_4">
    <path d="M 414.72 307.584 
L 414.72 41.472 
" style="fill: none; stroke: #ffffff; stroke-width: 0.8; stroke-linejoin: miter; stroke-linecap: square"/>
   </g>
   <g id="patch_5">
    <path d="M 57.6 307.584 
L 414.72 307.584 
" style="fill: none; stroke: #ffffff; stroke-width: 0.8; stroke-linejoin: miter; stroke-linecap: square"/>
   </g>
   <g id="patch_6">
    <path d="M 57.6 41.472 
L 414.72 41.472 
" style="fill: none; stroke: #ffffff; stroke-width: 0.8; stroke-linejoin: miter; stroke-linecap: square"/>
   </g>
   <g id="text_19">
    <!-- Autocorrelation -->
    <g style="fill: #262626" transform="translate(195.80625 35.472) scale(0.12 -0.12)">
     <use xlink:href="#ArialMT-41"/>
     <use xlink:href="#ArialMT-75" x="66.699219"/>
     <use xlink:href="#ArialMT-74" x="122.314453"/>
     <use xlink:href="#ArialMT-6f" x="150.097656"/>
     <use xlink:href="#ArialMT-63" x="205.712891"/>
     <use xlink:href="#ArialMT-6f" x="255.712891"/>
     <use xlink:href="#ArialMT-72" x="311.328125"/>
     <use xlink:href="#ArialMT-72" x="344.628906"/>
     <use xlink:href="#ArialMT-65" x="377.929688"/>
     <use xlink:href="#ArialMT-6c" x="433.544922"/>
     <use xlink:href="#ArialMT-61" x="455.761719"/>
     <use xlink:href="#ArialMT-74" x="511.376953"/>
     <use xlink:href="#ArialMT-69" x="539.160156"/>
     <use xlink:href="#ArialMT-6f" x="561.376953"/>
     <use xlink:href="#ArialMT-6e" x="616.992188"/>
    </g>
   </g>
  </g>
 </g>
 <defs>
  <clipPath id="pf59e473be0">
   <rect x="57.6" y="41.472" width="357.12" height="266.112"/>
  </clipPath>
 </defs>
</svg>
